<svg width="40" height="40" viewBox="0 0 40 40" fill="none" xmlns="http://www.w3.org/2000/svg">
<path d="M0 10C0 4.47715 4.47715 0 10 0H30C35.5228 0 40 4.47715 40 10V30C40 35.5228 35.5228 40 30 40H10C4.47715 40 0 35.5228 0 30V10Z" fill="#222626"/>
<path d="M20.1416 6.00683C20.8488 6.06254 21.4695 6.50273 21.7568 7.15136L21.8135 7.29296L21.877 7.4746C22.8299 7.53768 23.5839 8.3289 23.584 9.29784V9.38476C23.5838 10.0005 23.2875 10.5759 22.793 10.9346L22.6914 11.0039L22.0957 11.3799C22.6718 11.8436 23.1462 12.3024 23.4697 12.7627L23.5654 12.9101C23.7719 13.2559 23.869 13.6125 23.9307 13.8682L24.0518 14.3721C25.0096 13.8722 26.0115 13.6094 27.0527 13.6094L27.4346 13.6182C29.1989 13.707 30.6665 14.4186 31.751 15.7519L31.9775 16.0469L31.9873 16.0605C32.6619 17.0266 33 18.1271 33 19.3291L32.9922 19.5898C32.917 20.8991 32.2833 22.2689 31.2705 23.6748L30.375 24.9199C29.5458 26.1859 29.0728 27.9583 29.0479 30.3154V30.334C29.0025 31.8747 27.785 32.7807 26.3076 33.2744C24.9945 33.7132 23.1966 33.9395 20.9639 33.9893L19.9805 34C17.3137 34 15.1958 33.7762 13.7012 33.2744C12.2272 32.7795 11.0205 31.8764 10.9531 30.3486L10.9521 30.334V30.3203C10.9273 28.7235 10.6961 27.3358 10.2705 26.1426C10.025 25.5471 9.52847 24.7218 8.73535 23.6445L8.73438 23.6435C7.65081 22.1673 7.00003 20.7192 7 19.3291L7.01074 18.9521C7.11595 17.0919 8.00807 15.6015 9.62891 14.5654L9.81445 14.4502C10.7482 13.8917 11.7829 13.6094 12.8994 13.6094L13.1572 13.6143C13.7562 13.6378 14.3448 13.743 14.9199 13.9297L14.9854 13.9463C15.1464 13.9781 15.3598 13.9527 15.6074 13.8223C15.8831 13.6769 16.124 13.4362 16.2676 13.1777C16.5446 12.5231 17.1623 11.9242 17.8789 11.375L17.2803 11.0078C16.7139 10.6604 16.3682 10.0433 16.3682 9.3789V9.31738C16.3682 8.33424 17.1359 7.53164 18.1045 7.47363L18.1504 7.33593L18.2041 7.18945C18.5026 6.47437 19.2043 6.00097 19.9893 6.00097L20.1416 6.00683Z" fill="white" stroke="#6D7878" stroke-width="2"/>
<path d="M12.9844 15.9992C14.1967 15.9992 15.444 16.573 16.7354 17.7355C18.1849 19.1096 18.9082 20.896 18.9082 23.089C18.9082 23.1708 18.9245 23.2518 18.9463 23.3195C18.9566 23.3499 18.9696 23.3877 18.9844 23.4152C19.0104 23.4616 19.0508 23.512 19.0898 23.55C19.2678 23.7174 19.5798 23.8087 20.0176 23.8087C20.6765 23.8087 21.0039 23.5646 21.0039 23.089C21.0039 20.8697 21.7478 19.1045 23.2236 17.7834C24.4886 16.5945 25.7243 15.9992 26.9365 15.9992C27.3844 15.9992 27.804 16.0469 28.1992 16.1525C29.7015 16.5753 30.458 17.6256 30.458 19.2902C30.458 19.7922 30.238 20.4351 29.8164 21.2277C29.0785 22.628 28.1586 23.8194 27.0518 24.797C26.6565 25.1405 25.9573 25.3145 24.9561 25.3146C24.1989 25.3146 23.0945 25.2074 21.6387 24.9923C20.5135 24.8261 19.3692 24.8271 18.2441 24.9943C16.8076 25.2078 15.7103 25.3146 14.9561 25.3146C13.9811 25.3146 13.2821 25.1404 12.8604 24.797C12.5704 24.5328 12.2195 24.1594 11.7979 23.6837C10.243 21.808 9.46289 20.347 9.46289 19.2902C9.46289 19.2327 9.46741 19.1752 9.47559 19.1183L9.56836 18.4709C9.60014 18.2499 9.64441 18.0294 9.73047 17.8234C10.209 16.6781 11.1946 16.067 12.6875 15.9992H12.9844Z" fill="#FAF3DD"/>
<path d="M12.9844 15.9992C14.1967 15.9992 15.444 16.573 16.7354 17.7355C18.1849 19.1096 18.9082 20.896 18.9082 23.089C18.9082 23.1708 18.9245 23.2518 18.9463 23.3195C18.9566 23.3499 18.9696 23.3877 18.9844 23.4152C19.0104 23.4616 19.0508 23.512 19.0898 23.55C19.2678 23.7174 19.5798 23.8087 20.0176 23.8087C20.6765 23.8087 21.0039 23.5646 21.0039 23.089C21.0039 20.8697 21.7478 19.1045 23.2236 17.7834C24.4886 16.5945 25.7243 15.9992 26.9365 15.9992C27.3844 15.9992 27.804 16.0469 28.1992 16.1525C29.7015 16.5753 30.458 17.6256 30.458 19.2902C30.458 19.7922 30.238 20.4351 29.8164 21.2277C29.0785 22.628 28.1586 23.8194 27.0518 24.797C26.6565 25.1405 25.9573 25.3145 24.9561 25.3146C24.1989 25.3146 23.0945 25.2074 21.6387 24.9923C20.5135 24.8261 19.3692 24.8271 18.2441 24.9943C16.8076 25.2078 15.7103 25.3146 14.9561 25.3146C13.9811 25.3146 13.2821 25.1404 12.8604 24.797C12.5704 24.5328 12.2195 24.1594 11.7979 23.6837C10.243 21.808 9.46289 20.347 9.46289 19.2902C9.46289 19.2327 9.46741 19.1752 9.47559 19.1183L9.56836 18.4709C9.60014 18.2499 9.64441 18.0294 9.73047 17.8234C10.209 16.6781 11.1946 16.067 12.6875 15.9992H12.9844Z" stroke="#FAF3DD"/>
<path d="M13.0234 15.9887L13.293 15.9965C14.5388 16.0686 15.6676 16.6399 16.6758 17.5815L16.8896 17.7885L16.8975 17.7973L17.1426 18.0619C18.3223 19.4087 18.9028 21.1568 18.96 23.2084H18.9609C18.976 23.5421 18.8978 23.8781 18.7061 24.1791C18.5204 24.4704 18.2638 24.6738 18.0039 24.8149C17.5086 25.0837 16.8728 25.1971 16.207 25.2397L16.1758 25.2416H15.4863C14.3485 25.2358 13.1286 24.9219 12.168 24.1147L11.9795 23.9467C11.4703 23.4656 10.978 22.8778 10.501 22.1967L10.4951 22.1869C9.82633 21.2091 9.37306 20.2305 9.37305 19.2914L9.38184 19.0219C9.42252 18.3988 9.60881 17.8105 9.99219 17.311C10.4203 16.7533 11.0244 16.3987 11.7119 16.1947V16.1938C11.7174 16.1919 11.723 16.1907 11.7285 16.1889C11.7367 16.1865 11.7447 16.1834 11.7529 16.1811V16.1821C12.0993 16.0705 12.4557 16.0071 12.8125 15.9897L12.9541 15.9877C12.998 15.9882 13.0039 15.9887 13.0234 15.9887Z" fill="#1F2323" stroke="#6D7878" stroke-width="2"/>
<path d="M26.8604 15.9887L27.1172 15.9946C28.389 16.0485 29.4891 16.5137 30.1191 17.5951L30.1973 17.7406C30.3648 18.0803 30.4368 18.4205 30.4824 18.6547L30.5283 18.9174C30.564 19.1554 30.5879 19.4385 30.5557 19.7397L30.5283 19.9233C30.2963 21.1874 29.3965 22.4581 28.1074 23.727L28.082 23.7514L28.0547 23.7748L27.1299 24.5629C27.0768 24.6082 27.0223 24.6519 26.9658 24.6928L26.792 24.808C26.5371 24.9638 26.2433 25.086 25.9209 25.144L25.7812 25.1645C25.4445 25.2044 25.0998 25.2285 24.751 25.2377L24.4014 25.2416C23.5474 25.2416 22.7788 25.1607 22.1895 24.9233C21.8858 24.8009 21.5734 24.6149 21.333 24.3237C21.0783 24.015 20.9512 23.6431 20.9512 23.2533V23.228L20.9697 22.8149C21.0876 20.9088 21.6798 19.2879 22.8174 18.0424L23.0693 17.7807C24.127 16.723 25.3227 16.0592 26.6357 15.9906L26.7871 15.9877C26.8342 15.9883 26.8392 15.9887 26.8604 15.9887Z" fill="#1F2323" stroke="#6D7878" stroke-width="2"/>
<path d="M26.7568 28.9264C26.7552 28.921 26.7511 28.9088 26.7461 28.8942C26.7435 28.8865 26.7407 28.8757 26.7363 28.8639C26.7321 28.8525 26.7257 28.8366 26.7178 28.818L26.7061 28.7907L26.6924 28.7643L26.6738 28.7253L26.6455 28.6696L26.6113 28.6178L26.5918 28.5895L26.5732 28.5602L26.5479 28.5221L26.5186 28.487L26.4053 28.361C26.1275 28.0838 25.768 27.9236 25.4668 27.821C25.0921 27.6933 24.6388 27.6001 24.1299 27.529C23.1086 27.3862 21.7303 27.318 20.0176 27.318H19.9199C18.8777 27.3205 17.9431 27.3668 17.1172 27.4469V27.4479L16.1768 27.5231L16.1523 27.5251L16.1279 27.528C15.4742 27.613 14.9153 27.7213 14.4795 27.8629C14.2618 27.9337 14.0423 28.0232 13.8467 28.1422C13.6609 28.2552 13.4165 28.4422 13.2617 28.7438L13.2559 28.7565L13.249 28.7702C13.1964 28.8806 13.1733 28.9784 13.1631 29.0251C13.1611 29.034 13.1598 29.0426 13.1582 29.0504C13.1563 29.0575 13.1542 29.0651 13.1523 29.0729C13.147 29.095 13.1404 29.1262 13.1348 29.1637L13.123 29.3161L13.1348 29.5094C13.1587 29.705 13.2205 29.9043 13.334 30.0924C13.4843 30.3414 13.6926 30.5174 13.9072 30.6364C14.307 30.8578 14.778 30.9108 15.1943 30.9108H15.2373L15.2783 30.9069L19.2207 30.5749L19.5996 30.5514C19.9789 30.5355 20.3588 30.5437 20.7373 30.5758L24.6416 30.9069L24.6836 30.9108H24.7256C25.1462 30.9108 25.6117 30.8629 26.0059 30.6628C26.2174 30.5553 26.4338 30.3908 26.5947 30.1452C26.7181 29.9568 26.7869 29.7541 26.8135 29.5534L26.8262 29.3542V29.3219L26.8242 29.2585L26.8232 29.2477L26.8223 29.236L26.8086 29.1354C26.8049 29.1149 26.801 29.0977 26.7988 29.0876L26.7959 29.0758L26.792 29.0544L26.7852 29.0251C26.7832 29.0168 26.78 29.0046 26.7764 28.9909C26.7733 28.9792 26.7676 28.9588 26.7598 28.9342M26.7568 28.9264L26.7578 28.9294M26.7568 28.9264C26.758 28.9301 26.7596 28.9336 26.7598 28.9342M26.7568 28.9264L26.7578 28.9294M26.7568 28.9264L26.7549 28.9186L26.751 28.9079C26.7537 28.9161 26.7557 28.9229 26.7568 28.9264ZM26.7578 28.9294C26.7583 28.931 26.7586 28.9326 26.7588 28.9333L26.7598 28.9342M26.7578 28.9294L26.7598 28.9342" fill="#1F2323" stroke="#6D7878" stroke-width="2"/>
<g filter="url(#filter0_i_3151_26103)">
<path d="M21.0072 23.0916C21.0072 23.5672 20.6778 23.805 20.0189 23.805C19.2809 23.805 18.912 23.5672 18.912 23.0916C18.912 20.8985 18.1872 19.115 16.7377 17.7412C15.4462 16.5786 14.1944 15.9973 12.9822 15.9973C11.4226 15.9973 10.3719 16.5375 9.83037 17.6181C9.66333 17.9514 9.59468 18.3228 9.54019 18.6915L9.47552 19.1292C9.4678 19.1814 9.46393 19.2341 9.46393 19.2869C9.46393 20.3438 10.2414 21.8103 11.7964 23.6862C12.2181 24.1618 12.5739 24.5317 12.8638 24.796C13.2854 25.1395 13.9838 25.3112 14.959 25.3112C15.7132 25.3112 16.8079 25.2045 18.2432 24.9912C19.3683 24.8239 20.5125 24.8225 21.6377 24.9885C23.0959 25.2037 24.2037 25.3112 24.961 25.3112C25.9625 25.3112 26.6609 25.1395 27.0562 24.796C28.1632 23.8183 29.0856 22.6293 29.8235 21.2289C30.2452 20.4362 30.4561 19.7889 30.4561 19.2869C30.4561 17.6222 29.7049 16.5785 28.2027 16.1557C27.8074 16.05 27.3857 15.9972 26.9376 15.9972C25.7253 15.9972 24.4866 16.5917 23.2217 17.7807C21.7458 19.1018 21.0072 20.8723 21.0072 23.0916ZM29.5043 18.8536C29.559 19.1416 29.598 19.4361 29.5469 19.7248C29.3777 20.6822 28.6661 21.778 27.4123 23.0121L26.4879 23.7962C26.419 23.8546 26.3455 23.9074 26.2681 23.954C26.0838 24.0648 25.8801 24.1409 25.6666 24.1669C25.2634 24.2161 24.8437 24.2407 24.4078 24.2407C22.7737 24.2407 21.9567 23.9104 21.9567 23.2498C22.0094 21.2153 22.6156 19.63 23.7752 18.4938C24.7767 17.4897 25.8046 16.9877 26.8589 16.9877C28.0228 16.9877 28.8211 17.3542 29.2538 18.0873C29.3914 18.3204 29.4539 18.5878 29.5043 18.8536ZM25.8312 29.3534C25.8312 28.6664 23.894 28.3229 20.0197 28.3229C18.9655 28.3229 18.0299 28.3625 17.2129 28.4418L16.2641 28.5211C14.8409 28.706 14.1294 28.9702 14.1294 29.3137C14.1294 29.7101 14.4851 29.9082 15.1967 29.9082L19.151 29.5806C19.7028 29.5349 20.2575 29.5351 20.8093 29.5812L24.7241 29.9082C25.462 29.9082 25.8312 29.7233 25.8312 29.3534ZM28.0449 30.3046C27.9922 32.1013 25.3039 32.9997 19.9803 32.9997C14.7094 32.9997 12.0342 32.1013 11.9552 30.3046C11.9289 28.6135 11.6785 27.1075 11.2041 25.7864C10.9142 25.073 10.3607 24.1614 9.54373 23.0517C8.51587 21.6513 8.00195 20.4094 8.00195 19.3262C8.00195 17.6351 8.72671 16.3272 10.1763 15.4024C10.9933 14.874 11.9025 14.6097 12.904 14.6097C13.4855 14.6097 14.055 14.7001 14.6127 14.8808C15.5826 15.1951 16.6975 14.5204 17.1736 13.6189C17.3356 13.1781 17.8225 12.6559 18.6345 12.0523C18.8557 11.8878 18.9921 11.6313 18.9921 11.3557C18.9921 11.0628 18.8397 10.791 18.5898 10.6382L17.8086 10.1606C17.5369 9.99456 17.3713 9.69907 17.3713 9.38065V9.31316C17.3713 8.84554 17.7503 8.46645 18.218 8.46645C18.5852 8.46645 18.9106 8.22974 19.0236 7.88035L19.0989 7.6476C19.2238 7.26154 19.5833 7 19.989 7C20.3864 7 20.7405 7.25108 20.8719 7.62614L20.9711 7.90917C21.0881 8.24298 21.4032 8.46645 21.7569 8.46645C22.2168 8.46645 22.5896 8.83925 22.5896 9.29912V9.38491C22.5896 9.70121 22.4268 9.99525 22.1588 10.1632L21.4124 10.6309C21.161 10.7885 21.0083 11.0643 21.0083 11.361C21.0083 11.6344 21.1393 11.8901 21.3543 12.059C21.9554 12.5313 22.3895 12.9574 22.6566 13.3373C22.8165 13.5648 22.8991 13.8342 22.9642 14.1045L23.1319 14.8012C23.1393 14.832 23.1435 14.852 23.146 14.8837C23.1871 15.3902 23.7862 15.6737 24.2251 15.4176C25.1478 14.879 26.0917 14.6097 27.0569 14.6097C28.8227 14.6097 30.1932 15.2835 31.1682 16.6311C31.7216 17.4237 31.9984 18.3221 31.9984 19.3262C31.9984 20.4095 31.4844 21.6646 30.4566 23.0912L29.5473 24.3595C28.5722 25.8392 28.0712 27.8209 28.0449 30.3046ZM10.3738 19.2863C10.3738 18.1766 10.9273 17.4632 12.0342 17.1461C12.3505 17.0404 12.6799 16.9875 13.0225 16.9875C14.1294 16.9875 15.1837 17.4896 16.1852 18.4936C17.3184 19.6562 17.9114 21.2416 17.9641 23.2497C17.9905 23.831 17.3843 24.1613 16.1456 24.2406H15.5526C15.5317 24.2406 15.5107 24.2405 15.4897 24.2404C14.4536 24.2342 13.4184 23.927 12.6647 23.216C12.2173 22.7939 11.77 22.2635 11.3226 21.6247C10.6901 20.6999 10.3738 19.9205 10.3738 19.2863Z" fill="white"/>
</g>
<path d="M20.1416 6.00586C20.8503 6.06164 21.4727 6.50295 21.7598 7.15332L21.8154 7.29492L21.877 7.47168C22.833 7.53354 23.5897 8.32716 23.5898 9.29883V9.38477C23.5898 10.0041 23.2906 10.5825 22.792 10.9414L22.6895 11.0107L22.1006 11.3789C22.6764 11.8428 23.1511 12.3017 23.4746 12.7617V12.7627L23.5703 12.9102C23.7771 13.2565 23.8748 13.6137 23.9365 13.8701L24.0566 14.3701C25.015 13.8721 26.0177 13.6094 27.0566 13.6094C28.9912 13.6094 30.5904 14.3214 31.752 15.75L31.9785 16.0449L31.9883 16.0586C32.6636 17.0259 32.998 18.1258 32.998 19.3262C32.998 20.713 32.3481 22.1739 31.2686 23.6729L31.2695 23.6738L30.376 24.9199C29.545 26.1864 29.07 27.9561 29.0449 30.3154V30.334C28.9997 31.8746 27.7829 32.7807 26.3057 33.2744C24.8056 33.7756 22.6725 34 19.9805 34C17.3136 34 15.196 33.7751 13.7021 33.2734C12.2286 32.7785 11.0233 31.8759 10.9561 30.3486V30.334L10.9551 30.3203C10.9302 28.727 10.6951 27.3404 10.2695 26.1465C10.0238 25.549 9.53073 24.7209 8.73828 23.6445L8.7373 23.6436C7.65366 22.1672 7.00195 20.7162 7.00195 19.3262C7.00196 17.2889 7.90477 15.6672 9.63281 14.5625L9.81934 14.4473C10.7549 13.8883 11.7904 13.6094 12.9043 13.6094C13.5912 13.6094 14.2646 13.717 14.9209 13.9297L14.9873 13.9463C15.1492 13.9781 15.3637 13.9523 15.6123 13.8213C15.8882 13.6759 16.1296 13.4365 16.2734 13.1787C16.5483 12.5258 17.1567 11.9261 17.876 11.373L17.2871 11.0137C16.7183 10.6659 16.3712 10.0475 16.3711 9.38086V9.31348C16.3711 8.33171 17.1375 7.53036 18.1045 7.47168L18.1475 7.33984L18.2012 7.19336C18.4988 6.47564 19.2022 6 19.9893 6L20.1416 6.00586Z" stroke="#6D7878" stroke-width="2"/>
<defs>
<filter id="filter0_i_3151_26103" x="2.00195" y="5" width="31.9961" height="33.9997" filterUnits="userSpaceOnUse" color-interpolation-filters="sRGB">
<feFlood flood-opacity="0" result="BackgroundImageFix"/>
<feBlend mode="normal" in="SourceGraphic" in2="BackgroundImageFix" result="shape"/>
<feColorMatrix in="SourceAlpha" type="matrix" values="0 0 0 0 0 0 0 0 0 0 0 0 0 0 0 0 0 0 127 0" result="hardAlpha"/>
<feOffset dx="-4" dy="4"/>
<feGaussianBlur stdDeviation="2"/>
<feComposite in2="hardAlpha" operator="arithmetic" k2="-1" k3="1"/>
<feColorMatrix type="matrix" values="0 0 0 0 0 0 0 0 0 0 0 0 0 0 0 0 0 0 0.25 0"/>
<feBlend mode="normal" in2="shape" result="effect1_innerShadow_3151_26103"/>
</filter>
</defs>
</svg>
