<svg width="118" height="48" viewBox="0 0 118 48" fill="none" xmlns="http://www.w3.org/2000/svg">
<path d="M12.5283 20.4834L9.52832 42.4834H35.5283V17.4834V5.48342L31.0283 3.4834V6.48342H27.0283V1.98342C23.8283 0.383418 20.0283 1.31675 18.5283 1.98342V6.48342H15.0283V2.98342L10.5283 5.48342V17.4834L12.5283 20.4834Z" fill="#4A7C59"/>
<path d="M11.5283 17.4834L13.0283 19.4834L14.0283 20.4834V4.98343L11.5283 6.48343V17.4834Z" stroke="#3D563B" stroke-width="3"/>
<path d="M14.0283 16.4834L11.0283 41.4834H17.5283L18.0283 13.4834C15.6704 13.4834 14.7301 15.5167 14.0283 16.4834Z" fill="#3D563B" stroke="#3D563B" stroke-width="3"/>
<path d="M0.972656 42.4834H3.83288" stroke="#E9CB6B" stroke-linecap="round"/>
<path d="M6.52539 42.4834H40.5116" stroke="#E9CB6B" stroke-linecap="round"/>
<path d="M43.2031 42.4834H46.0633" stroke="#E9CB6B" stroke-linecap="round"/>
<line x1="30.0752" y1="12.6866" x2="30.0752" y2="42.2165" stroke="#E9CB6B"/>
<path d="M9.80566 41.7718L13.1706 14.4656C14.0119 13.7541 16.4515 12.1886 19.48 11.6194" stroke="#E9CB6B" stroke-linecap="round"/>
<path d="M36.3047 41.7718L32.9397 14.4656C32.0985 13.7541 29.6589 12.1886 26.6304 11.6194" stroke="#E9CB6B" stroke-linecap="round"/>
<path d="M21.3311 11.2637C21.948 11.0858 23.5183 10.8368 24.8643 11.2637" stroke="#E9CB6B" stroke-linecap="round"/>
<path d="M12.2454 20.7808L10.3105 17.5787V5.12641L15.358 2.63594V5.92692H18.3024V1.74649C19.9288 1.18317 24.0733 0.394524 27.6401 1.74649V5.92692H30.6686V2.63594L35.8843 5.12641V17.5787L33.7812 20.7808M10.8153 11.7973C14.7972 8.92139 25.251 4.89514 35.2113 11.7973" stroke="#E9CB6B" stroke-linecap="round"/>
<path d="M20.9103 41.7718V35.9014C20.8822 35.3974 21.129 34.3004 22.3404 33.9446C23.8546 33.4999 25.0323 34.5673 25.1165 35.9014C25.1838 36.9688 25.1445 40.2597 25.1165 41.7718" stroke="#E9CB6B" stroke-linecap="round"/>
<rect x="27.0273" y="9.4834" width="90" height="38" rx="5" fill="#4A7C59"/>
<path d="M45.041 28.4834H35.8809C35.6465 28.4834 35.3926 28.4574 35.1191 28.4053C34.8522 28.3467 34.5853 28.2588 34.3184 28.1416C34.0579 28.0244 33.8073 27.8747 33.5664 27.6924C33.3255 27.5036 33.1107 27.279 32.9219 27.0186C32.7396 26.7516 32.5931 26.4456 32.4824 26.1006C32.3717 25.749 32.3164 25.3551 32.3164 24.9189V18.0439C32.3164 17.8096 32.3424 17.5589 32.3945 17.292C32.4531 17.0186 32.541 16.7516 32.6582 16.4912C32.7754 16.2243 32.9284 15.9704 33.1172 15.7295C33.306 15.4886 33.5306 15.277 33.791 15.0947C34.0579 14.9059 34.3639 14.7562 34.709 14.6455C35.054 14.5348 35.4447 14.4795 35.8809 14.4795H45.041V17.0186H35.8809C35.5488 17.0186 35.2949 17.1064 35.1191 17.2822C34.9434 17.458 34.8555 17.7184 34.8555 18.0635V24.9189C34.8555 25.2445 34.9434 25.4984 35.1191 25.6807C35.3014 25.8564 35.5553 25.9443 35.8809 25.9443H45.041V28.4834ZM64.9047 28.4834H53.3227C53.1404 28.4834 52.9711 28.4508 52.8148 28.3857C52.6586 28.3206 52.5219 28.2327 52.4047 28.1221C52.294 28.0049 52.2061 27.8682 52.141 27.7119C52.0759 27.5557 52.0434 27.3864 52.0434 27.2041V14.4795H54.5824V25.9443H64.9047V28.4834ZM84.3484 27.2041C84.3484 27.3864 84.3159 27.5557 84.2508 27.7119C84.1857 27.8682 84.0945 28.0049 83.9773 28.1221C83.8602 28.2327 83.7234 28.3206 83.5672 28.3857C83.4109 28.4508 83.2449 28.4834 83.0691 28.4834H77.3465C76.8061 28.4834 76.2592 28.4248 75.7059 28.3076C75.1525 28.1904 74.6154 28.0114 74.0945 27.7705C73.5802 27.5231 73.0952 27.2106 72.6395 26.833C72.1837 26.4554 71.7833 26.0094 71.4383 25.4951C71.0997 24.9743 70.8328 24.3818 70.6375 23.7178C70.4422 23.0472 70.3445 22.3018 70.3445 21.4814V14.4795H72.8836V21.4814C72.8836 22.1976 72.9813 22.8031 73.1766 23.2979C73.3784 23.7926 73.6323 24.2061 73.9383 24.5381C74.2443 24.8701 74.5796 25.1305 74.9441 25.3193C75.3087 25.5081 75.6538 25.6481 75.9793 25.7393C76.3113 25.8304 76.601 25.889 76.8484 25.915C77.1023 25.9346 77.2684 25.9443 77.3465 25.9443H81.8094V14.4795H84.3484V27.2041ZM105.882 25.4072C105.882 25.7197 105.827 26.055 105.716 26.4131C105.612 26.7712 105.436 27.1032 105.189 27.4092C104.948 27.7152 104.632 27.9723 104.241 28.1807C103.851 28.3825 103.372 28.4834 102.806 28.4834H93.1672C92.9849 28.4834 92.8156 28.4508 92.6594 28.3857C92.5031 28.3206 92.3664 28.2327 92.2492 28.1221C92.1385 28.0049 92.0507 27.8682 91.9855 27.7119C91.9204 27.5557 91.8879 27.3864 91.8879 27.2041V15.7588C91.8879 15.583 91.9204 15.417 91.9855 15.2607C92.0507 15.1045 92.1385 14.9678 92.2492 14.8506C92.3664 14.7334 92.5031 14.6423 92.6594 14.5771C92.8156 14.512 92.9849 14.4795 93.1672 14.4795H101.663C101.976 14.4795 102.311 14.5348 102.669 14.6455C103.027 14.7562 103.359 14.9352 103.665 15.1826C103.978 15.4235 104.235 15.7393 104.437 16.1299C104.645 16.5205 104.749 16.999 104.749 17.5654V18.0439C104.749 18.4932 104.674 18.9782 104.525 19.499C104.375 20.0133 104.134 20.5016 103.802 20.9639C104.088 21.1396 104.355 21.3512 104.603 21.5986C104.857 21.846 105.078 22.1325 105.267 22.458C105.456 22.7835 105.605 23.1514 105.716 23.5615C105.827 23.9717 105.882 24.4242 105.882 24.9189V25.4072ZM103.343 24.9189C103.343 24.5869 103.291 24.2907 103.187 24.0303C103.083 23.7633 102.936 23.5355 102.747 23.3467C102.558 23.1579 102.331 23.0146 102.064 22.917C101.797 22.8128 101.497 22.7607 101.165 22.7607H95.4426V20.2021H100.023C100.355 20.2021 100.654 20.1533 100.921 20.0557C101.188 19.9515 101.416 19.805 101.605 19.6162C101.793 19.4274 101.937 19.2028 102.034 18.9424C102.139 18.6755 102.191 18.376 102.191 18.0439V17.5654C102.191 17.2008 102.015 17.0186 101.663 17.0186H94.427V25.9443H102.806C102.851 25.9443 102.907 25.9411 102.972 25.9346C103.037 25.9281 103.096 25.9085 103.148 25.876C103.2 25.8434 103.245 25.7881 103.284 25.71C103.323 25.6318 103.343 25.5244 103.343 25.3877V24.9189ZM42.5801 42.4834H40.917V37.0625L37.9907 42.2104C37.9188 42.3416 37.8172 42.4411 37.686 42.5088C37.5591 42.5765 37.4215 42.6104 37.2734 42.6104C37.1296 42.6104 36.9941 42.5765 36.8672 42.5088C36.7445 42.4411 36.6471 42.3416 36.5752 42.2104L33.6362 37.0625V42.4834H31.9858V34.0854C31.9858 33.895 32.0409 33.7257 32.1509 33.5776C32.2651 33.4295 32.4132 33.3301 32.5952 33.2793C32.6841 33.2581 32.7729 33.2518 32.8618 33.2603C32.9507 33.2645 33.0353 33.2835 33.1157 33.3174C33.2004 33.347 33.2765 33.3914 33.3442 33.4507C33.4119 33.5057 33.4691 33.5734 33.5156 33.6538L37.2734 40.1855L41.0312 33.6538C41.1286 33.493 41.2619 33.3787 41.4312 33.311C41.6047 33.2433 41.7845 33.2327 41.9707 33.2793C42.1484 33.3301 42.2944 33.4295 42.4087 33.5776C42.5229 33.7257 42.5801 33.895 42.5801 34.0854V42.4834ZM55.7746 42.4834H54.1242V40.249H48.3224V42.4834H46.672V37.9321C46.672 37.2677 46.7863 36.6562 47.0148 36.0977C47.2433 35.5391 47.5607 35.0588 47.967 34.6567C48.3732 34.2547 48.8535 33.9416 49.4079 33.7173C49.9622 33.493 50.5674 33.3809 51.2233 33.3809H54.943C55.0573 33.3809 55.1652 33.402 55.2668 33.4443C55.3683 33.4867 55.4572 33.5459 55.5334 33.6221C55.6095 33.6982 55.6688 33.7871 55.7111 33.8887C55.7534 33.9902 55.7746 34.0981 55.7746 34.2124V42.4834ZM48.3224 38.5986H54.1242V35.0312H51.2233C51.1725 35.0312 51.0646 35.0397 50.8996 35.0566C50.7388 35.0693 50.5504 35.1053 50.3346 35.1646C50.123 35.2238 49.8988 35.3148 49.6618 35.4375C49.4248 35.5602 49.2069 35.7295 49.008 35.9453C48.8091 36.1611 48.644 36.432 48.5129 36.7578C48.3859 37.0794 48.3224 37.4709 48.3224 37.9321V38.5986ZM68.785 39.8047C68.785 40.1305 68.7427 40.4246 68.658 40.687C68.5776 40.9451 68.4697 41.1737 68.3343 41.3726C68.1989 41.5715 68.0402 41.7407 67.8582 41.8804C67.6763 42.02 67.4879 42.1343 67.2933 42.2231C67.0986 42.312 66.8997 42.3776 66.6966 42.4199C66.4977 42.4622 66.3094 42.4834 66.1317 42.4834H59.765V40.833H66.1317C66.449 40.833 66.6945 40.7399 66.868 40.5537C67.0457 40.3675 67.1346 40.1178 67.1346 39.8047C67.1346 39.6523 67.1113 39.5127 67.0648 39.3857C67.0182 39.2588 66.9505 39.1488 66.8616 39.0557C66.777 38.9626 66.6712 38.8906 66.5443 38.8398C66.4215 38.7891 66.284 38.7637 66.1317 38.7637H62.3358C62.0692 38.7637 61.7814 38.7171 61.4725 38.624C61.1636 38.5267 60.8758 38.3722 60.6092 38.1606C60.3468 37.9491 60.1268 37.6719 59.949 37.3291C59.7755 36.9863 59.6888 36.5674 59.6888 36.0723C59.6888 35.5771 59.7755 35.1603 59.949 34.8218C60.1268 34.479 60.3468 34.2018 60.6092 33.9902C60.8758 33.7744 61.1636 33.62 61.4725 33.5269C61.7814 33.4295 62.0692 33.3809 62.3358 33.3809H67.9534V35.0312H62.3358C62.0226 35.0312 61.7772 35.1265 61.5994 35.3169C61.4259 35.5073 61.3392 35.7591 61.3392 36.0723C61.3392 36.3896 61.4259 36.6414 61.5994 36.8276C61.7772 37.0096 62.0226 37.1006 62.3358 37.1006H66.1317H66.1444C66.3221 37.1048 66.5104 37.1302 66.7093 37.1768C66.9082 37.2191 67.105 37.2868 67.2996 37.3799C67.4985 37.473 67.6868 37.5915 67.8646 37.7354C68.0423 37.875 68.1989 38.0443 68.3343 38.2432C68.4739 38.4421 68.584 38.6706 68.6644 38.9287C68.7448 39.1868 68.785 39.4788 68.785 39.8047ZM80.6211 35.0312H76.9839V42.4834H75.3335V35.0312H71.6899V33.3809H80.6211V35.0312ZM91.6637 38.7637H86.4523V37.1006H91.6637V38.7637ZM92.4064 42.4834H86.4523C86.2238 42.4834 85.9741 42.4432 85.7033 42.3628C85.4324 42.2824 85.1806 42.1512 84.9479 41.9692C84.7194 41.783 84.5268 41.5439 84.3703 41.252C84.2179 40.9557 84.1417 40.5939 84.1417 40.1665V34.2124C84.1417 34.0981 84.1629 33.9902 84.2052 33.8887C84.2475 33.7871 84.3047 33.6982 84.3766 33.6221C84.4528 33.5459 84.5416 33.4867 84.6432 33.4443C84.7448 33.402 84.8548 33.3809 84.9733 33.3809H92.4064V35.0312H85.7921V40.1665C85.7921 40.3823 85.8493 40.5474 85.9635 40.6616C86.0778 40.7759 86.2449 40.833 86.465 40.833H92.4064V42.4834ZM105.442 36.4404C105.442 36.8171 105.396 37.1535 105.303 37.4497C105.209 37.7459 105.082 38.0083 104.922 38.2368C104.765 38.4611 104.583 38.6536 104.376 38.8145C104.168 38.9753 103.95 39.1086 103.722 39.2144C103.498 39.3159 103.269 39.39 103.036 39.4365C102.808 39.4831 102.592 39.5063 102.389 39.5063L105.836 42.4834H103.284L99.8436 39.5063H98.6565V37.856H102.389C102.596 37.839 102.785 37.7967 102.954 37.729C103.127 37.6571 103.276 37.5618 103.398 37.4434C103.525 37.3249 103.623 37.1831 103.69 37.0181C103.758 36.8488 103.792 36.6562 103.792 36.4404V35.3994C103.792 35.3063 103.779 35.2365 103.754 35.1899C103.733 35.1392 103.703 35.1032 103.665 35.082C103.631 35.0566 103.593 35.0418 103.551 35.0376C103.512 35.0334 103.477 35.0312 103.443 35.0312H97.9964V42.4834H96.346V34.2124C96.346 34.0981 96.3672 33.9902 96.4095 33.8887C96.4518 33.7871 96.5089 33.6982 96.5809 33.6221C96.657 33.5459 96.7459 33.4867 96.8475 33.4443C96.949 33.402 97.059 33.3809 97.1775 33.3809H103.443C103.811 33.3809 104.122 33.4486 104.376 33.584C104.63 33.7152 104.835 33.8823 104.992 34.0854C105.152 34.2843 105.267 34.5002 105.334 34.7329C105.406 34.9657 105.442 35.1836 105.442 35.3867V36.4404Z" fill="#E9CB6B"/>
</svg>
