<svg width="118" height="48" viewBox="0 0 118 48" fill="none" xmlns="http://www.w3.org/2000/svg">
<path d="M12.5557 20.4834L9.55566 42.4834H35.5557V17.4834V5.48342L31.0557 3.4834V6.48342H27.0557V1.98342C23.8557 0.383418 20.0557 1.31675 18.5557 1.98342V6.48342H15.0557V2.98342L10.5557 5.48342V17.4834L12.5557 20.4834Z" fill="#4A7C59"/>
<path d="M11.5557 17.4834L13.0557 19.4834L14.0557 20.4834V4.98343L11.5557 6.48343V17.4834Z" stroke="#3D563B" stroke-width="3"/>
<path d="M14.0557 16.4834L11.0557 41.4834H17.5557L18.0557 13.4834C15.6978 13.4834 14.7574 15.5167 14.0557 16.4834Z" fill="#3D563B" stroke="#3D563B" stroke-width="3"/>
<path d="M1 42.4834H3.86023" stroke="#E9CB6B" stroke-linecap="round"/>
<path d="M6.55273 42.4834H40.5389" stroke="#E9CB6B" stroke-linecap="round"/>
<path d="M43.2305 42.4834H46.0907" stroke="#E9CB6B" stroke-linecap="round"/>
<line x1="30.1025" y1="12.6866" x2="30.1025" y2="42.2165" stroke="#E9CB6B"/>
<path d="M9.83301 41.7718L13.198 14.4656C14.0392 13.7541 16.4788 12.1886 19.5073 11.6194" stroke="#E9CB6B" stroke-linecap="round"/>
<path d="M36.332 41.7718L32.9671 14.4656C32.1258 13.7541 29.6862 12.1886 26.6577 11.6194" stroke="#E9CB6B" stroke-linecap="round"/>
<path d="M21.3584 11.2637C21.9753 11.0858 23.5456 10.8368 24.8916 11.2637" stroke="#E9CB6B" stroke-linecap="round"/>
<path d="M12.2727 20.7808L10.3379 17.5787V5.12641L15.3853 2.63594V5.92692H18.3297V1.74649C19.9561 1.18317 24.1006 0.394524 27.6675 1.74649V5.92692H30.696V2.63594L35.9117 5.12641V17.5787L33.8086 20.7808M10.8426 11.7973C14.8245 8.92139 25.2784 4.89514 35.2387 11.7973" stroke="#E9CB6B" stroke-linecap="round"/>
<path d="M20.9376 41.7718V35.9014C20.9096 35.3974 21.1563 34.3004 22.3677 33.9446C23.882 33.4999 25.0597 34.5673 25.1438 35.9014C25.2111 36.9688 25.1719 40.2597 25.1438 41.7718" stroke="#E9CB6B" stroke-linecap="round"/>
<rect x="27.0547" y="9.4834" width="90" height="38" rx="5" fill="#333939"/>
<path d="M45.0684 28.4834H35.9082C35.6738 28.4834 35.4199 28.4574 35.1465 28.4053C34.8796 28.3467 34.6126 28.2588 34.3457 28.1416C34.0853 28.0244 33.8346 27.8747 33.5938 27.6924C33.3529 27.5036 33.138 27.279 32.9492 27.0186C32.7669 26.7516 32.6204 26.4456 32.5098 26.1006C32.3991 25.749 32.3438 25.3551 32.3438 24.9189V18.0439C32.3438 17.8096 32.3698 17.5589 32.4219 17.292C32.4805 17.0186 32.5684 16.7516 32.6855 16.4912C32.8027 16.2243 32.9557 15.9704 33.1445 15.7295C33.3333 15.4886 33.5579 15.277 33.8184 15.0947C34.0853 14.9059 34.3913 14.7562 34.7363 14.6455C35.0814 14.5348 35.472 14.4795 35.9082 14.4795H45.0684V17.0186H35.9082C35.5762 17.0186 35.3223 17.1064 35.1465 17.2822C34.9707 17.458 34.8828 17.7184 34.8828 18.0635V24.9189C34.8828 25.2445 34.9707 25.4984 35.1465 25.6807C35.3288 25.8564 35.5827 25.9443 35.9082 25.9443H45.0684V28.4834ZM64.932 28.4834H53.35C53.1677 28.4834 52.9984 28.4508 52.8422 28.3857C52.6859 28.3206 52.5492 28.2327 52.432 28.1221C52.3214 28.0049 52.2335 27.8682 52.1684 27.7119C52.1033 27.5557 52.0707 27.3864 52.0707 27.2041V14.4795H54.6098V25.9443H64.932V28.4834ZM84.3758 27.2041C84.3758 27.3864 84.3432 27.5557 84.2781 27.7119C84.213 27.8682 84.1219 28.0049 84.0047 28.1221C83.8875 28.2327 83.7508 28.3206 83.5945 28.3857C83.4383 28.4508 83.2723 28.4834 83.0965 28.4834H77.3738C76.8335 28.4834 76.2866 28.4248 75.7332 28.3076C75.1798 28.1904 74.6427 28.0114 74.1219 27.7705C73.6076 27.5231 73.1225 27.2106 72.6668 26.833C72.2111 26.4554 71.8107 26.0094 71.4656 25.4951C71.1271 24.9743 70.8602 24.3818 70.6648 23.7178C70.4695 23.0472 70.3719 22.3018 70.3719 21.4814V14.4795H72.9109V21.4814C72.9109 22.1976 73.0086 22.8031 73.2039 23.2979C73.4057 23.7926 73.6596 24.2061 73.9656 24.5381C74.2716 24.8701 74.6069 25.1305 74.9715 25.3193C75.3361 25.5081 75.6811 25.6481 76.0066 25.7393C76.3387 25.8304 76.6284 25.889 76.8758 25.915C77.1297 25.9346 77.2957 25.9443 77.3738 25.9443H81.8367V14.4795H84.3758V27.2041ZM105.909 25.4072C105.909 25.7197 105.854 26.055 105.743 26.4131C105.639 26.7712 105.463 27.1032 105.216 27.4092C104.975 27.7152 104.659 27.9723 104.269 28.1807C103.878 28.3825 103.4 28.4834 102.833 28.4834H93.1945C93.0122 28.4834 92.843 28.4508 92.6867 28.3857C92.5305 28.3206 92.3937 28.2327 92.2766 28.1221C92.1659 28.0049 92.078 27.8682 92.0129 27.7119C91.9478 27.5557 91.9152 27.3864 91.9152 27.2041V15.7588C91.9152 15.583 91.9478 15.417 92.0129 15.2607C92.078 15.1045 92.1659 14.9678 92.2766 14.8506C92.3937 14.7334 92.5305 14.6423 92.6867 14.5771C92.843 14.512 93.0122 14.4795 93.1945 14.4795H101.691C102.003 14.4795 102.338 14.5348 102.696 14.6455C103.055 14.7562 103.387 14.9352 103.693 15.1826C104.005 15.4235 104.262 15.7393 104.464 16.1299C104.672 16.5205 104.777 16.999 104.777 17.5654V18.0439C104.777 18.4932 104.702 18.9782 104.552 19.499C104.402 20.0133 104.161 20.5016 103.829 20.9639C104.116 21.1396 104.383 21.3512 104.63 21.5986C104.884 21.846 105.105 22.1325 105.294 22.458C105.483 22.7835 105.633 23.1514 105.743 23.5615C105.854 23.9717 105.909 24.4242 105.909 24.9189V25.4072ZM103.37 24.9189C103.37 24.5869 103.318 24.2907 103.214 24.0303C103.11 23.7633 102.963 23.5355 102.775 23.3467C102.586 23.1579 102.358 23.0146 102.091 22.917C101.824 22.8128 101.525 22.7607 101.193 22.7607H95.4699V20.2021H100.05C100.382 20.2021 100.682 20.1533 100.948 20.0557C101.215 19.9515 101.443 19.805 101.632 19.6162C101.821 19.4274 101.964 19.2028 102.062 18.9424C102.166 18.6755 102.218 18.376 102.218 18.0439V17.5654C102.218 17.2008 102.042 17.0186 101.691 17.0186H94.4543V25.9443H102.833C102.879 25.9443 102.934 25.9411 102.999 25.9346C103.064 25.9281 103.123 25.9085 103.175 25.876C103.227 25.8434 103.273 25.7881 103.312 25.71C103.351 25.6318 103.37 25.5244 103.37 25.3877V24.9189ZM42.6074 42.4834H40.9443V37.0625L38.0181 42.2104C37.9461 42.3416 37.8446 42.4411 37.7134 42.5088C37.5864 42.5765 37.4489 42.6104 37.3008 42.6104C37.1569 42.6104 37.0215 42.5765 36.8945 42.5088C36.7718 42.4411 36.6745 42.3416 36.6025 42.2104L33.6636 37.0625V42.4834H32.0132V34.0854C32.0132 33.895 32.0682 33.7257 32.1782 33.5776C32.2925 33.4295 32.4406 33.3301 32.6226 33.2793C32.7114 33.2581 32.8003 33.2518 32.8892 33.2603C32.978 33.2645 33.0627 33.2835 33.1431 33.3174C33.2277 33.347 33.3039 33.3914 33.3716 33.4507C33.4393 33.5057 33.4964 33.5734 33.543 33.6538L37.3008 40.1855L41.0586 33.6538C41.1559 33.493 41.2892 33.3787 41.4585 33.311C41.632 33.2433 41.8118 33.2327 41.998 33.2793C42.1758 33.3301 42.3218 33.4295 42.436 33.5776C42.5503 33.7257 42.6074 33.895 42.6074 34.0854V42.4834ZM55.8019 42.4834H54.1515V40.249H48.3498V42.4834H46.6994V37.9321C46.6994 37.2677 46.8136 36.6562 47.0421 36.0977C47.2707 35.5391 47.588 35.0588 47.9943 34.6567C48.4005 34.2547 48.8809 33.9416 49.4352 33.7173C49.9896 33.493 50.5947 33.3809 51.2506 33.3809H54.9704C55.0846 33.3809 55.1925 33.402 55.2941 33.4443C55.3957 33.4867 55.4845 33.5459 55.5607 33.6221C55.6369 33.6982 55.6961 33.7871 55.7384 33.8887C55.7808 33.9902 55.8019 34.0981 55.8019 34.2124V42.4834ZM48.3498 38.5986H54.1515V35.0312H51.2506C51.1999 35.0312 51.092 35.0397 50.9269 35.0566C50.7661 35.0693 50.5778 35.1053 50.362 35.1646C50.1504 35.2238 49.9261 35.3148 49.6891 35.4375C49.4521 35.5602 49.2342 35.7295 49.0353 35.9453C48.8364 36.1611 48.6714 36.432 48.5402 36.7578C48.4132 37.0794 48.3498 37.4709 48.3498 37.9321V38.5986ZM68.8123 39.8047C68.8123 40.1305 68.77 40.4246 68.6854 40.687C68.605 40.9451 68.4971 41.1737 68.3616 41.3726C68.2262 41.5715 68.0675 41.7407 67.8856 41.8804C67.7036 42.02 67.5153 42.1343 67.3206 42.2231C67.126 42.312 66.9271 42.3776 66.7239 42.4199C66.5251 42.4622 66.3367 42.4834 66.159 42.4834H59.7923V40.833H66.159C66.4764 40.833 66.7218 40.7399 66.8953 40.5537C67.0731 40.3675 67.1619 40.1178 67.1619 39.8047C67.1619 39.6523 67.1387 39.5127 67.0921 39.3857C67.0456 39.2588 66.9779 39.1488 66.889 39.0557C66.8043 38.9626 66.6986 38.8906 66.5716 38.8398C66.4489 38.7891 66.3113 38.7637 66.159 38.7637H62.3631C62.0965 38.7637 61.8087 38.7171 61.4998 38.624C61.1909 38.5267 60.9031 38.3722 60.6365 38.1606C60.3742 37.9491 60.1541 37.6719 59.9764 37.3291C59.8029 36.9863 59.7161 36.5674 59.7161 36.0723C59.7161 35.5771 59.8029 35.1603 59.9764 34.8218C60.1541 34.479 60.3742 34.2018 60.6365 33.9902C60.9031 33.7744 61.1909 33.62 61.4998 33.5269C61.8087 33.4295 62.0965 33.3809 62.3631 33.3809H67.9808V35.0312H62.3631C62.05 35.0312 61.8045 35.1265 61.6268 35.3169C61.4533 35.5073 61.3665 35.7591 61.3665 36.0723C61.3665 36.3896 61.4533 36.6414 61.6268 36.8276C61.8045 37.0096 62.05 37.1006 62.3631 37.1006H66.159H66.1717C66.3494 37.1048 66.5377 37.1302 66.7366 37.1768C66.9355 37.2191 67.1323 37.2868 67.327 37.3799C67.5259 37.473 67.7142 37.5915 67.8919 37.7354C68.0696 37.875 68.2262 38.0443 68.3616 38.2432C68.5013 38.4421 68.6113 38.6706 68.6917 38.9287C68.7721 39.1868 68.8123 39.4788 68.8123 39.8047ZM80.6484 35.0312H77.0112V42.4834H75.3608V35.0312H71.7173V33.3809H80.6484V35.0312ZM91.6911 38.7637H86.4796V37.1006H91.6911V38.7637ZM92.4337 42.4834H86.4796C86.2511 42.4834 86.0014 42.4432 85.7306 42.3628C85.4598 42.2824 85.208 42.1512 84.9752 41.9692C84.7467 41.783 84.5542 41.5439 84.3976 41.252C84.2453 40.9557 84.1691 40.5939 84.1691 40.1665V34.2124C84.1691 34.0981 84.1902 33.9902 84.2326 33.8887C84.2749 33.7871 84.332 33.6982 84.4039 33.6221C84.4801 33.5459 84.569 33.4867 84.6705 33.4443C84.7721 33.402 84.8821 33.3809 85.0006 33.3809H92.4337V35.0312H85.8195V40.1665C85.8195 40.3823 85.8766 40.5474 85.9909 40.6616C86.1051 40.7759 86.2723 40.833 86.4923 40.833H92.4337V42.4834ZM105.47 36.4404C105.47 36.8171 105.423 37.1535 105.33 37.4497C105.237 37.7459 105.11 38.0083 104.949 38.2368C104.792 38.4611 104.61 38.6536 104.403 38.8145C104.196 38.9753 103.978 39.1086 103.749 39.2144C103.525 39.3159 103.297 39.39 103.064 39.4365C102.835 39.4831 102.619 39.5063 102.416 39.5063L105.863 42.4834H103.311L99.8709 39.5063H98.6839V37.856H102.416C102.624 37.839 102.812 37.7967 102.981 37.729C103.155 37.6571 103.303 37.5618 103.426 37.4434C103.553 37.3249 103.65 37.1831 103.718 37.0181C103.785 36.8488 103.819 36.6562 103.819 36.4404V35.3994C103.819 35.3063 103.806 35.2365 103.781 35.1899C103.76 35.1392 103.73 35.1032 103.692 35.082C103.658 35.0566 103.62 35.0418 103.578 35.0376C103.54 35.0334 103.504 35.0312 103.47 35.0312H98.0237V42.4834H96.3733V34.2124C96.3733 34.0981 96.3945 33.9902 96.4368 33.8887C96.4791 33.7871 96.5363 33.6982 96.6082 33.6221C96.6844 33.5459 96.7732 33.4867 96.8748 33.4443C96.9764 33.402 97.0864 33.3809 97.2049 33.3809H103.47C103.838 33.3809 104.149 33.4486 104.403 33.584C104.657 33.7152 104.862 33.8823 105.019 34.0854C105.18 34.2843 105.294 34.5002 105.362 34.7329C105.434 34.9657 105.47 35.1836 105.47 35.3867V36.4404Z" fill="#E9CB6B"/>
</svg>
