<svg width="118" height="48" viewBox="0 0 118 48" fill="none" xmlns="http://www.w3.org/2000/svg">
<path d="M12.5557 20.485L9.55566 42.485H35.5557V17.485V5.48501L31.0557 3.48499V6.48501H27.0557V1.98501C23.8557 0.385005 20.0557 1.31834 18.5557 1.98501V6.48501H15.0557V2.98501L10.5557 5.48501V17.485L12.5557 20.485Z" fill="#4A7C59"/>
<path d="M11.5557 17.4844L13.0557 19.4844L14.0557 20.4844V4.98438L11.5557 6.48438V17.4844Z" stroke="#3D563B" stroke-width="3"/>
<path d="M14.0557 16.4844L11.0557 41.4844H17.5557L18.0557 13.4844C15.6978 13.4844 14.7574 15.5177 14.0557 16.4844Z" fill="#3D563B" stroke="#3D563B" stroke-width="3"/>
<path d="M1 42.4844H3.86023" stroke="#E9CB6B" stroke-linecap="round"/>
<path d="M6.55273 42.4844H40.5389" stroke="#E9CB6B" stroke-linecap="round"/>
<path d="M43.2305 42.4844H46.0907" stroke="#E9CB6B" stroke-linecap="round"/>
<line x1="30.1025" y1="12.6875" x2="30.1025" y2="42.2173" stroke="#E9CB6B"/>
<path d="M9.83301 41.7735L13.198 14.4673C14.0392 13.7558 16.4788 12.1903 19.5073 11.6211" stroke="#E9CB6B" stroke-linecap="round"/>
<path d="M36.332 41.7735L32.9671 14.4673C32.1258 13.7558 29.6862 12.1903 26.6577 11.6211" stroke="#E9CB6B" stroke-linecap="round"/>
<path d="M21.3584 11.2631C21.9753 11.0852 23.5456 10.8361 24.8916 11.2631" stroke="#E9CB6B" stroke-linecap="round"/>
<path d="M12.2727 20.7808L10.3379 17.5787V5.12641L15.3853 2.63594V5.92692H18.3297V1.74649C19.9561 1.18317 24.1006 0.394524 27.6675 1.74649V5.92692H30.696V2.63594L35.9117 5.12641V17.5787L33.8086 20.7808M10.8426 11.7973C14.8245 8.92139 25.2784 4.89514 35.2387 11.7973" stroke="#E9CB6B" stroke-linecap="round"/>
<path d="M20.9376 41.7734V35.903C20.9096 35.399 21.1563 34.302 22.3677 33.9462C23.882 33.5015 25.0597 34.5688 25.1438 35.903C25.2111 36.9704 25.1719 40.2613 25.1438 41.7734" stroke="#E9CB6B" stroke-linecap="round"/>
<rect x="27.0547" y="9.48438" width="90" height="38" rx="5" fill="#333939"/>
<path d="M45.0684 28.4844H35.9082C35.6738 28.4844 35.4199 28.4583 35.1465 28.4062C34.8796 28.3477 34.6126 28.2598 34.3457 28.1426C34.0853 28.0254 33.8346 27.8757 33.5938 27.6934C33.3529 27.5046 33.138 27.2799 32.9492 27.0195C32.7669 26.7526 32.6204 26.4466 32.5098 26.1016C32.3991 25.75 32.3438 25.3561 32.3438 24.9199V18.0449C32.3438 17.8105 32.3698 17.5599 32.4219 17.293C32.4805 17.0195 32.5684 16.7526 32.6855 16.4922C32.8027 16.2253 32.9557 15.9714 33.1445 15.7305C33.3333 15.4896 33.5579 15.278 33.8184 15.0957C34.0853 14.9069 34.3913 14.7572 34.7363 14.6465C35.0814 14.5358 35.472 14.4805 35.9082 14.4805H45.0684V17.0195H35.9082C35.5762 17.0195 35.3223 17.1074 35.1465 17.2832C34.9707 17.459 34.8828 17.7194 34.8828 18.0645V24.9199C34.8828 25.2454 34.9707 25.4993 35.1465 25.6816C35.3288 25.8574 35.5827 25.9453 35.9082 25.9453H45.0684V28.4844ZM64.932 28.4844H53.35C53.1677 28.4844 52.9984 28.4518 52.8422 28.3867C52.6859 28.3216 52.5492 28.2337 52.432 28.123C52.3214 28.0059 52.2335 27.8691 52.1684 27.7129C52.1033 27.5566 52.0707 27.3874 52.0707 27.2051V14.4805H54.6098V25.9453H64.932V28.4844ZM84.3758 27.2051C84.3758 27.3874 84.3432 27.5566 84.2781 27.7129C84.213 27.8691 84.1219 28.0059 84.0047 28.123C83.8875 28.2337 83.7508 28.3216 83.5945 28.3867C83.4383 28.4518 83.2723 28.4844 83.0965 28.4844H77.3738C76.8335 28.4844 76.2866 28.4258 75.7332 28.3086C75.1798 28.1914 74.6427 28.0124 74.1219 27.7715C73.6076 27.5241 73.1225 27.2116 72.6668 26.834C72.2111 26.4564 71.8107 26.0104 71.4656 25.4961C71.1271 24.9753 70.8602 24.3828 70.6648 23.7188C70.4695 23.0482 70.3719 22.3027 70.3719 21.4824V14.4805H72.9109V21.4824C72.9109 22.1986 73.0086 22.804 73.2039 23.2988C73.4057 23.7936 73.6596 24.207 73.9656 24.5391C74.2716 24.8711 74.6069 25.1315 74.9715 25.3203C75.3361 25.5091 75.6811 25.6491 76.0066 25.7402C76.3387 25.8314 76.6284 25.89 76.8758 25.916C77.1297 25.9355 77.2957 25.9453 77.3738 25.9453H81.8367V14.4805H84.3758V27.2051ZM105.909 25.4082C105.909 25.7207 105.854 26.056 105.743 26.4141C105.639 26.7721 105.463 27.1042 105.216 27.4102C104.975 27.7161 104.659 27.9733 104.269 28.1816C103.878 28.3835 103.4 28.4844 102.833 28.4844H93.1945C93.0122 28.4844 92.843 28.4518 92.6867 28.3867C92.5305 28.3216 92.3937 28.2337 92.2766 28.123C92.1659 28.0059 92.078 27.8691 92.0129 27.7129C91.9478 27.5566 91.9152 27.3874 91.9152 27.2051V15.7598C91.9152 15.584 91.9478 15.418 92.0129 15.2617C92.078 15.1055 92.1659 14.9688 92.2766 14.8516C92.3937 14.7344 92.5305 14.6432 92.6867 14.5781C92.843 14.513 93.0122 14.4805 93.1945 14.4805H101.691C102.003 14.4805 102.338 14.5358 102.696 14.6465C103.055 14.7572 103.387 14.9362 103.693 15.1836C104.005 15.4245 104.262 15.7402 104.464 16.1309C104.672 16.5215 104.777 17 104.777 17.5664V18.0449C104.777 18.4941 104.702 18.9792 104.552 19.5C104.402 20.0143 104.161 20.5026 103.829 20.9648C104.116 21.1406 104.383 21.3522 104.63 21.5996C104.884 21.847 105.105 22.1335 105.294 22.459C105.483 22.7845 105.633 23.1523 105.743 23.5625C105.854 23.9727 105.909 24.4251 105.909 24.9199V25.4082ZM103.37 24.9199C103.37 24.5879 103.318 24.2917 103.214 24.0312C103.11 23.7643 102.963 23.5365 102.775 23.3477C102.586 23.1589 102.358 23.0156 102.091 22.918C101.824 22.8138 101.525 22.7617 101.193 22.7617H95.4699V20.2031H100.05C100.382 20.2031 100.682 20.1543 100.948 20.0566C101.215 19.9525 101.443 19.806 101.632 19.6172C101.821 19.4284 101.964 19.2038 102.062 18.9434C102.166 18.6764 102.218 18.377 102.218 18.0449V17.5664C102.218 17.2018 102.042 17.0195 101.691 17.0195H94.4543V25.9453H102.833C102.879 25.9453 102.934 25.9421 102.999 25.9355C103.064 25.929 103.123 25.9095 103.175 25.877C103.227 25.8444 103.273 25.7891 103.312 25.7109C103.351 25.6328 103.37 25.5254 103.37 25.3887V24.9199ZM42.6074 42.4844H40.9443V37.0635L38.0181 42.2114C37.9461 42.3426 37.8446 42.4421 37.7134 42.5098C37.5864 42.5775 37.4489 42.6113 37.3008 42.6113C37.1569 42.6113 37.0215 42.5775 36.8945 42.5098C36.7718 42.4421 36.6745 42.3426 36.6025 42.2114L33.6636 37.0635V42.4844H32.0132V34.0864C32.0132 33.896 32.0682 33.7267 32.1782 33.5786C32.2925 33.4305 32.4406 33.3311 32.6226 33.2803C32.7114 33.2591 32.8003 33.2528 32.8892 33.2612C32.978 33.2655 33.0627 33.2845 33.1431 33.3184C33.2277 33.348 33.3039 33.3924 33.3716 33.4517C33.4393 33.5067 33.4964 33.5744 33.543 33.6548L37.3008 40.1865L41.0586 33.6548C41.1559 33.494 41.2892 33.3797 41.4585 33.312C41.632 33.2443 41.8118 33.2337 41.998 33.2803C42.1758 33.3311 42.3218 33.4305 42.436 33.5786C42.5503 33.7267 42.6074 33.896 42.6074 34.0864V42.4844ZM55.8019 42.4844H54.1515V40.25H48.3498V42.4844H46.6994V37.9331C46.6994 37.2687 46.8136 36.6572 47.0421 36.0986C47.2707 35.54 47.588 35.0597 47.9943 34.6577C48.4005 34.2557 48.8809 33.9425 49.4352 33.7183C49.9896 33.494 50.5947 33.3818 51.2506 33.3818H54.9704C55.0846 33.3818 55.1925 33.403 55.2941 33.4453C55.3957 33.4876 55.4845 33.5469 55.5607 33.623C55.6369 33.6992 55.6961 33.7881 55.7384 33.8896C55.7808 33.9912 55.8019 34.0991 55.8019 34.2134V42.4844ZM48.3498 38.5996H54.1515V35.0322H51.2506C51.1999 35.0322 51.092 35.0407 50.9269 35.0576C50.7661 35.0703 50.5778 35.1063 50.362 35.1655C50.1504 35.2248 49.9261 35.3158 49.6891 35.4385C49.4521 35.5612 49.2342 35.7305 49.0353 35.9463C48.8364 36.1621 48.6714 36.4329 48.5402 36.7588C48.4132 37.0804 48.3498 37.4718 48.3498 37.9331V38.5996ZM68.8123 39.8057C68.8123 40.1315 68.77 40.4256 68.6854 40.688C68.605 40.9461 68.4971 41.1746 68.3616 41.3735C68.2262 41.5724 68.0675 41.7417 67.8856 41.8813C67.7036 42.021 67.5153 42.1353 67.3206 42.2241C67.126 42.313 66.9271 42.3786 66.7239 42.4209C66.5251 42.4632 66.3367 42.4844 66.159 42.4844H59.7923V40.834H66.159C66.4764 40.834 66.7218 40.7409 66.8953 40.5547C67.0731 40.3685 67.1619 40.1188 67.1619 39.8057C67.1619 39.6533 67.1387 39.5137 67.0921 39.3867C67.0456 39.2598 66.9779 39.1497 66.889 39.0566C66.8043 38.9635 66.6986 38.8916 66.5716 38.8408C66.4489 38.79 66.3113 38.7646 66.159 38.7646H62.3631C62.0965 38.7646 61.8087 38.7181 61.4998 38.625C61.1909 38.5277 60.9031 38.3732 60.6365 38.1616C60.3742 37.95 60.1541 37.6729 59.9764 37.3301C59.8029 36.9873 59.7161 36.5684 59.7161 36.0732C59.7161 35.5781 59.8029 35.1613 59.9764 34.8228C60.1541 34.48 60.3742 34.2028 60.6365 33.9912C60.9031 33.7754 61.1909 33.6209 61.4998 33.5278C61.8087 33.4305 62.0965 33.3818 62.3631 33.3818H67.9808V35.0322H62.3631C62.05 35.0322 61.8045 35.1274 61.6268 35.3179C61.4533 35.5083 61.3665 35.7601 61.3665 36.0732C61.3665 36.3906 61.4533 36.6424 61.6268 36.8286C61.8045 37.0106 62.05 37.1016 62.3631 37.1016H66.159H66.1717C66.3494 37.1058 66.5377 37.1312 66.7366 37.1777C66.9355 37.2201 67.1323 37.2878 67.327 37.3809C67.5259 37.474 67.7142 37.5924 67.8919 37.7363C68.0696 37.876 68.2262 38.0452 68.3616 38.2441C68.5013 38.443 68.6113 38.6715 68.6917 38.9297C68.7721 39.1878 68.8123 39.4798 68.8123 39.8057ZM80.6484 35.0322H77.0112V42.4844H75.3608V35.0322H71.7173V33.3818H80.6484V35.0322ZM91.6911 38.7646H86.4796V37.1016H91.6911V38.7646ZM92.4337 42.4844H86.4796C86.2511 42.4844 86.0014 42.4442 85.7306 42.3638C85.4598 42.2834 85.208 42.1522 84.9752 41.9702C84.7467 41.784 84.5542 41.5449 84.3976 41.2529C84.2453 40.9567 84.1691 40.5949 84.1691 40.1675V34.2134C84.1691 34.0991 84.1902 33.9912 84.2326 33.8896C84.2749 33.7881 84.332 33.6992 84.4039 33.623C84.4801 33.5469 84.569 33.4876 84.6705 33.4453C84.7721 33.403 84.8821 33.3818 85.0006 33.3818H92.4337V35.0322H85.8195V40.1675C85.8195 40.3833 85.8766 40.5483 85.9909 40.6626C86.1051 40.7769 86.2723 40.834 86.4923 40.834H92.4337V42.4844ZM105.47 36.4414C105.47 36.818 105.423 37.1545 105.33 37.4507C105.237 37.7469 105.11 38.0093 104.949 38.2378C104.792 38.4621 104.61 38.6546 104.403 38.8154C104.196 38.9762 103.978 39.1095 103.749 39.2153C103.525 39.3169 103.297 39.391 103.064 39.4375C102.835 39.484 102.619 39.5073 102.416 39.5073L105.863 42.4844H103.311L99.8709 39.5073H98.6839V37.8569H102.416C102.624 37.84 102.812 37.7977 102.981 37.73C103.155 37.658 103.303 37.5628 103.426 37.4443C103.553 37.3258 103.65 37.1841 103.718 37.019C103.785 36.8498 103.819 36.6572 103.819 36.4414V35.4004C103.819 35.3073 103.806 35.2375 103.781 35.1909C103.76 35.1401 103.73 35.1042 103.692 35.083C103.658 35.0576 103.62 35.0428 103.578 35.0386C103.54 35.0343 103.504 35.0322 103.47 35.0322H98.0237V42.4844H96.3733V34.2134C96.3733 34.0991 96.3945 33.9912 96.4368 33.8896C96.4791 33.7881 96.5363 33.6992 96.6082 33.623C96.6844 33.5469 96.7732 33.4876 96.8748 33.4453C96.9764 33.403 97.0864 33.3818 97.2049 33.3818H103.47C103.838 33.3818 104.149 33.4495 104.403 33.585C104.657 33.7161 104.862 33.8833 105.019 34.0864C105.18 34.2853 105.294 34.5011 105.362 34.7339C105.434 34.9666 105.47 35.1846 105.47 35.3877V36.4414Z" fill="#E9CB6B"/>
</svg>
