<svg width="40" height="40" viewBox="0 0 40 40" fill="none" xmlns="http://www.w3.org/2000/svg">
<path d="M10 1.5H30C34.6944 1.5 38.5 5.30558 38.5 10V30C38.5 34.6944 34.6944 38.5 30 38.5H10C5.30558 38.5 1.5 34.6944 1.5 30V10C1.5 5.30558 5.30558 1.5 10 1.5Z" fill="#FAF3DD" stroke="#4A7C59" stroke-width="3"/>
<path d="M38 30C38 34.4183 34.4183 38 30 38H20V1.99998H30C34.4183 1.99998 38 5.5817 38 9.99998V30Z" fill="#222626"/>
<mask id="path-3-inside-1_3151_26112" fill="white">
<path d="M21.4219 24.0459H17.4375C17.4479 23.1084 17.5208 22.3011 17.6562 21.624C17.8021 20.9365 18.0469 20.3167 18.3906 19.7646C18.7448 19.2125 19.2135 18.6657 19.7969 18.124C20.2865 17.6865 20.7135 17.2698 21.0781 16.874C21.4427 16.4782 21.7292 16.0719 21.9375 15.6553C22.1458 15.2282 22.25 14.7542 22.25 14.2334C22.25 13.6292 22.1562 13.1292 21.9688 12.7334C21.7917 12.3271 21.5208 12.0198 21.1562 11.8115C20.8021 11.6032 20.3542 11.499 19.8125 11.499C19.3646 11.499 18.9479 11.598 18.5625 11.7959C18.1771 11.9834 17.8594 12.275 17.6094 12.6709C17.3698 13.0667 17.2448 13.5875 17.2344 14.2334H12.7031C12.7344 12.8063 13.0625 11.6292 13.6875 10.7021C14.3229 9.76463 15.1719 9.07192 16.2344 8.624C17.2969 8.16567 18.4896 7.9365 19.8125 7.9365C21.2708 7.9365 22.5208 8.17608 23.5625 8.65525C24.6042 9.124 25.401 9.81671 25.9531 10.7334C26.5052 11.6396 26.7812 12.7438 26.7812 14.0459C26.7812 14.9521 26.6042 15.7594 26.25 16.4678C25.8958 17.1657 25.4323 17.8167 24.8594 18.4209C24.2865 19.025 23.6562 19.65 22.9688 20.2959C22.375 20.8271 21.9688 21.3844 21.75 21.9678C21.5417 22.5511 21.4323 23.2438 21.4219 24.0459ZM16.9688 28.874C16.9688 28.2073 17.1979 27.6553 17.6562 27.2178C18.1146 26.7698 18.7292 26.5459 19.5 26.5459C20.2604 26.5459 20.8698 26.7698 21.3281 27.2178C21.7969 27.6553 22.0312 28.2073 22.0312 28.874C22.0312 29.5198 21.7969 30.0667 21.3281 30.5146C20.8698 30.9625 20.2604 31.1865 19.5 31.1865C18.7292 31.1865 18.1146 30.9625 17.6562 30.5146C17.1979 30.0667 16.9688 29.5198 16.9688 28.874Z"/>
</mask>
<path d="M21.4219 24.0459H17.4375C17.4479 23.1084 17.5208 22.3011 17.6562 21.624C17.8021 20.9365 18.0469 20.3167 18.3906 19.7646C18.7448 19.2125 19.2135 18.6657 19.7969 18.124C20.2865 17.6865 20.7135 17.2698 21.0781 16.874C21.4427 16.4782 21.7292 16.0719 21.9375 15.6553C22.1458 15.2282 22.25 14.7542 22.25 14.2334C22.25 13.6292 22.1562 13.1292 21.9688 12.7334C21.7917 12.3271 21.5208 12.0198 21.1562 11.8115C20.8021 11.6032 20.3542 11.499 19.8125 11.499C19.3646 11.499 18.9479 11.598 18.5625 11.7959C18.1771 11.9834 17.8594 12.275 17.6094 12.6709C17.3698 13.0667 17.2448 13.5875 17.2344 14.2334H12.7031C12.7344 12.8063 13.0625 11.6292 13.6875 10.7021C14.3229 9.76463 15.1719 9.07192 16.2344 8.624C17.2969 8.16567 18.4896 7.9365 19.8125 7.9365C21.2708 7.9365 22.5208 8.17608 23.5625 8.65525C24.6042 9.124 25.401 9.81671 25.9531 10.7334C26.5052 11.6396 26.7812 12.7438 26.7812 14.0459C26.7812 14.9521 26.6042 15.7594 26.25 16.4678C25.8958 17.1657 25.4323 17.8167 24.8594 18.4209C24.2865 19.025 23.6562 19.65 22.9688 20.2959C22.375 20.8271 21.9688 21.3844 21.75 21.9678C21.5417 22.5511 21.4323 23.2438 21.4219 24.0459ZM16.9688 28.874C16.9688 28.2073 17.1979 27.6553 17.6562 27.2178C18.1146 26.7698 18.7292 26.5459 19.5 26.5459C20.2604 26.5459 20.8698 26.7698 21.3281 27.2178C21.7969 27.6553 22.0312 28.2073 22.0312 28.874C22.0312 29.5198 21.7969 30.0667 21.3281 30.5146C20.8698 30.9625 20.2604 31.1865 19.5 31.1865C18.7292 31.1865 18.1146 30.9625 17.6562 30.5146C17.1979 30.0667 16.9688 29.5198 16.9688 28.874Z" fill="white"/>
<path d="M21.4219 24.0459V25.0459H22.409L22.4218 24.0589L21.4219 24.0459ZM17.4375 24.0459L16.4376 24.0348L16.4263 25.0459H17.4375V24.0459ZM17.6562 21.624L16.6779 21.4165L16.6757 21.4279L17.6562 21.624ZM18.3906 19.7646L17.5489 19.2246L17.5417 19.2361L18.3906 19.7646ZM19.7969 18.124L19.1305 17.3783L19.1234 17.3847L19.1164 17.3912L19.7969 18.124ZM21.9375 15.6553L22.832 16.1025L22.8363 16.0937L21.9375 15.6553ZM21.9688 12.7334L21.0521 13.133L21.0583 13.1473L21.065 13.1615L21.9688 12.7334ZM21.1562 11.8115L20.6492 12.6735L20.6601 12.6797L21.1562 11.8115ZM18.5625 11.7959L19 12.6951L19.0097 12.6904L19.0193 12.6854L18.5625 11.7959ZM17.6094 12.6709L16.7639 12.1369L16.7588 12.1449L16.7539 12.1531L17.6094 12.6709ZM17.2344 14.2334V15.2334H18.2184L18.2342 14.2495L17.2344 14.2334ZM12.7031 14.2334L11.7034 14.2115L11.681 15.2334H12.7031V14.2334ZM13.6875 10.7021L12.8597 10.1411L12.8583 10.1431L13.6875 10.7021ZM16.2344 8.624L16.6228 9.5455L16.6305 9.54221L16.2344 8.624ZM23.5625 8.65525L23.1446 9.56377L23.1521 9.56717L23.5625 8.65525ZM25.9531 10.7334L25.0965 11.2493L25.0991 11.2536L25.9531 10.7334ZM26.25 16.4678L27.1418 16.9203L27.1444 16.915L26.25 16.4678ZM22.9688 20.2959L23.6355 21.0411L23.6446 21.033L23.6534 21.0247L22.9688 20.2959ZM21.75 21.9678L20.8137 21.6166L20.8109 21.624L20.8083 21.6314L21.75 21.9678ZM17.6562 27.2178L18.3468 27.9412L18.3552 27.9329L17.6562 27.2178ZM21.3281 27.2178L20.6292 27.9329L20.6374 27.941L20.6458 27.9488L21.3281 27.2178ZM21.3281 30.5146L20.6372 29.7916L20.6292 29.7994L21.3281 30.5146ZM21.4219 23.0459H17.4375V25.0459H21.4219V23.0459ZM18.4374 24.057C18.4474 23.1612 18.517 22.4191 18.6368 21.8201L16.6757 21.4279C16.5246 22.1831 16.4484 23.0555 16.4376 24.0348L18.4374 24.057ZM18.6345 21.8315C18.7581 21.2485 18.962 20.7389 19.2395 20.2932L17.5417 19.2361C17.1318 19.8945 16.846 20.6245 16.678 21.4165L18.6345 21.8315ZM19.2323 20.3046C19.5326 19.8365 19.943 19.3529 20.4773 18.8568L19.1164 17.3912C18.4841 17.9784 17.957 18.5886 17.5489 19.2247L19.2323 20.3046ZM20.4632 18.8697C20.9719 18.4151 21.423 17.9756 21.8137 17.5515L20.3426 16.1965C20.0041 16.564 19.601 16.9579 19.1305 17.3783L20.4632 18.8697ZM21.8137 17.5515C22.2321 17.0972 22.5758 16.6148 22.8319 16.1025L21.0431 15.208C20.8826 15.5291 20.6533 15.8592 20.3426 16.1965L21.8137 17.5515ZM22.8363 16.0937C23.1174 15.5173 23.25 14.8913 23.25 14.2334H21.25C21.25 14.6171 21.1743 14.939 21.0387 15.2168L22.8363 16.0937ZM23.25 14.2334C23.25 13.534 23.1427 12.8757 22.8725 12.3053L21.065 13.1615C21.1698 13.3828 21.25 13.7244 21.25 14.2334H23.25ZM22.8854 12.3338C22.6274 11.7418 22.2147 11.2646 21.6524 10.9433L20.6601 12.6797C20.8269 12.7751 20.9559 12.9125 21.0521 13.133L22.8854 12.3338ZM21.6633 10.9496C21.114 10.6265 20.4773 10.499 19.8125 10.499V12.499C20.231 12.499 20.4902 12.5799 20.6492 12.6734L21.6633 10.9496ZM19.8125 10.499C19.2113 10.499 18.6373 10.6333 18.1057 10.9063L19.0193 12.6854C19.2585 12.5626 19.5179 12.499 19.8125 12.499V10.499ZM18.125 10.8966C17.557 11.173 17.1038 11.5988 16.7639 12.1369L18.4549 13.2049C18.615 12.9513 18.7972 12.7938 19 12.6951L18.125 10.8966ZM16.7539 12.1531C16.3933 12.7488 16.2467 13.4611 16.2345 14.2172L18.2342 14.2495C18.2429 13.714 18.3463 13.3846 18.4649 13.1887L16.7539 12.1531ZM17.2344 13.2334H12.7031V15.2334H17.2344V13.2334ZM13.7029 14.2553C13.7311 12.9673 14.0249 11.9906 14.5167 11.2611L12.8583 10.1431C12.1001 11.2678 11.7377 12.6453 11.7034 14.2115L13.7029 14.2553ZM14.5153 11.2632C15.0401 10.4888 15.7351 9.9197 16.6228 9.54547L15.8459 7.70254C14.6086 8.22414 13.6057 9.04043 12.8597 10.1411L14.5153 11.2632ZM16.6305 9.54221C17.5512 9.14503 18.6064 8.9365 19.8125 8.9365V6.9365C18.3728 6.9365 17.0425 7.18631 15.8383 7.70579L16.6305 9.54221ZM19.8125 8.9365C21.1645 8.9365 22.2645 9.15892 23.1446 9.56374L23.9804 7.74676C22.7771 7.19325 21.3772 6.9365 19.8125 6.9365V8.9365ZM23.1521 9.56717C24.0214 9.95835 24.6566 10.519 25.0965 11.2493L26.8098 10.2174C26.1454 9.11444 25.1869 8.28965 23.9729 7.74333L23.1521 9.56717ZM25.0991 11.2536C25.5362 11.9711 25.7812 12.8857 25.7812 14.0459H27.7812C27.7812 12.6019 27.4743 11.3082 26.8071 10.2131L25.0991 11.2536ZM25.7812 14.0459C25.7812 14.8194 25.6309 15.4699 25.3556 16.0205L27.1444 16.915C27.5774 16.049 27.7812 15.0849 27.7812 14.0459H25.7812ZM25.3583 16.0152C25.0505 16.6217 24.6445 17.1942 24.1338 17.7328L25.585 19.109C26.2201 18.4392 26.7412 17.7097 27.1417 16.9203L25.3583 16.0152ZM24.1338 17.7328C23.5757 18.3213 22.9593 18.9327 22.2841 19.567L23.6534 21.0247C24.3532 20.3674 24.9972 19.7288 25.585 19.109L24.1338 17.7328ZM22.302 19.5506C21.6205 20.1604 21.1027 20.8458 20.8137 21.6166L22.6863 22.3189C22.8348 21.923 23.1295 21.4939 23.6355 21.0411L22.302 19.5506ZM20.8083 21.6314C20.5537 22.3441 20.4334 23.1513 20.422 24.0329L22.4218 24.0589C22.4312 23.3362 22.5296 22.7581 22.6917 22.3041L20.8083 21.6314ZM17.9688 28.874C17.9688 28.4646 18.0973 28.1792 18.3467 27.9411L16.9658 26.4944C16.2985 27.1313 15.9688 27.95 15.9688 28.874H17.9688ZM18.3552 27.9329C18.5899 27.7036 18.9339 27.5459 19.5 27.5459V25.5459C18.5244 25.5459 17.6393 25.8361 16.9573 26.5026L18.3552 27.9329ZM19.5 27.5459C20.0513 27.5459 20.3919 27.7011 20.6292 27.9329L22.0271 26.5026C21.3476 25.8386 20.4695 25.5459 19.5 25.5459V27.5459ZM20.6458 27.9488C20.903 28.1889 21.0312 28.4721 21.0312 28.874H23.0312C23.0312 27.9426 22.6907 27.1216 22.0104 26.4867L20.6458 27.9488ZM21.0312 28.874C21.0312 29.2455 20.9094 29.5316 20.6373 29.7916L22.019 31.2376C22.6843 30.6019 23.0312 29.7941 23.0312 28.874H21.0312ZM20.6292 29.7994C20.3919 30.0313 20.0513 30.1865 19.5 30.1865V32.1865C20.4695 32.1865 21.3476 31.8938 22.0271 31.2298L20.6292 29.7994ZM19.5 30.1865C18.9339 30.1865 18.5899 30.0288 18.3552 29.7994L16.9573 31.2298C17.6393 31.8963 18.5244 32.1865 19.5 32.1865V30.1865ZM18.3552 29.7994C18.0911 29.5413 17.9688 29.253 17.9688 28.874H15.9688C15.9688 29.7867 16.3048 30.5921 16.9573 31.2298L18.3552 29.7994Z" fill="#596464" mask="url(#path-3-inside-1_3151_26112)"/>
</svg>
