<svg width="40" height="40" viewBox="0 0 40 40" fill="none" xmlns="http://www.w3.org/2000/svg">
<path d="M0 10C0 4.47715 4.47715 0 10 0H30C35.5228 0 40 4.47715 40 10V30C40 35.5228 35.5228 40 30 40H10C4.47715 40 0 35.5228 0 30V10Z" fill="#FAF3DD"/>
<path d="M20.1416 6.00754C20.8485 6.06322 21.4693 6.50291 21.7568 7.15109L21.8135 7.29367L21.877 7.47531C22.83 7.53839 23.584 8.32958 23.584 9.29855V9.38449C23.584 10.0005 23.2876 10.5765 22.793 10.9353L22.6914 11.0046L22.0957 11.3806C22.6716 11.8441 23.1462 12.3023 23.4697 12.7624L23.5654 12.9099C23.7722 13.2559 23.869 13.613 23.9307 13.8689L24.0518 14.3728C25.0096 13.8729 26.0115 13.6091 27.0527 13.6091L27.4346 13.6189C29.1987 13.7077 30.6665 14.4186 31.751 15.7517L31.9775 16.0476L31.9873 16.0612C32.6617 17.0272 32.9999 18.1271 33 19.3288L32.9922 19.5905C32.9169 20.8992 32.2827 22.2673 31.2705 23.6726L31.2715 23.6736L30.3799 24.9138C29.548 26.1802 29.0729 27.9541 29.0479 30.3152V30.3337C29.0026 31.8745 27.785 32.7805 26.3076 33.2741C24.9945 33.7129 23.1966 33.9392 20.9639 33.989L19.9805 33.9997C17.3137 33.9997 15.1958 33.7759 13.7012 33.2741C12.2272 32.7793 11.0204 31.8762 10.9531 30.3484L10.9521 30.3337V30.32C10.9273 28.7236 10.696 27.3363 10.2705 26.1433C10.0251 25.5477 9.5288 24.7219 8.73535 23.6443L8.73438 23.6433C7.6508 22.167 7 20.719 7 19.3288L7.01074 18.9519C7.1162 17.0899 8.01066 15.5983 9.63477 14.5622C10.6149 13.9298 11.7108 13.6091 12.8994 13.6091L13.1572 13.614C13.7562 13.6375 14.3448 13.7437 14.9199 13.9304L14.9854 13.947C15.1464 13.9788 15.3597 13.9526 15.6074 13.822C15.8823 13.677 16.1229 13.4381 16.2666 13.1804C16.5431 12.525 17.1616 11.9255 17.8789 11.3757L17.2803 11.0085C16.7139 10.6612 16.3682 10.044 16.3682 9.37961V9.31808C16.3682 8.33495 17.1359 7.53235 18.1045 7.47433L18.1504 7.33664L18.2041 7.19016C18.5026 6.47508 19.2043 6.00168 19.9893 6.00168L20.1416 6.00754Z" fill="#FAF3DD" stroke="#1F2323" stroke-width="2"/>
<path d="M12.6877 16.0001C11.2905 16.0635 10.3378 16.6026 9.82914 17.6102C9.65787 17.9494 9.58883 18.3284 9.53474 18.7046L9.47518 19.1189C9.467 19.1758 9.46289 19.2332 9.46289 19.2907C9.46289 20.3475 10.2429 21.8086 11.7978 23.6843C12.2195 24.1599 12.5701 24.533 12.86 24.7972C13.2817 25.1406 13.9806 25.3152 14.9557 25.3152C15.71 25.3152 16.8074 25.2083 18.2442 24.9948C19.3693 24.8276 20.5135 24.8262 21.6387 24.9925C23.0946 25.2076 24.1984 25.3152 24.9556 25.3152C25.9571 25.3152 26.6559 25.1407 27.0513 24.7972C28.1582 23.8196 29.0789 22.6287 29.8168 21.2284C30.2385 20.4358 30.458 19.7926 30.458 19.2905C30.458 17.626 29.7019 16.5762 28.1996 16.1534C27.8043 16.0477 27.3845 15.9999 26.9365 15.9999C25.7241 15.9999 24.4886 16.5953 23.2236 17.7843C21.7477 19.1054 21.0035 20.8702 21.0035 23.0894C21.0035 23.565 20.6767 23.8089 20.0178 23.8089C19.5796 23.8089 19.2676 23.7176 19.0896 23.5499C19.0506 23.5119 19.0104 23.462 18.9843 23.4156C18.9695 23.388 18.9564 23.3501 18.9461 23.3197C18.9243 23.252 18.9078 23.1712 18.9078 23.0894C18.9078 20.8964 18.1851 19.1102 16.7355 17.7361C15.4441 16.5735 14.1967 15.9997 12.9844 15.9997C12.8863 15.9997 12.7817 15.9958 12.6877 16.0001Z" fill="#FAF3DD"/>
<path d="M12.8632 16.9884C12.9161 16.9858 12.9723 16.9884 13.0258 16.9884C14.1328 16.9884 15.1822 17.4906 16.1836 18.4946C17.3168 19.6571 17.9108 21.2449 17.9635 23.2529C17.9898 23.8342 17.384 24.1618 16.1453 24.2411H15.552C15.5323 24.2411 15.5126 24.241 15.4929 24.2409C14.4568 24.2357 13.4217 23.9308 12.6686 23.2192C12.2196 22.795 11.7705 22.262 11.3224 21.6221C10.6899 20.6973 10.375 19.925 10.375 19.2909C10.375 18.1812 10.9236 17.459 12.0305 17.1419C12.2973 17.0528 12.5775 17.0024 12.8632 16.9884Z" fill="#FAF3DD"/>
<path d="M26.688 16.9886C26.7455 16.9856 26.8026 16.9886 26.8602 16.9886C28.0287 16.9886 28.8249 17.3591 29.2554 18.0981C29.3883 18.3262 29.4502 18.5866 29.5007 18.8457C29.5584 19.1419 29.5996 19.4451 29.5452 19.742C29.3702 20.6956 28.6539 21.7847 27.4057 23.0133L26.4812 23.8015C26.415 23.858 26.3445 23.9091 26.2702 23.9545C26.0848 24.0679 25.8792 24.1456 25.6635 24.1712C25.2591 24.2191 24.8359 24.2413 24.4009 24.2413C22.7669 24.2413 21.9512 23.9137 21.9512 23.2532C22.0039 21.2187 22.6097 19.631 23.7693 18.4948C24.716 17.5457 25.6942 17.0405 26.688 16.9886Z" fill="#FAF3DD"/>
<path d="M19.9221 28.3176C18.908 28.32 18.0054 28.3656 17.2139 28.4423L16.257 28.5191C15.0006 28.6824 14.299 28.9134 14.1518 29.2002C14.1408 29.2232 14.1365 29.2533 14.1326 29.277C14.1312 29.2876 14.123 29.3046 14.123 29.3153C14.123 29.7117 14.4832 29.9101 15.1948 29.9101L19.1369 29.5782C19.6976 29.531 20.2613 29.5311 20.822 29.5787L24.7259 29.9101C25.4638 29.9101 25.8263 29.7236 25.8263 29.3537C25.8263 29.3457 25.8269 29.3329 25.8263 29.3249C25.8252 29.3117 25.8194 29.2899 25.8168 29.277C25.8144 29.2667 25.8105 29.2487 25.8072 29.2386C25.8045 29.231 25.8008 29.2173 25.7976 29.2098L25.7785 29.1714L25.7594 29.1427L25.7402 29.1139C25.3165 28.5879 23.4077 28.3176 20.0178 28.3176H19.9221Z" fill="#FAF3DD"/>
<path d="M21.0072 23.091C21.0072 23.5666 20.6778 23.8044 20.0189 23.8044C19.2809 23.8044 18.912 23.5666 18.912 23.091C18.912 20.898 18.1872 19.1145 16.7377 17.7407C15.4462 16.5782 14.1944 15.9969 12.9822 15.9969C11.4226 15.9969 10.3719 16.5372 9.83036 17.6177C9.66333 17.9509 9.59468 18.3223 9.54019 18.6911L9.47552 19.1287C9.4678 19.1809 9.46393 19.2336 9.46393 19.2864C9.46393 20.3432 10.2414 21.8097 11.7964 23.6856C12.2181 24.1612 12.5739 24.5311 12.8638 24.7953C13.2854 25.1388 13.9838 25.3105 14.959 25.3105C15.7132 25.3105 16.8079 25.2038 18.2432 24.9905C19.3683 24.8232 20.5124 24.8218 21.6377 24.9878C23.0959 25.203 24.2036 25.3105 24.961 25.3105C25.9625 25.3105 26.6609 25.1388 27.0562 24.7953C28.1632 23.8177 29.0856 22.6287 29.8235 21.2284C30.2452 20.4357 30.4561 19.7884 30.4561 19.2864C30.4561 17.6218 29.7049 16.5782 28.2027 16.1554C27.8074 16.0497 27.3857 15.9968 26.9376 15.9968C25.7253 15.9968 24.4866 16.5913 23.2217 17.7803C21.7458 19.1014 21.0072 20.8717 21.0072 23.091ZM29.5043 18.8531C29.559 19.1411 29.598 19.4356 29.5469 19.7243C29.3777 20.6816 28.6661 21.7774 27.4123 23.0114L26.4879 23.7955C26.419 23.854 26.3455 23.9067 26.2681 23.9533C26.0838 24.0641 25.8801 24.1402 25.6666 24.1662C25.2634 24.2154 24.8437 24.24 24.4078 24.24C22.7737 24.24 21.9567 23.9098 21.9567 23.2492C22.0094 21.2148 22.6156 19.6295 23.7752 18.4933C24.7767 17.4893 25.8046 16.9873 26.8589 16.9873C28.0228 16.9873 28.8211 17.3538 29.2538 18.0869C29.3914 18.3199 29.4539 18.5873 29.5043 18.8531ZM25.8312 29.3525C25.8312 28.6656 23.8941 28.3221 20.0197 28.3221C18.9655 28.3221 18.0299 28.3617 17.2129 28.441L16.2641 28.5202C14.8409 28.7052 14.1294 28.9694 14.1294 29.3129C14.1294 29.7092 14.4851 29.9074 15.1967 29.9074L19.151 29.5797C19.7028 29.534 20.2575 29.5342 20.8093 29.5803L24.7241 29.9074C25.462 29.9074 25.8312 29.7224 25.8312 29.3525ZM28.0449 30.3037C27.9922 32.1004 25.3039 32.9987 19.9803 32.9987C14.7094 32.9987 12.0342 32.1004 11.9552 30.3037C11.9289 28.6127 11.6785 27.1067 11.2041 25.7857C10.9142 25.0723 10.3607 24.1608 9.54373 23.051C8.51587 21.6507 8.00195 20.4089 8.00195 19.3257C8.00195 17.6347 8.72671 16.3269 10.1763 15.4021C10.9933 14.8737 11.9025 14.6094 12.904 14.6094C13.4855 14.6094 14.0551 14.6998 14.6128 14.8805C15.5827 15.1948 16.6975 14.5201 17.1736 13.6186C17.3356 13.1779 17.8225 12.6557 18.6345 12.052C18.8557 11.8876 18.9921 11.6311 18.9921 11.3555C18.9921 11.0626 18.8397 10.7908 18.5898 10.638L17.8086 10.1605C17.5369 9.99442 17.3713 9.69895 17.3713 9.38053V9.31309C17.3713 8.84546 17.7503 8.46637 18.218 8.46637C18.5852 8.46637 18.9106 8.22967 19.0236 7.88028L19.0989 7.64757C19.2238 7.26152 19.5833 6.99998 19.989 6.99998C20.3864 6.99998 20.7405 7.25106 20.8719 7.62611L20.9711 7.9091C21.0881 8.2429 21.4032 8.46637 21.7569 8.46637C22.2168 8.46637 22.5896 8.83917 22.5896 9.29905V9.38479C22.5896 9.70108 22.4268 9.99511 22.1588 10.1631L21.4124 10.6308C21.161 10.7883 21.0083 11.0641 21.0083 11.3608C21.0083 11.6342 21.1393 11.8899 21.3543 12.0588C21.9554 12.5311 22.3895 12.9572 22.6566 13.337C22.8165 13.5645 22.8991 13.8339 22.9642 14.1042L23.1319 14.8008C23.1393 14.8317 23.1435 14.8517 23.146 14.8834C23.1871 15.3898 23.7862 15.6734 24.2251 15.4173C25.1478 14.8787 26.0917 14.6094 27.0569 14.6094C28.8227 14.6094 30.1932 15.2832 31.1682 16.6307C31.7216 17.4233 31.9984 18.3217 31.9984 19.3257C31.9984 20.409 31.4844 21.664 30.4566 23.0906L29.5473 24.3589C28.5722 25.8385 28.0712 27.8201 28.0449 30.3037ZM10.3738 19.2858C10.3738 18.1761 10.9273 17.4627 12.0342 17.1457C12.3505 17.04 12.6799 16.9872 13.0225 16.9872C14.1294 16.9872 15.1837 17.4892 16.1852 18.4932C17.3184 19.6557 17.9114 21.241 17.9641 23.2491C17.9905 23.8304 17.3843 24.1606 16.1456 24.2399H15.5526C15.5316 24.2399 15.5106 24.2398 15.4896 24.2397C14.4536 24.2335 13.4184 23.9264 12.6647 23.2154C12.2174 22.7933 11.77 22.2629 11.3226 21.6241C10.6901 20.6994 10.3738 19.92 10.3738 19.2858Z" fill="#4C5454"/>
</svg>
