<svg width="30" height="22" viewBox="0 0 30 22" fill="none" xmlns="http://www.w3.org/2000/svg">
<path d="M28.8065 13.2314C28.8065 13.2314 28.5002 12.7463 27.7755 12.4229C27.7755 12.4229 27.7152 12.4015 27.6215 12.3664C26.9754 12.0138 26.3629 11.7878 26.3629 11.7878C26.2323 11.7332 26.1185 11.6787 26.0114 11.6261C25.5745 11.3728 25.2582 11.0826 25.2582 11.0826C25.2582 11.0826 25.2548 11.0787 24.9184 10.6871C25.5226 9.95847 25.9662 8.96881 26.1051 8.02201C26.2122 7.89343 26.321 7.68692 26.3679 7.35769C26.4549 6.99143 26.5637 6.35049 26.3712 6.05242C26.3595 6.03684 26.3495 6.0232 26.3377 6.00956C26.5185 5.2381 26.7495 3.64451 25.9294 2.55744C25.8557 2.44834 25.3971 1.80935 24.413 1.47037L23.9443 1.2814C23.1694 1.00281 22.6823 0.942419 22.6622 0.938523C22.6271 0.934626 22.5903 0.938523 22.5568 0.948263C22.53 0.958004 22.438 0.985278 22.3677 0.973589C22.1819 0.942419 21.904 1.05346 21.8538 1.07684C21.7902 1.10606 20.2906 1.80545 19.837 3.43021C19.7952 3.56074 19.6127 4.25233 19.8537 5.94722C19.8186 5.9745 19.7868 6.00956 19.7567 6.05242C19.5625 6.35049 19.6713 6.98754 19.76 7.35574C19.8052 7.68108 19.914 7.88564 20.0194 8.01616C20.1399 8.95127 20.5249 9.85132 21.032 10.541C21.032 10.541 21.417 11.3163 21.4655 11.3884C22.6857 13.4924 22.8397 17.5485 22.8547 18.0043L22.8564 18.0336L22.8547 18.0647C22.8346 19.483 22.2288 19.9759 21.9041 20.1395C21.7467 20.2213 21.5827 20.2934 21.417 20.3675C21.499 20.2272 21.5793 19.9837 21.5844 19.5531C21.5844 19.5531 21.4655 13.5937 20.4328 11.8151C20.4328 11.8151 20.1383 11.3475 19.4403 11.0377C19.4403 11.0377 19.3834 11.0163 19.2914 10.9832C18.6721 10.6442 18.0829 10.428 18.0829 10.428C17.9574 10.3754 17.8453 10.3247 17.7448 10.2721C17.3264 10.0286 17.0201 9.75002 17.0201 9.75002C17.0201 9.75002 17.0168 9.74612 16.6937 9.36818C17.2745 8.66684 17.7013 7.71615 17.8335 6.80831C17.939 6.68557 18.0428 6.48491 18.088 6.16931C18.17 5.8167 18.2754 5.20108 18.0896 4.9147C18.0796 4.90106 18.0695 4.88743 18.0595 4.87379C18.2336 4.13155 18.4545 2.6003 17.6662 1.55414C17.5942 1.45089 17.1523 0.83527 16.2084 0.509929L15.7565 0.330699C15.0133 0.0638018 14.5447 0.00340925 14.5246 0.0014611C14.4911 -0.0024352 14.456 0.00146118 14.4225 0.0131501C14.3957 0.0209427 14.3087 0.0482169 14.2401 0.0384761C14.0626 0.00730566 13.7948 0.114454 13.748 0.135884C13.6877 0.163158 12.2467 0.83527 11.8098 2.39769C11.7696 2.52432 11.5956 3.18864 11.8265 4.8173C11.7914 4.84457 11.7613 4.87769 11.7345 4.9186C11.5487 5.20303 11.6542 5.81865 11.7362 6.17126C11.7814 6.48491 11.8851 6.68362 11.9872 6.80636C12.1027 7.70446 12.4726 8.57139 12.9613 9.23376L12.8224 9.48117L12.8191 9.46559L12.814 9.49871C12.8157 9.49286 12.8207 9.48507 12.8224 9.48117L12.8207 9.48312L12.814 9.49871C12.6182 10.2098 10.2717 11.0397 10.2717 11.0397C9.57539 11.3495 9.28081 11.817 9.28081 11.817C8.24979 13.5957 8.12929 19.5531 8.12929 19.5531C8.13431 19.9798 8.21297 20.2194 8.29164 20.3597C8.13263 20.2915 7.97028 20.2213 7.81797 20.1434C7.49327 19.9798 6.88571 19.483 6.8673 18.0667V18.0355V18.0043C6.88236 17.5485 7.03802 13.4963 8.23473 11.4274C8.30001 11.3222 8.51424 11.0105 8.90924 10.689C8.90924 10.689 8.90924 10.6871 8.90757 10.6871C9.51178 9.95847 9.95532 8.96881 10.0942 8.02201C10.2014 7.89343 10.3102 7.68692 10.3587 7.35769C10.4457 6.99143 10.5545 6.35049 10.3604 6.05242C10.3503 6.03684 10.3386 6.0232 10.3286 6.00956C10.5093 5.2381 10.7403 3.64451 9.92017 2.55744C9.85155 2.44834 9.39128 1.80935 8.40712 1.47037L7.93848 1.2814C7.16355 1.00281 6.67649 0.942419 6.65641 0.938523C6.62126 0.934626 6.58444 0.938523 6.55096 0.948263C6.52418 0.959952 6.43213 0.987226 6.36016 0.975538C6.17605 0.944367 5.89821 1.05541 5.848 1.07879C5.7844 1.10606 4.28641 1.80545 3.83116 3.43216C3.78932 3.56268 3.60855 4.25428 3.8479 5.94917C3.81275 5.97645 3.77927 6.01151 3.75082 6.05437C3.55667 6.35244 3.66713 6.98948 3.75249 7.35769C3.79768 7.68303 3.90648 7.88758 4.01192 8.01811C4.13243 8.95322 4.51739 9.85327 5.0262 10.5429L4.88226 10.8001L4.87891 10.7825L4.87222 10.8176C4.87389 10.8118 4.87891 10.804 4.88058 10.7981V10.8001L4.87222 10.8176C4.6697 11.5579 2.2294 12.4209 2.2294 12.4209C1.50468 12.7443 1.19839 13.2294 1.19839 13.2294C0.12553 15.0802 0 19.2005 0 19.2005C0.0133898 20.1395 0.363198 20.2389 0.363198 20.2389C2.8286 21.5188 6.69825 21.7448 6.69825 21.7448C6.90747 21.7526 7.09994 21.7389 7.2941 21.7253L7.29912 21.7487C7.29912 21.7487 8.75526 21.661 10.4474 21.3006C12.4877 21.8753 14.5648 21.9981 14.5648 21.9981C14.7639 22.0039 14.9514 21.9903 15.1372 21.9766L15.1422 22C15.1422 22 17.3097 21.8714 19.3901 21.2617C21.1525 21.6532 22.7024 21.7448 22.7024 21.7448C22.91 21.7526 23.1041 21.7389 23.2983 21.7253L23.3033 21.7487C23.3033 21.7487 27.1729 21.5208 29.6383 20.2428C29.6383 20.2428 29.9865 20.1434 29.9999 19.2025C30.0049 19.2044 29.8794 15.0841 28.8065 13.2314Z" fill="#8FC0A9"/>
</svg>
