<svg width="30" height="30" viewBox="0 0 30 30" fill="none" xmlns="http://www.w3.org/2000/svg">
<path d="M15 30C6.7155 30 0 23.2845 0 15C0 6.7155 6.7155 0 15 0C23.2845 0 30 6.7155 30 15C30 23.2845 23.2845 30 15 30ZM8.88 10.851V11.004C8.88 11.2029 8.95902 11.3937 9.09967 11.5343C9.24032 11.675 9.43109 11.754 9.63 11.754H11.1255C11.2238 11.754 11.3211 11.7346 11.4119 11.697C11.5028 11.6594 11.5853 11.6043 11.6548 11.5348C11.7243 11.4653 11.7794 11.3828 11.817 11.2919C11.8546 11.2011 11.874 11.1038 11.874 11.0055C11.874 9.0705 13.371 8.037 15.384 8.037C17.346 8.037 18.636 9.0705 18.636 10.542C18.636 11.934 17.913 12.5805 16.107 13.407L15.591 13.638C14.0685 14.31 13.5 15.315 13.5 17.0715V17.25C13.5 17.4489 13.579 17.6397 13.7197 17.7803C13.8603 17.921 14.0511 18 14.25 18H15.7455C15.8438 18 15.9411 17.9806 16.0319 17.943C16.1227 17.9054 16.2053 17.8503 16.2748 17.7808C16.3443 17.7113 16.3994 17.6288 16.437 17.5379C16.4746 17.4471 16.494 17.3498 16.494 17.2515C16.494 16.4775 16.701 16.167 17.319 15.8835L17.8365 15.651C20.004 14.67 21.63 13.38 21.63 10.566V10.4115C21.63 7.4445 19.05 5.25 15.384 5.25C11.667 5.25 8.88 7.392 8.88 10.851ZM12.75 22.4865C12.75 23.787 13.7385 24.75 14.9865 24.75C16.2615 24.75 17.25 23.787 17.25 22.4865C17.25 21.186 16.2615 20.25 14.9865 20.25C13.7385 20.25 12.75 21.186 12.75 22.4865Z" fill="#8FC0A9"/>
</svg>
