<svg width="28" height="29" viewBox="0 0 28 29" fill="none" xmlns="http://www.w3.org/2000/svg">
<path d="M25.1501 19.5645C25.0413 19.4416 24.9344 19.3188 24.8296 19.2003C23.3875 17.5662 22.5151 16.58 22.5151 11.9541C22.5151 9.55923 21.9035 7.59417 20.6981 6.12038C19.8093 5.03161 18.6078 4.20567 17.0242 3.59528C17.0038 3.58466 16.9856 3.57072 16.9704 3.55413C16.4008 1.76716 14.8421 0.570312 13.0841 0.570312C11.3262 0.570312 9.76811 1.76716 9.1985 3.55229C9.1833 3.56827 9.16535 3.58176 9.14541 3.59221C5.44985 5.01749 3.65385 7.75199 3.65385 11.9523C3.65385 16.58 2.78273 17.5662 1.33938 19.1985C1.2345 19.317 1.12766 19.4373 1.01885 19.5626C0.737783 19.8802 0.559705 20.2665 0.505689 20.6759C0.451673 21.0853 0.52398 21.5007 0.714055 21.8728C1.11848 22.6711 1.98043 23.1667 2.96429 23.1667H23.2112C24.1905 23.1667 25.0465 22.6717 25.4523 21.8771C25.6432 21.5049 25.7162 21.0892 25.6626 20.6793C25.609 20.2694 25.4312 19.8825 25.1501 19.5645Z" fill="#E9CB6B"/>
<path d="M13.0844 28.0824C14.0316 28.0816 14.9609 27.8408 15.7738 27.3853C16.5867 26.9298 17.2528 26.2767 17.7016 25.4952C17.7227 25.4578 17.7331 25.4158 17.7319 25.3735C17.7306 25.3311 17.7177 25.2898 17.6943 25.2535C17.671 25.2173 17.638 25.1873 17.5986 25.1665C17.5592 25.1456 17.5148 25.1347 17.4695 25.1348H8.70061C8.65533 25.1346 8.61079 25.1455 8.57131 25.1662C8.53183 25.187 8.49877 25.217 8.47534 25.2533C8.45191 25.2896 8.43891 25.3309 8.43761 25.3733C8.43631 25.4157 8.44675 25.4577 8.46792 25.4952C8.91661 26.2766 9.58265 26.9296 10.3954 27.3851C11.2082 27.8406 12.1373 28.0815 13.0844 28.0824Z" fill="#E9CB6B"/>
<ellipse cx="22.4059" cy="9.08488" rx="5.59337" ry="5.24016" fill="#F05353"/>
<path d="M22.5562 8.34082C22.8774 8.34082 23.16 8.39893 23.4038 8.51514C23.6499 8.62907 23.8413 8.79769 23.978 9.021C24.1147 9.24202 24.1831 9.51318 24.1831 9.83447C24.1831 10.1854 24.109 10.4884 23.9609 10.7437C23.8128 10.9966 23.5952 11.1914 23.3081 11.3281C23.021 11.4648 22.6712 11.5332 22.2588 11.5332C21.9967 11.5332 21.7518 11.5104 21.5239 11.4648C21.2983 11.4193 21.1035 11.3509 20.9395 11.2598V10.5352C21.1104 10.6309 21.3154 10.7095 21.5547 10.771C21.7939 10.8302 22.0229 10.8599 22.2417 10.8599C22.4741 10.8599 22.6735 10.8257 22.8398 10.7573C23.0062 10.689 23.1338 10.5841 23.2227 10.4429C23.3138 10.3016 23.3594 10.1227 23.3594 9.90625C23.3594 9.61914 23.2671 9.39811 23.0825 9.24316C22.9002 9.08594 22.6143 9.00732 22.2246 9.00732C22.0879 9.00732 21.9421 9.01986 21.7871 9.04492C21.6344 9.06771 21.5068 9.09277 21.4043 9.12012L21.0522 8.91162L21.2402 6.46777H23.8379V7.17529H21.9478L21.8384 8.41943C21.9204 8.4012 22.0184 8.38411 22.1323 8.36816C22.2463 8.34993 22.3875 8.34082 22.5562 8.34082Z" fill="white"/>
</svg>
