<svg width="30" height="30" viewBox="0 0 30 30" fill="none" xmlns="http://www.w3.org/2000/svg">
<path d="M14.952 0C11.8068 0.0146368 8.74357 1.01726 6.19817 2.86443C4.29484 4.2416 2.74207 6.04755 1.66541 8.13628C0.58874 10.225 0.0183809 12.5379 0.000436937 14.888C-0.017507 17.2381 0.517468 19.5595 1.56211 21.6644C2.60676 23.7694 4.13177 25.5988 6.01385 27.0049C6.08699 27.0772 6.16989 27.1357 6.26254 27.1806C8.80876 29.0137 11.8663 30 15.0032 30C18.1401 30 21.1977 29.0137 23.7439 27.1806C23.8401 27.1297 23.9287 27.0657 24.0072 26.9903C25.8889 25.5792 27.412 23.7444 28.453 21.6347C29.494 19.5249 30.0237 17.1995 29.9992 14.8467C29.9747 12.494 29.3967 10.1801 28.3119 8.09254C27.2272 6.00495 25.6663 4.20235 23.7556 2.83076C21.1992 0.991321 18.1301 0.00119252 14.9813 0H14.952ZM14.952 5.50345C16.1586 5.48928 17.3421 5.83432 18.3523 6.49473C19.3624 7.15514 20.1535 8.10111 20.6251 9.21242C21.0962 10.3233 21.2251 11.5497 20.9952 12.7344C20.7654 13.9191 20.1872 15.0081 19.3348 15.8619C18.483 16.717 17.3963 17.2993 16.2129 17.5348C15.0294 17.7703 13.8027 17.6482 12.6888 17.1842C11.5749 16.7202 10.624 15.9353 9.95719 14.9291C9.29036 13.9229 8.93767 12.7411 8.94399 11.5338C8.9559 9.94249 9.59149 8.4194 10.7141 7.29207C11.8385 6.16411 13.3599 5.52198 14.952 5.50345ZM21.7207 25.8779C19.6913 27.1413 17.3488 27.8109 14.9586 27.8109C12.5684 27.8109 10.2259 27.1413 8.19646 25.8779C7.56528 25.4957 6.97163 25.0546 6.42345 24.5606C7.25397 23.3771 8.32222 22.38 9.55986 21.6332C11.1939 20.6626 13.059 20.1503 14.9593 20.1503C16.8596 20.1503 18.7248 20.6626 20.3588 21.6332C21.5959 22.3802 22.6637 23.3772 23.4937 24.5606C22.9447 25.0543 22.3537 25.4934 21.7207 25.8779Z" fill="#BFBFBF"/>
</svg>
