<svg width="27" height="28" viewBox="0 0 27 28" fill="none" xmlns="http://www.w3.org/2000/svg">
<path fill-rule="evenodd" clip-rule="evenodd" d="M16.0278 0.213136C15.5015 6.25849e-08 14.8344 0 13.5 0C12.1656 0 11.4984 6.25849e-08 10.9722 0.213136C10.2705 0.497322 9.71301 1.04241 9.42236 1.72848C9.28968 2.04168 9.23775 2.4059 9.21743 2.93719C9.18758 3.71795 8.77806 4.44065 8.08602 4.8313C7.39398 5.22194 6.54911 5.20736 5.84263 4.84226C5.36188 4.59382 5.01331 4.45567 4.66956 4.41143C3.91654 4.31449 3.15499 4.51401 2.55243 4.96608C2.10051 5.30513 1.76692 5.87006 1.09975 6.9999C0.432579 8.12976 0.0990014 8.69467 0.024652 9.24687C-0.0744947 9.98312 0.129568 10.7277 0.591936 11.3169C0.802976 11.5858 1.09956 11.8118 1.55988 12.0946C2.2366 12.5104 2.67203 13.2187 2.67199 14C2.67194 14.7813 2.23653 15.4895 1.55988 15.9051C1.09949 16.1881 0.802848 16.4142 0.591794 16.6831C0.129426 17.2722 -0.0746225 18.0167 0.02451 18.753C0.0988594 19.3052 0.432451 19.8702 1.09961 21C1.76678 22.1298 2.10037 22.6948 2.55229 23.0338C3.15484 23.4858 3.9164 23.6853 4.66941 23.5885C5.01315 23.5442 5.36169 23.406 5.84241 23.1577C6.54894 22.7926 7.39387 22.778 8.08595 23.1686C8.77803 23.5593 9.18756 24.282 9.21743 25.0629C9.23775 25.5941 9.28968 25.9584 9.42236 26.2716C9.71301 26.9576 10.2705 27.5027 10.9722 27.7869C11.4984 28 12.1656 28 13.5 28C14.8344 28 15.5015 28 16.0278 27.7869C16.7295 27.5027 17.2869 26.9576 17.5775 26.2716C17.7103 25.9584 17.7623 25.5941 17.7826 25.0628C17.8124 24.282 18.2219 23.5593 18.9139 23.1686C19.606 22.7779 20.4509 22.7926 21.1575 23.1577C21.6382 23.406 21.9866 23.5441 22.3304 23.5883C23.0834 23.6853 23.845 23.4858 24.4475 23.0338C24.8995 22.6947 25.233 22.1298 25.9002 20.9999C26.5674 19.8701 26.9009 19.3052 26.9754 18.753C27.0744 18.0167 26.8704 17.2721 26.4081 16.683C26.1969 16.414 25.9004 16.1879 25.4399 15.9051C24.7634 15.4895 24.328 14.7812 24.328 13.9999C24.328 13.2185 24.7634 12.5105 25.4399 12.0949C25.9005 11.8119 26.1971 11.586 26.4082 11.3169C26.8705 10.7278 27.0746 9.98322 26.9755 9.24696C26.9011 8.69477 26.5675 8.12984 25.9004 7C25.2332 5.87016 24.8997 5.30523 24.4476 4.96618C23.8451 4.5141 23.0836 4.31459 22.3305 4.41153C21.9868 4.45577 21.6382 4.5939 21.1576 4.84232C20.4511 5.20743 19.6061 5.22203 18.914 4.83134C18.222 4.44067 17.8124 3.71792 17.7825 2.93712C17.7621 2.40587 17.7103 2.04166 17.5775 1.72848C17.2869 1.04241 16.7295 0.497322 16.0278 0.213136ZM13.5 18.2C15.8724 18.2 17.7955 16.3197 17.7955 14C17.7955 11.6803 15.8724 9.8 13.5 9.8C11.1275 9.8 9.20437 11.6803 9.20437 14C9.20437 16.3197 11.1275 18.2 13.5 18.2Z" fill="#CCCCCC"/>
</svg>
