<svg width="29" height="20" viewBox="0 0 29 20" fill="none" xmlns="http://www.w3.org/2000/svg">
<path d="M20.0478 8.52477C22.0255 8.52477 23.6287 6.81231 23.6287 4.69988C23.6287 2.58746 22.0255 0.875 20.0478 0.875C18.0701 0.875 16.4668 2.58746 16.4668 4.69988C16.4668 6.81231 18.0701 8.52477 20.0478 8.52477Z" fill="#305036"/>
<path d="M9.30363 8.52477C11.2814 8.52477 12.8846 6.81231 12.8846 4.69988C12.8846 2.58746 11.2814 0.875 9.30363 0.875C7.32591 0.875 5.72266 2.58746 5.72266 4.69988C5.72266 6.81231 7.32591 8.52477 9.30363 8.52477Z" fill="#305036"/>
<path d="M28.2239 10.4361L19.0924 12.3486H10.319L1.1875 10.4361L3.75387 5.40002C4.41038 4.18881 5.60404 3.42383 6.91706 3.42383H22.554C23.867 3.42383 25.0607 4.18881 25.7172 5.40002L28.2239 10.4361Z" fill="#4A7C59"/>
<path d="M23.0308 19.9996C26.327 19.9996 28.9991 17.1455 28.9991 13.6248C28.9991 10.1041 26.327 7.25 23.0308 7.25C19.7346 7.25 17.0625 10.1041 17.0625 13.6248C17.0625 17.1455 19.7346 19.9996 23.0308 19.9996Z" fill="#8FC0A9"/>
<path d="M6.31986 19.9996C9.61605 19.9996 12.2881 17.1455 12.2881 13.6248C12.2881 10.1041 9.61605 7.25 6.31986 7.25C3.02366 7.25 0.351562 10.1041 0.351562 13.6248C0.351562 17.1455 3.02366 19.9996 6.31986 19.9996Z" fill="#8FC0A9"/>
<path d="M14.6755 15.5369C16.3236 15.5369 17.6597 14.1099 17.6597 12.3495C17.6597 10.5892 16.3236 9.16211 14.6755 9.16211C13.0275 9.16211 11.6914 10.5892 11.6914 12.3495C11.6914 14.1099 13.0275 15.5369 14.6755 15.5369Z" fill="#8FC0A9"/>
<path d="M23.0313 18.0868C25.3387 18.0868 27.2091 16.089 27.2091 13.6245C27.2091 11.16 25.3387 9.16211 23.0313 9.16211C20.724 9.16211 18.8535 11.16 18.8535 13.6245C18.8535 16.089 20.724 18.0868 23.0313 18.0868Z" fill="#4C5454"/>
<path d="M6.32038 18.0868C8.62772 18.0868 10.4982 16.089 10.4982 13.6245C10.4982 11.16 8.62772 9.16211 6.32038 9.16211C4.01304 9.16211 2.14258 11.16 2.14258 13.6245C2.14258 16.089 4.01304 18.0868 6.32038 18.0868Z" fill="#4C5454"/>
<path d="M14.6761 13.6241C15.3353 13.6241 15.8697 13.0533 15.8697 12.3492C15.8697 11.645 15.3353 11.0742 14.6761 11.0742C14.0168 11.0742 13.4824 11.645 13.4824 12.3492C13.4824 13.0533 14.0168 13.6241 14.6761 13.6241Z" fill="#546E7A"/>
<path d="M25.2407 12.1579C24.6438 11.4567 23.868 11.0742 23.0324 11.0742C22.1968 11.0742 21.3613 11.4567 20.8241 12.1579C20.5854 12.4129 20.6451 12.7954 20.8838 13.0504C21.1225 13.3054 21.4806 13.2417 21.7194 12.9867C22.4356 12.1579 23.6889 12.1579 24.4051 12.9867C24.5245 13.1142 24.7035 13.1779 24.8229 13.1779C24.9423 13.1779 25.1213 13.1142 25.2407 12.9867C25.4794 12.7954 25.4794 12.4129 25.2407 12.1579ZM6.32118 11.0742C5.48562 11.0742 4.65006 11.4567 4.11291 12.1579C3.87418 12.4129 3.93387 12.7954 4.1726 13.0504C4.41133 13.3054 4.76943 13.2417 5.00816 12.9867C5.72435 12.1579 6.97769 12.1579 7.69389 12.9867C7.81326 13.1142 7.9923 13.1779 8.11167 13.1779C8.23104 13.1779 8.41008 13.1142 8.52945 12.9867C8.76818 12.7317 8.76818 12.3492 8.58913 12.0942C7.9923 11.4567 7.15674 11.0742 6.32118 11.0742Z" fill="#7D7C7A"/>
</svg>
