<svg width="18" height="17" viewBox="0 0 18 17" fill="none" xmlns="http://www.w3.org/2000/svg">
<path d="M0.745102 16.7444L1.90083 15.5887C2.0164 15.0108 1.62795 15.0269 1.41927 15.1071L0.26355 16.2628C0.0709295 16.8022 0.504326 16.8086 0.745102 16.7444Z" fill="#A38944"/>
<path d="M3.82612 13.6118L5.60786 11.8301C5.72343 11.3293 5.33498 11.3004 5.12631 11.3485L3.34456 13.1303C3.15194 13.7852 3.58534 13.7242 3.82612 13.6118Z" fill="#A38944"/>
<path d="M4.69419 16.9823L9.55786 12.1186C9.63491 11.5793 9.26893 11.5729 9.07631 11.6371L4.21264 16.5007C4.13559 17.0015 4.50157 17.0304 4.69419 16.9823Z" fill="#A38944"/>
<path d="M0.493019 12.7753L5.35669 7.91158C5.43374 7.37225 5.06776 7.36583 4.87514 7.43003L0.011467 12.2937C-0.0655813 12.7945 0.300398 12.8234 0.493019 12.7753Z" fill="#A38944"/>
<path d="M5.99392 4.8965C6.61993 7.6895 10.0871 10.5788 12.1096 11.0122L15.6249 7.49688C17.7438 4.91577 16.9893 1.86273 16.3473 0.65885C13.3039 -0.92064 10.2316 0.707005 9.07585 1.71826L5.99392 4.8965Z" fill="#A38944"/>
</svg>
