<svg width="18" height="18" viewBox="0 0 18 18" fill="none" xmlns="http://www.w3.org/2000/svg">
<path d="M9 3.09375C7.66498 3.09375 6.35994 3.48963 5.2499 4.23133C4.13987 4.97303 3.27471 6.02724 2.76382 7.26064C2.25292 8.49404 2.11925 9.85124 2.3797 11.1606C2.64015 12.47 3.28303 13.6727 4.22703 14.6167C5.17104 15.5607 6.37377 16.2036 7.68314 16.4641C8.99252 16.7245 10.3497 16.5908 11.5831 16.0799C12.8165 15.569 13.8707 14.7039 14.6124 13.5939C15.3541 12.4838 15.75 11.1788 15.75 9.84375C15.748 8.05417 15.0361 6.33847 13.7707 5.07304C12.5053 3.80761 10.7896 3.0958 9 3.09375ZM9 14.9063C7.99874 14.9063 7.01995 14.6093 6.18743 14.0531C5.3549 13.4968 4.70603 12.7061 4.32286 11.7811C3.93969 10.856 3.83944 9.83813 4.03478 8.85611C4.23012 7.87408 4.71227 6.97203 5.42027 6.26402C6.12828 5.55602 7.03033 5.07386 8.01236 4.87853C8.99439 4.68319 10.0123 4.78344 10.9373 5.16661C11.8624 5.54978 12.653 6.19865 13.2093 7.03118C13.7656 7.8637 14.0625 8.84248 14.0625 9.84375C14.061 11.186 13.5272 12.4728 12.5781 13.4218C11.629 14.3709 10.3422 14.9048 9 14.9063ZM11.5657 6.9968C11.6444 7.07518 11.7068 7.16833 11.7494 7.27089C11.792 7.37345 11.8139 7.4834 11.8139 7.59445C11.8139 7.7055 11.792 7.81546 11.7494 7.91802C11.7068 8.02058 11.6444 8.11372 11.5657 8.19211L9.59696 10.1609C9.43845 10.3194 9.22346 10.4084 8.9993 10.4084C8.77514 10.4084 8.56015 10.3194 8.40164 10.1609C8.24314 10.0024 8.15409 9.78737 8.15409 9.5632C8.15409 9.33904 8.24314 9.12406 8.40164 8.96555L10.3704 6.9968C10.4488 6.91814 10.5419 6.85573 10.6445 6.81314C10.747 6.77055 10.857 6.74863 10.9681 6.74863C11.0791 6.74863 11.1891 6.77055 11.2916 6.81314C11.3942 6.85573 11.4873 6.91814 11.5657 6.9968ZM6.46875 1.125C6.46875 0.901224 6.55765 0.686613 6.71588 0.528379C6.87412 0.370145 7.08873 0.28125 7.3125 0.28125H10.6875C10.9113 0.28125 11.1259 0.370145 11.2841 0.528379C11.4424 0.686613 11.5313 0.901224 11.5313 1.125C11.5313 1.34878 11.4424 1.56339 11.2841 1.72162C11.1259 1.87986 10.9113 1.96875 10.6875 1.96875H7.3125C7.08873 1.96875 6.87412 1.87986 6.71588 1.72162C6.55765 1.56339 6.46875 1.34878 6.46875 1.125Z" fill="#6C9D40"/>
</svg>
