<svg width="28" height="27" viewBox="0 0 28 27" fill="none" xmlns="http://www.w3.org/2000/svg">
<path d="M27.4923 13.5815C27.4923 6.08016 21.3379 -0.000976562 13.7461 -0.000976562C6.15441 -0.000976562 0 6.08016 0 13.5815C0 20.3609 5.02679 25.9801 11.5983 26.999V17.5077H8.10808V13.5815H11.5983V10.5891C11.5983 7.18502 13.6506 5.30469 16.7905 5.30469C18.2944 5.30469 19.8675 5.56997 19.8675 5.56997V8.91254H18.1342C16.4265 8.91254 15.894 9.95956 15.894 11.0337V13.5815H19.7064L19.0969 17.5077H15.894V26.999C22.4655 25.9801 27.4923 20.361 27.4923 13.5815Z" fill="#1877F2"/>
<path d="M18.6133 17.2141L19.2232 13.235H15.4076V10.6529C15.4076 9.56416 15.9406 8.50314 17.6497 8.50314H19.3845V5.11554C19.3845 5.11554 17.8101 4.84668 16.3048 4.84668C13.1624 4.84668 11.1084 6.75234 11.1084 10.2023V13.235H7.61523V17.2141H11.1084V26.8333C11.8195 26.9448 12.5382 27.0007 13.258 27.0005C13.9778 27.0007 14.6965 26.9448 15.4076 26.8333V17.2141H18.6133Z" fill="white"/>
</svg>
