<svg width="27" height="27" viewBox="0 0 27 27" fill="none" xmlns="http://www.w3.org/2000/svg">
<path d="M26.7374 10.5367H25.65V10.4823H13.5V15.7239H21.1295C20.0164 18.7752 17.0255 20.9656 13.5 20.9656C9.02677 20.9656 5.4 17.4452 5.4 13.1031C5.4 8.76108 9.02677 5.24066 13.5 5.24066C15.5648 5.24066 17.4433 5.99677 18.8737 7.23183L22.6921 3.52534C20.281 1.34416 17.0559 -0.000976562 13.5 -0.000976562C6.04462 -0.000976562 0 5.86638 0 13.1031C0 20.3399 6.04462 26.2072 13.5 26.2072C20.9554 26.2072 27 20.3399 27 13.1031C27 12.2245 26.9068 11.3668 26.7374 10.5367Z" fill="#FFC107"/>
<path d="M1.55664 7.00382L5.99206 10.1613C7.19221 7.27704 10.0988 5.24066 13.5001 5.24066C15.5649 5.24066 17.4434 5.99677 18.8738 7.23183L22.6922 3.52534C20.2811 1.34416 17.056 -0.000976562 13.5001 -0.000976562C8.31474 -0.000976562 3.81789 2.84065 1.55664 7.00382Z" fill="#FF3D00"/>
<path d="M26.7374 10.5378H25.65V10.4834H13.5V15.725H21.1295C20.5971 17.1772 19.638 18.4462 18.3708 19.3752L18.3728 19.3739L22.5511 22.8058C22.2554 23.0666 27 19.6563 27 13.1042C27 12.2256 26.9068 11.3679 26.7374 10.5378Z" fill="#1976D2"/>
<path d="M13.4998 26.2086C16.9869 26.2086 20.1553 24.9133 22.5509 22.8068L18.3726 19.3749C16.9719 20.4095 15.2599 20.9688 13.4998 20.967C9.98847 20.967 7.00699 18.7937 5.88379 15.7607L1.48145 19.0531C3.71569 23.2969 8.25304 26.2086 13.4998 26.2086Z" fill="#4CAF50"/>
</svg>
