<svg width="41" height="41" viewBox="0 0 41 41" fill="none" xmlns="http://www.w3.org/2000/svg">
<rect width="41" height="41" rx="3" fill="#E9CB6B"/>
<path d="M10.9896 20.5225L13.1057 21.3879C13.3091 21.4711 13.5286 21.5159 13.7512 21.5198C13.9737 21.5237 14.1949 21.4865 14.4016 21.4104L15.0672 21.1651C15.2998 21.0795 15.5085 20.9467 15.6777 20.7766C15.8468 20.6065 15.9721 20.4036 16.0443 20.1828L16.5245 18.7141C16.5682 18.5532 16.6492 18.4028 16.7621 18.2734C16.8749 18.1439 17.0168 18.0385 17.1781 17.9642L18.3302 17.4333V19.845C18.3303 20.2722 18.2011 20.6909 17.957 21.0543C17.713 21.4177 17.3637 21.7114 16.9484 21.9025L13.9682 23.2753C13.2764 23.5939 12.6946 24.0835 12.2881 24.6891C11.8816 25.2947 11.6665 25.9925 11.6667 26.7043V27.4H28.326V18.2C28.326 13.1208 23.851 9 18.3302 9H10.625C10.4592 9 10.3003 9.06058 10.1831 9.16841C10.0659 9.27625 10 9.4225 10 9.575C9.99992 9.7011 10.0318 9.82547 10.0932 9.93821L10.8333 11.3L10.3646 11.7313C10.2486 11.8383 10.1567 11.9654 10.0942 12.1052C10.0316 12.2449 9.9996 12.3947 10 12.5458V19.1205C9.99981 19.4172 10.0932 19.7076 10.2688 19.9565C10.4445 20.2053 10.6949 20.402 10.9896 20.5225ZM12.7083 13.6C12.9144 13.6 13.1158 13.6562 13.2871 13.7615C13.4584 13.8668 13.5919 14.0165 13.6707 14.1916C13.7496 14.3667 13.7702 14.5594 13.73 14.7453C13.6898 14.9312 13.5906 15.102 13.4449 15.236C13.2992 15.37 13.1136 15.4613 12.9116 15.4983C12.7095 15.5352 12.5 15.5163 12.3097 15.4437C12.1194 15.3712 11.9567 15.2484 11.8422 15.0908C11.7278 14.9332 11.6667 14.7479 11.6667 14.5583C11.6667 14.3042 11.7764 14.0604 11.9718 13.8807C12.1671 13.701 12.4321 13.6 12.7083 13.6ZM29.1667 28.9333H10.8333C10.6123 28.9333 10.4004 29.0141 10.2441 29.1579C10.0878 29.3017 10 29.4967 10 29.7V31.2333C10 31.4367 10.0878 31.6317 10.2441 31.7754C10.4004 31.9192 10.6123 32 10.8333 32H29.1667C29.3877 32 29.5996 31.9192 29.7559 31.7754C29.9122 31.6317 30 31.4367 30 31.2333V29.7C30 29.4967 29.9122 29.3017 29.7559 29.1579C29.5996 29.0141 29.3877 28.9333 29.1667 28.9333Z" fill="#333939"/>
</svg>
