<svg width="17" height="17" viewBox="0 0 17 17" fill="none" xmlns="http://www.w3.org/2000/svg">
<path d="M6.5037 0.230469C6.41188 0.230469 6.32381 0.264509 6.25888 0.325101C6.19395 0.385693 6.15748 0.467874 6.15748 0.553564V1.19975C6.15748 1.28544 6.19395 1.36763 6.25888 1.42822C6.32381 1.48881 6.41188 1.52285 6.5037 1.52285H7.02305V2.37824C3.27755 2.7805 0.358154 5.75685 0.358154 9.35791C0.358154 13.2323 3.73682 16.3852 7.88862 16.3852C12.0404 16.3852 15.4191 13.2323 15.4191 9.35791C15.4205 8.03179 15.0169 6.73275 14.2558 5.61291L14.9894 5.05864L15.3162 5.43537C15.3448 5.46836 15.3801 5.49577 15.4201 5.51604C15.46 5.53631 15.5039 5.54903 15.5491 5.55349C15.5943 5.55794 15.64 5.55404 15.6836 5.54201C15.7272 5.52997 15.7679 5.51004 15.8032 5.48335L16.3416 5.07657C16.4129 5.02261 16.4583 4.94445 16.4678 4.85927C16.4774 4.77409 16.4503 4.68885 16.3925 4.6223L14.6496 2.6133C14.621 2.5803 14.5857 2.55289 14.5458 2.53263C14.5058 2.51236 14.462 2.49964 14.4168 2.49518C14.3715 2.49072 14.3258 2.49463 14.2822 2.50666C14.2386 2.51869 14.198 2.53863 14.1626 2.56532L13.6242 2.97209C13.553 3.02605 13.5076 3.10422 13.498 3.1894C13.4885 3.27458 13.5156 3.35981 13.5733 3.42637L13.9003 3.80309L13.1698 4.35462C12.0035 3.28226 10.4651 2.56241 8.75419 2.37857V1.52285H9.27353C9.36535 1.52285 9.45342 1.48881 9.51835 1.42822C9.58328 1.36763 9.61976 1.28544 9.61976 1.19975V0.553564C9.61976 0.467874 9.58328 0.385693 9.51835 0.325101C9.45342 0.264509 9.36535 0.230469 9.27353 0.230469H6.5037ZM7.88862 3.46142C11.3855 3.46142 14.2073 6.09465 14.2073 9.35791C14.2073 12.6212 11.3855 15.2544 7.88862 15.2544C4.39171 15.2544 1.56995 12.6212 1.56995 9.35791C1.56995 6.09465 4.39171 3.46142 7.88862 3.46142ZM7.88896 4.66382L7.88862 9.35791L11.9107 12.1764C12.4717 11.4792 12.8135 10.6499 12.8979 9.78153C12.9822 8.91318 12.8057 8.04007 12.3882 7.26005C11.9706 6.48012 11.3284 5.82414 10.5337 5.36561C9.73908 4.90709 8.82327 4.66397 7.88896 4.66382Z" fill="#4A7C59"/>
</svg>
