<svg width="22" height="22" viewBox="0 0 22 22" fill="none" xmlns="http://www.w3.org/2000/svg">
<path fill-rule="evenodd" clip-rule="evenodd" d="M8.61069 2.23633C8.61069 2.23633 6.48537 2.23962 4.51549 2.24291C2.02005 2.24784 0 4.2712 0 6.76484V17.4777C0 18.6772 0.476224 19.8275 1.32504 20.6751C2.17303 21.5236 3.3237 21.9996 4.52372 21.9996H15.2186C17.7174 21.9996 19.7423 19.9754 19.7423 17.4777C19.7423 15.5004 19.7423 13.3636 19.7423 13.3636C19.7423 12.6828 19.1896 12.1303 18.5086 12.1303C17.8284 12.1303 17.2748 12.6828 17.2748 13.3636V17.4777C17.2748 18.6131 16.3545 19.5331 15.2186 19.5331H4.52372C3.97841 19.5331 3.4553 19.3169 3.06955 18.9313C2.6838 18.5457 2.46748 18.0228 2.46748 17.4777V6.76484C2.46748 5.63107 3.38621 4.71188 4.52043 4.70942C6.48948 4.70613 8.61563 4.70284 8.61563 4.70284C9.29665 4.70119 9.84773 4.14787 9.8469 3.46712C9.84608 2.78636 9.29172 2.23469 8.61069 2.23633Z" fill="#C8D5B9"/>
<path fill-rule="evenodd" clip-rule="evenodd" d="M14.4343 3.01695L8.80434 8.64552C8.69166 8.75815 8.61352 8.90121 8.58145 9.05742L7.69233 13.2932C7.63558 13.5637 7.71865 13.8449 7.91276 14.0406C8.10769 14.2371 8.38734 14.3226 8.65876 14.2683L12.9308 13.4149C13.0895 13.3829 13.2359 13.3047 13.3511 13.1896L18.9811 7.5619L14.4343 3.01695ZM15.5981 1.8544L20.1441 6.39935L21.0587 5.48592C22.3138 4.23047 22.3138 2.19642 21.0587 0.941794C21.0579 0.941794 21.0579 0.940972 21.0579 0.940972C19.8019 -0.313657 17.7671 -0.313657 16.5119 0.940972L15.5981 1.8544Z" fill="#C8D5B9"/>
</svg>
