<svg width="19" height="18" viewBox="0 0 19 18" fill="none" xmlns="http://www.w3.org/2000/svg">
<g filter="url(#filter0_i_3308_3387)">
<path d="M18.2083 2.625H14.7778V1.29688C14.7778 0.855273 14.4248 0.5 13.9861 0.5H5.01389C4.57517 0.5 4.22222 0.855273 4.22222 1.29688V2.625H0.791667C0.352951 2.625 0 2.98027 0 3.42188V5.28125C0 6.4666 0.742188 7.68516 2.04184 8.6248C3.0809 9.37852 4.34427 9.85664 5.67031 10.0094C6.70608 11.7393 7.91667 12.4531 7.91667 12.4531V14.8438H6.33333C5.16892 14.8438 4.22222 15.5311 4.22222 16.7031V17.1016C4.22222 17.3207 4.40035 17.5 4.61806 17.5H14.3819C14.5997 17.5 14.7778 17.3207 14.7778 17.1016V16.7031C14.7778 15.5311 13.8311 14.8438 12.6667 14.8438H11.0833V12.4531C11.0833 12.4531 12.2939 11.7393 13.3297 10.0094C14.659 9.85664 15.9224 9.37852 16.9582 8.6248C18.2545 7.68516 19 6.4666 19 5.28125V3.42188C19 2.98027 18.647 2.625 18.2083 2.625ZM3.27552 6.90156C2.47066 6.31719 2.11111 5.66641 2.11111 5.28125V4.75H4.22882C4.26181 5.83242 4.42014 6.78203 4.65104 7.61211C4.15295 7.43945 3.68785 7.20039 3.27552 6.90156ZM16.8889 5.28125C16.8889 5.81582 16.305 6.47988 15.7245 6.90156C15.3122 7.20039 14.8438 7.43945 14.3457 7.61211C14.5766 6.78203 14.7349 5.83242 14.7679 4.75H16.8889V5.28125Z" fill="#FBE367"/>
</g>
<defs>
<filter id="filter0_i_3308_3387" x="0" y="0.5" width="19" height="21" filterUnits="userSpaceOnUse" color-interpolation-filters="sRGB">
<feFlood flood-opacity="0" result="BackgroundImageFix"/>
<feBlend mode="normal" in="SourceGraphic" in2="BackgroundImageFix" result="shape"/>
<feColorMatrix in="SourceAlpha" type="matrix" values="0 0 0 0 0 0 0 0 0 0 0 0 0 0 0 0 0 0 127 0" result="hardAlpha"/>
<feOffset dy="4"/>
<feGaussianBlur stdDeviation="2"/>
<feComposite in2="hardAlpha" operator="arithmetic" k2="-1" k3="1"/>
<feColorMatrix type="matrix" values="0 0 0 0 0.886275 0 0 0 0 0.65098 0 0 0 0 0.176471 0 0 0 1 0"/>
<feBlend mode="normal" in2="shape" result="effect1_innerShadow_3308_3387"/>
</filter>
</defs>
</svg>
