<svg width="23" height="18" viewBox="0 0 23 18" fill="none" xmlns="http://www.w3.org/2000/svg">
<path d="M2.5625 0C2.15458 0 1.75581 0.121809 1.41664 0.350025C1.07746 0.57824 0.813105 0.902611 0.656999 1.28212C0.500894 1.66163 0.460049 2.07923 0.539631 2.48211C0.619213 2.88499 0.815647 3.25507 1.10409 3.54553C1.39254 3.83599 1.76004 4.0338 2.16013 4.11394C2.56021 4.19408 2.97491 4.15295 3.35179 3.99575C3.72866 3.83855 4.05078 3.57235 4.27741 3.2308C4.50404 2.88925 4.625 2.4877 4.625 2.07692C4.625 1.52609 4.4077 0.997815 4.02091 0.608317C3.63411 0.218818 3.10951 0 2.5625 0ZM2.5625 6.92308C2.15458 6.92308 1.75581 7.04489 1.41664 7.2731C1.07746 7.50132 0.813105 7.82569 0.656999 8.2052C0.500894 8.5847 0.460049 9.0023 0.539631 9.40519C0.619213 9.80807 0.815647 10.1781 1.10409 10.4686C1.39254 10.7591 1.76004 10.9569 2.16013 11.037C2.56021 11.1172 2.97491 11.076 3.35179 10.9188C3.72866 10.7616 4.05078 10.4954 4.27741 10.1539C4.50404 9.81233 4.625 9.41078 4.625 9C4.625 8.44917 4.4077 7.92089 4.02091 7.53139C3.63411 7.14189 3.10951 6.92308 2.5625 6.92308ZM2.5625 13.8462C2.15458 13.8462 1.75581 13.968 1.41664 14.1962C1.07746 14.4244 0.813105 14.7488 0.656999 15.1283C0.500894 15.5078 0.460049 15.9254 0.539631 16.3283C0.619213 16.7311 0.815647 17.1012 1.10409 17.3917C1.39254 17.6821 1.76004 17.88 2.16013 17.9601C2.56021 18.0402 2.97491 17.9991 3.35179 17.8419C3.72866 17.6847 4.05078 17.4185 4.27741 17.077C4.50404 16.7354 4.625 16.3339 4.625 15.9231C4.625 15.3722 4.4077 14.844 4.02091 14.4545C3.63411 14.065 3.10951 13.8462 2.5625 13.8462ZM21.8125 14.5385H8.0625C7.88016 14.5385 7.7053 14.6114 7.57636 14.7412C7.44743 14.8711 7.375 15.0472 7.375 15.2308V16.6154C7.375 16.799 7.44743 16.9751 7.57636 17.1049C7.7053 17.2348 7.88016 17.3077 8.0625 17.3077H21.8125C21.9948 17.3077 22.1697 17.2348 22.2986 17.1049C22.4276 16.9751 22.5 16.799 22.5 16.6154V15.2308C22.5 15.0472 22.4276 14.8711 22.2986 14.7412C22.1697 14.6114 21.9948 14.5385 21.8125 14.5385ZM21.8125 0.692308H8.0625C7.88016 0.692308 7.7053 0.765247 7.57636 0.89508C7.44743 1.02491 7.375 1.201 7.375 1.38462V2.76923C7.375 2.95284 7.44743 3.12893 7.57636 3.25877C7.7053 3.3886 7.88016 3.46154 8.0625 3.46154H21.8125C21.9948 3.46154 22.1697 3.3886 22.2986 3.25877C22.4276 3.12893 22.5 2.95284 22.5 2.76923V1.38462C22.5 1.201 22.4276 1.02491 22.2986 0.89508C22.1697 0.765247 21.9948 0.692308 21.8125 0.692308ZM21.8125 7.61538H8.0625C7.88016 7.61538 7.7053 7.68832 7.57636 7.81816C7.44743 7.94799 7.375 8.12408 7.375 8.30769V9.69231C7.375 9.87592 7.44743 10.052 7.57636 10.1818C7.7053 10.3117 7.88016 10.3846 8.0625 10.3846H21.8125C21.9948 10.3846 22.1697 10.3117 22.2986 10.1818C22.4276 10.052 22.5 9.87592 22.5 9.69231V8.30769C22.5 8.12408 22.4276 7.94799 22.2986 7.81816C22.1697 7.68832 21.9948 7.61538 21.8125 7.61538Z" fill="#BFBFBF"/>
</svg>
