<svg width="22" height="22" viewBox="0 0 22 22" fill="none" xmlns="http://www.w3.org/2000/svg">
<path d="M11 3.47949C13.6966 3.47949 16.2878 4.40673 18.2021 6.06445L18.5518 6.38281C20.2487 8.00592 21.2002 10.1276 21.2002 12.3398C21.2001 14.5519 20.2485 16.6729 18.5518 18.2959L18.2021 18.6143C16.2878 20.272 13.6967 21.1992 11 21.1992C8.4719 21.1992 6.03694 20.3839 4.16504 18.916L3.79785 18.6143C1.88269 16.9558 0.799913 14.6995 0.799805 12.3398C0.799805 9.98003 1.8826 7.72303 3.79785 6.06445L4.16504 5.7627C6.03692 4.29492 8.47196 3.47949 11 3.47949ZM11 5.32324C8.96961 5.32324 7.02147 5.97817 5.53027 7.14746L5.23828 7.3877C3.71537 8.70651 2.86621 10.489 2.86621 12.3398C2.86632 14.1905 3.71554 15.9723 5.23828 17.291L5.53027 17.5322C7.02143 18.7014 8.96977 19.3564 11 19.3564C13.1656 19.3564 15.2379 18.6106 16.7617 17.291L17.0391 17.0381C18.387 15.749 19.1337 14.0748 19.1338 12.3398C19.1338 10.6047 18.3872 8.92985 17.0391 7.64062L16.7617 7.3877C15.2379 6.06811 13.1656 5.32324 11 5.32324Z" fill="#6C9D41" stroke="#6C9D41" stroke-width="0.4"/>
<path d="M10.999 6.3584C11.2645 6.3584 11.5235 6.45008 11.7188 6.61914L11.7891 6.68555C11.9428 6.84821 12.0322 7.05762 12.0322 7.28027V7.28125L12.0186 12.332L12.0137 12.4268C11.9921 12.6137 11.9073 12.7874 11.7754 12.9268L11.7061 12.9932C11.5108 13.1623 11.2509 13.2539 10.9854 13.2539C10.7531 13.2538 10.5258 13.1834 10.3418 13.0527L10.2656 12.9932C10.0695 12.8233 9.95222 12.5864 9.95215 12.332V12.3311L9.96582 7.2793C9.96611 7.02517 10.0834 6.78881 10.2793 6.61914L10.3545 6.55859C10.5386 6.42784 10.7667 6.3584 10.999 6.3584Z" fill="#6C9D41" stroke="#6C9D41" stroke-width="0.4"/>
<path d="M11.001 10.9033C11.4874 10.9034 11.959 11.0706 12.3105 11.375L12.4355 11.4941C12.7109 11.7852 12.8672 12.1567 12.8672 12.5469C12.8671 12.9368 12.7107 13.3077 12.4355 13.5986L12.3105 13.7178C11.959 14.0222 11.4874 14.1894 11.001 14.1895C10.5752 14.1895 10.1605 14.0622 9.82812 13.8262L9.69141 13.7178C9.33917 13.4127 9.13393 12.9925 9.13379 12.5469C9.13379 12.1011 9.33904 11.6802 9.69141 11.375L9.82812 11.2666C10.1605 11.0306 10.5752 10.9033 11.001 10.9033ZM14.334 0.799805C14.5995 0.799805 14.8594 0.891449 15.0547 1.06055L15.124 1.12695C15.2778 1.28963 15.3672 1.499 15.3672 1.72168C15.3672 1.94436 15.2779 2.15374 15.124 2.31641L15.0547 2.38281C14.8594 2.55191 14.5995 2.64355 14.334 2.64355H12.0342V5.53027H9.96777V2.64355H7.66699C7.43475 2.64346 7.20745 2.5731 7.02344 2.44238L6.94727 2.38281C6.75119 2.21295 6.6338 1.97609 6.63379 1.72168C6.63379 1.46727 6.7512 1.23042 6.94727 1.06055L7.02344 1C7.20737 0.869484 7.43494 0.799894 7.66699 0.799805H14.334Z" fill="#6C9D41" stroke="#6C9D41" stroke-width="0.4"/>
</svg>
