<svg width="17" height="15" viewBox="0 0 17 15" fill="none" xmlns="http://www.w3.org/2000/svg">
<g clip-path="url(#clip0_3563_57544)">
<path d="M9.76995 9.60703C10.3877 9.60703 10.9403 9.15328 10.9403 8.50078C10.9403 7.72078 10.4194 7.34766 9.79367 7.34766C9.21444 7.34766 8.63916 7.71047 8.63916 8.48203C8.63916 9.24797 9.17589 9.60703 9.76995 9.60703Z" fill="#C8D5B9"/>
<path d="M3.93614 0C4.06722 0 4.19293 0.049386 4.28561 0.137294C4.3783 0.225201 4.43037 0.34443 4.43037 0.46875V0.9375H12.338V0.46875C12.338 0.34443 12.39 0.225201 12.4827 0.137294C12.5754 0.049386 12.7011 0 12.8322 0C12.9633 0 13.089 0.049386 13.1817 0.137294C13.2744 0.225201 13.3264 0.34443 13.3264 0.46875V0.9375H14.3149C14.8392 0.9375 15.342 1.13504 15.7128 1.48667C16.0835 1.83831 16.2918 2.31522 16.2918 2.8125V13.125C16.2918 13.6223 16.0835 14.0992 15.7128 14.4508C15.342 14.8025 14.8392 15 14.3149 15H2.45346C1.92916 15 1.42632 14.8025 1.05558 14.4508C0.684843 14.0992 0.476563 13.6223 0.476562 13.125V2.8125C0.476563 2.31522 0.684843 1.83831 1.05558 1.48667C1.42632 1.13504 1.92916 0.9375 2.45346 0.9375H3.44192V0.46875C3.44192 0.34443 3.49399 0.225201 3.58667 0.137294C3.67936 0.049386 3.80506 0 3.93614 0ZM13.7752 2.8125H2.99217C2.69564 2.8125 2.45346 3.0225 2.45346 3.28125V4.21875C2.45346 4.4775 2.69465 4.6875 2.99217 4.6875H13.7762C14.0727 4.6875 14.3149 4.4775 14.3149 4.21875V3.28125C14.3149 3.0225 14.0737 2.8125 13.7752 2.8125ZM9.70474 11.9906C10.9482 11.9906 11.6816 10.9903 11.6816 9.29813C11.6816 7.485 10.9097 6.79688 9.7512 6.79688C8.83589 6.79688 7.97495 7.42687 7.97495 8.49281C7.97495 9.58031 8.78944 10.1522 9.6316 10.1522C10.369 10.1522 10.8474 9.79969 10.9986 9.41156H11.0253C11.0214 10.6453 10.5696 11.4403 9.73538 11.4403C9.07905 11.4403 8.73903 11.0184 8.69751 10.6716H8.02141C8.06787 11.2716 8.60855 11.9906 9.70474 11.9906ZM6.84812 6.89531H6.22243C5.77447 7.12233 5.3411 7.37433 4.92459 7.65V8.30156C5.29526 8.06062 5.8824 7.72031 6.16806 7.57313H6.17993V11.895H6.84713L6.84812 6.89531Z" fill="#C8D5B9"/>
</g>
<defs>
<clipPath id="clip0_3563_57544">
<rect width="15.8152" height="15" fill="white" transform="translate(0.476562)"/>
</clipPath>
</defs>
</svg>
