<svg width="19" height="19" viewBox="0 0 19 19" fill="none" xmlns="http://www.w3.org/2000/svg">
<path d="M4.15625 0C4.31372 0 4.46475 0.0625556 4.57609 0.173905C4.68744 0.285255 4.75 0.436278 4.75 0.59375V1.1875H14.25V0.59375C14.25 0.436278 14.3126 0.285255 14.4239 0.173905C14.5353 0.0625556 14.6863 0 14.8438 0C15.0012 0 15.1522 0.0625556 15.2636 0.173905C15.3749 0.285255 15.4375 0.436278 15.4375 0.59375V1.1875H16.625C17.2549 1.1875 17.859 1.43772 18.3044 1.88312C18.7498 2.32852 19 2.93261 19 3.5625V16.625C19 17.2549 18.7498 17.859 18.3044 18.3044C17.859 18.7498 17.2549 19 16.625 19H2.375C1.74511 19 1.14102 18.7498 0.695621 18.3044C0.250223 17.859 0 17.2549 0 16.625V3.5625C0 2.93261 0.250223 2.32852 0.695621 1.88312C1.14102 1.43772 1.74511 1.1875 2.375 1.1875H3.5625V0.59375C3.5625 0.436278 3.62506 0.285255 3.73641 0.173905C3.84776 0.0625556 3.99878 0 4.15625 0ZM15.9766 3.5625H3.02219C2.66594 3.5625 2.375 3.8285 2.375 4.15625V5.34375C2.375 5.6715 2.66475 5.9375 3.02219 5.9375H15.9778C16.3341 5.9375 16.625 5.6715 16.625 5.34375V4.15625C16.625 3.8285 16.3353 3.5625 15.9766 3.5625ZM11.0865 15.1881C12.5804 15.1881 13.4615 13.9211 13.4615 11.7776C13.4615 9.481 12.5341 8.60938 11.1423 8.60938C10.0427 8.60938 9.00838 9.40738 9.00838 10.7576C9.00838 12.1351 9.98688 12.8594 10.9986 12.8594C11.8845 12.8594 12.4593 12.4129 12.6409 11.9213H12.673C12.6683 13.4841 12.1256 14.4911 11.1233 14.4911C10.3348 14.4911 9.92631 13.9567 9.87644 13.5173H9.06419C9.12 14.2773 9.76956 15.1881 11.0865 15.1881ZM7.65463 8.73406H6.90294C6.36477 9.02162 5.84413 9.34082 5.34375 9.69V10.5153C5.78906 10.2101 6.49444 9.77906 6.83763 9.59263H6.85188V15.067H7.65344L7.65463 8.73406Z" fill="#8FC0A9"/>
</svg>
