<svg width="18" height="19" viewBox="0 0 18 19" fill="none" xmlns="http://www.w3.org/2000/svg">
<path d="M15.9286 0.3125H2.57143C1.56585 0.3125 0.75 1.19434 0.75 2.28125V16.7188C0.75 17.8057 1.56585 18.6875 2.57143 18.6875H15.9286C16.9342 18.6875 17.75 17.8057 17.75 16.7188V2.28125C17.75 1.19434 16.9342 0.3125 15.9286 0.3125ZM4.24107 11.1406C3.99062 11.1406 3.78571 10.9191 3.78571 10.6484V8.35156C3.78571 8.08086 3.99062 7.85938 4.24107 7.85938H14.2589C14.5094 7.85938 14.7143 8.08086 14.7143 8.35156V10.6484C14.7143 10.9191 14.5094 11.1406 14.2589 11.1406H4.24107Z" fill="#DA3038"/>
</svg>
