<svg width="18" height="17" viewBox="0 0 18 17" fill="none" xmlns="http://www.w3.org/2000/svg">
<path d="M14.9167 9.20833V7.79167C14.9167 7.59983 14.8466 7.43381 14.7064 7.29362C14.5662 7.15343 14.4002 7.08333 14.2083 7.08333H10.6667V3.54167C10.6667 3.34983 10.5966 3.18381 10.4564 3.04362C10.3162 2.90343 10.1502 2.83333 9.95833 2.83333H8.54167C8.34983 2.83333 8.18381 2.90343 8.04362 3.04362C7.90343 3.18381 7.83333 3.34983 7.83333 3.54167V7.08333H4.29167C4.09983 7.08333 3.93381 7.15343 3.79362 7.29362C3.65343 7.43381 3.58333 7.59983 3.58333 7.79167V9.20833C3.58333 9.40017 3.65343 9.56619 3.79362 9.70638C3.93381 9.84657 4.09983 9.91667 4.29167 9.91667H7.83333V13.4583C7.83333 13.6502 7.90343 13.8162 8.04362 13.9564C8.18381 14.0966 8.34983 14.1667 8.54167 14.1667H9.95833C10.1502 14.1667 10.3162 14.0966 10.4564 13.9564C10.5966 13.8162 10.6667 13.6502 10.6667 13.4583V9.91667H14.2083C14.4002 9.91667 14.5662 9.84657 14.7064 9.70638C14.8466 9.56619 14.9167 9.40017 14.9167 9.20833ZM17.75 3.1875V13.8125C17.75 14.6905 17.4383 15.4413 16.8148 16.0648C16.1913 16.6883 15.4405 17 14.5625 17H3.9375C3.05946 17 2.3087 16.6883 1.68522 16.0648C1.06174 15.4413 0.75 14.6905 0.75 13.8125V3.1875C0.75 2.30946 1.06174 1.5587 1.68522 0.935221C2.3087 0.31174 3.05946 0 3.9375 0H14.5625C15.4405 0 16.1913 0.31174 16.8148 0.935221C17.4383 1.5587 17.75 2.30946 17.75 3.1875Z" fill="#6C9D41"/>
</svg>
