<svg width="49" height="59" viewBox="0 0 49 59" fill="none" xmlns="http://www.w3.org/2000/svg">
<path d="M24.5 10.1719C19.6791 10.1719 14.9664 11.6014 10.958 14.2798C6.94954 16.9582 3.82533 20.765 1.98045 25.219C0.135561 29.6729 -0.347145 34.5739 0.59337 39.3022C1.53388 44.0305 3.85538 48.3737 7.26428 51.7826C10.6732 55.1915 15.0164 57.513 19.7447 58.4535C24.473 59.394 29.374 58.9113 33.8279 57.0664C38.2819 55.2216 42.0887 52.0974 44.7671 48.0889C47.4454 44.0805 48.875 39.3678 48.875 34.5469C48.8676 28.0845 46.2972 21.8889 41.7276 17.3193C37.158 12.7497 30.9624 10.1793 24.5 10.1719ZM24.5 52.8281C20.8843 52.8281 17.3498 51.756 14.3435 49.7472C11.3372 47.7384 8.994 44.8833 7.61034 41.5428C6.22667 38.2023 5.86464 34.5266 6.57003 30.9804C7.27542 27.4342 9.01654 24.1768 11.5732 21.6201C14.1299 19.0634 17.3873 17.3223 20.9335 16.6169C24.4797 15.9115 28.1555 16.2735 31.4959 17.6572C34.8364 19.0409 37.6915 21.384 39.7003 24.3904C41.7091 27.3967 42.7813 30.9312 42.7813 34.5469C42.7759 39.3937 40.8481 44.0405 37.4209 47.4677C33.9936 50.895 29.3469 52.8228 24.5 52.8281ZM33.7651 24.2662C34.0491 24.5493 34.2745 24.8856 34.4283 25.256C34.582 25.6263 34.6612 26.0234 34.6612 26.4244C34.6612 26.8254 34.582 27.2225 34.4283 27.5928C34.2745 27.9632 34.0491 28.2996 33.7651 28.5826L26.6557 35.692C26.0833 36.2644 25.307 36.586 24.4975 36.586C23.688 36.586 22.9117 36.2644 22.3393 35.692C21.7669 35.1196 21.4453 34.3433 21.4453 33.5338C21.4453 32.7243 21.7669 31.948 22.3393 31.3756L29.4486 24.2662C29.7317 23.9822 30.0681 23.7568 30.4384 23.603C30.8088 23.4492 31.2058 23.3701 31.6068 23.3701C32.0079 23.3701 32.4049 23.4492 32.7753 23.603C33.1456 23.7568 33.482 23.9822 33.7651 24.2662ZM15.3594 3.0625C15.3594 2.25442 15.6804 1.47943 16.2518 0.908034C16.8232 0.336634 17.5982 0.015625 18.4063 0.015625H30.5938C31.4018 0.015625 32.1768 0.336634 32.7482 0.908034C33.3196 1.47943 33.6406 2.25442 33.6406 3.0625C33.6406 3.87058 33.3196 4.64557 32.7482 5.21697C32.1768 5.78837 31.4018 6.10938 30.5938 6.10938H18.4063C17.5982 6.10938 16.8232 5.78837 16.2518 5.21697C15.6804 4.64557 15.3594 3.87058 15.3594 3.0625Z" fill="#6C9D40"/>
</svg>
