<svg width="24" height="16" viewBox="0 0 24 16" fill="none" xmlns="http://www.w3.org/2000/svg">
<path d="M0.238281 0.0239258H23.9505V15.7223H0.238281V0.0239258Z" fill="#5C9E31"/>
<path d="M0.238281 0.0239258H23.9505V5.39443H0.238281V0.0239258Z" fill="#E27022"/>
<path d="M0.238281 5.3938H23.9505V10.3512H0.238281V5.3938Z" fill="white"/>
<path d="M12.2055 7.41709L12.8572 6.44213L12.4013 7.53937L13.4172 7.04694L12.5146 7.75088L13.6221 7.87317L12.5146 7.99545L13.4172 8.6994L12.4013 8.20697L12.8572 9.3042L12.2055 8.32925L12.0923 9.52563L11.9791 8.32925L11.3274 9.3042L11.7833 8.20697L10.7675 8.6994L11.6701 7.99545L10.5625 7.87317L11.6701 7.75088L10.7675 7.04694L11.7833 7.53937L11.3274 6.44213L11.9791 7.41709L12.0923 6.2207L12.2055 7.41709Z" stroke="#1E50A0" stroke-width="0.25" stroke-linecap="round" stroke-linejoin="round"/>
<path d="M12.0959 9.93902C13.152 9.93902 14.0082 9.01423 14.0082 7.87344C14.0082 6.73265 13.152 5.80786 12.0959 5.80786C11.0398 5.80786 10.1836 6.73265 10.1836 7.87344C10.1836 9.01423 11.0398 9.93902 12.0959 9.93902Z" stroke="#1E50A0" stroke-width="0.25" stroke-linecap="round" stroke-linejoin="round"/>
</svg>
