<svg width="24px" height="24px" viewBox="0 0 24 24" fill="none" xmlns="http://www.w3.org/2000/svg">
<path d="M9.75 6.1875C8.025 6.1875 6.625 7.5875 6.625 9.3125C6.625 11.0375 8.025 12.4375 9.75 12.4375C11.475 12.4375 12.875 11.0375 12.875 9.3125C12.875 7.5875 11.475 6.1875 9.75 6.1875Z" stroke="#E9CB6B" stroke-width="1.5" stroke-linecap="round" stroke-linejoin="round"/>
<path d="M14.25 6.1875C12.525 6.1875 11.125 7.5875 11.125 9.3125C11.125 11.0375 12.525 12.4375 14.25 12.4375C15.975 12.4375 17.375 11.0375 17.375 9.3125C17.375 7.5875 15.975 6.1875 14.25 6.1875Z" stroke="#E9CB6B" stroke-width="1.5" stroke-linecap="round" stroke-linejoin="round"/>
<path d="M18.5 12.4375L19.25 16.3125L17.375 17.8125H6.625L4.75 16.3125L5.5 12.4375" stroke="#E9CB6B" stroke-width="1.5" stroke-linecap="round" stroke-linejoin="round"/>
</svg> 