<svg width="23" height="16" viewBox="0 0 23 16" fill="none" xmlns="http://www.w3.org/2000/svg">
<g clip-path="url(#clip0_3308_3395)">
<path d="M0 0H23V16H0V0Z" fill="#EE1C25"/>
<path d="M3.83345 1.59961L5.18539 5.94121L1.646 3.25801H6.0209L2.48151 5.94121L3.83345 1.59961Z" fill="#FFFF00"/>
<path d="M7.96642 0.864135L7.83842 2.37994L7.08811 1.07513L8.43012 1.67058L7.009 2.01192L7.96642 0.864135Z" fill="#FFFF00"/>
<path d="M9.75038 2.64279L9.06869 3.98798L8.86243 2.48159L9.87783 3.57381L8.44113 3.31294L9.75038 2.64279Z" fill="#FFFF00"/>
<path d="M9.91996 5.32605L8.7717 6.26405L9.17228 4.8009L9.67236 6.23033L8.46262 5.3806L9.91996 5.32605Z" fill="#FFFF00"/>
<path d="M7.93714 6.45106L7.86948 7.97111L7.06797 6.69987L8.43249 7.23676L7.02615 7.63928L7.93714 6.45106Z" fill="#FFFF00"/>
</g>
<defs>
<clipPath id="clip0_3308_3395">
<rect width="23" height="16" fill="white"/>
</clipPath>
</defs>
</svg>
