<svg width="80" height="80" viewBox="0 0 80 80" fill="none" xmlns="http://www.w3.org/2000/svg">
<rect x="0.5" y="0.5" width="79" height="79" rx="39.5" fill="#C8D5B9" stroke="#C8D5B9"/>
<path d="M54 37.25V40H48.583L48.6611 40.5684L49.6924 48.0684L49.752 48.5H52.625C53.5225 48.5 54.2788 48.814 54.9209 49.4561C55.5228 50.058 55.8352 50.7596 55.8711 51.583L55.875 51.749V58.75H23.125V51.75C23.125 50.9648 23.3654 50.2882 23.8555 49.7021L24.0811 49.4561C24.643 48.8952 25.2919 48.5842 26.0459 48.5146L26.376 48.5H29.248L29.3076 48.0684L30.3389 40.5684L30.417 40H25V37.25H54ZM39.499 22.4463C40.19 23.097 40.9311 23.6806 41.7217 24.1973L42.123 24.4512C43.2504 25.1412 44.4891 25.4847 45.8281 25.4834C47.2331 25.4834 48.5284 25.1144 49.7031 24.376C50.4341 23.9165 51.1501 23.4345 51.8535 22.9336L49.5508 33.4375H29.4951L27.1523 22.9375C27.5877 23.2474 28.0267 23.5516 28.4727 23.8457L29.2969 24.376C30.4716 25.1144 31.7669 25.4844 33.1719 25.4844C34.4284 25.4844 35.596 25.1808 36.666 24.5742L36.8789 24.4492C37.8205 23.8728 38.6938 23.2044 39.499 22.4463Z" fill="black" stroke="#375D42"/>
</svg>
