<svg width="19" height="18" viewBox="0 0 19 18" fill="none" xmlns="http://www.w3.org/2000/svg">
<path d="M11.3154 6H3.81543C2.98818 6 2.31543 6.67275 2.31543 7.5V15C2.31543 15.8273 2.98818 16.5 3.81543 16.5H11.3154C12.1427 16.5 12.8154 15.8273 12.8154 15V7.5C12.8154 6.67275 12.1427 6 11.3154 6Z" fill="#FAF3DD"/>
<path d="M15.8154 1.5H8.31543C7.9176 1.5 7.53607 1.65804 7.25477 1.93934C6.97347 2.22064 6.81543 2.60218 6.81543 3V4.5H12.8154C13.2133 4.5 13.5948 4.65804 13.8761 4.93934C14.1574 5.22064 14.3154 5.60218 14.3154 6V12H15.8154C16.2133 12 16.5948 11.842 16.8761 11.5607C17.1574 11.2794 17.3154 10.8978 17.3154 10.5V3C17.3154 2.60218 17.1574 2.22064 16.8761 1.93934C16.5948 1.65804 16.2133 1.5 15.8154 1.5Z" fill="#FAF3DD"/>
</svg>
