<svg width="22" height="17" viewBox="0 0 22 17" fill="none" xmlns="http://www.w3.org/2000/svg">
<path d="M19.2068 7.33301C19.0326 7.19793 18.8209 7.11106 18.5961 7.0823C18.3712 7.05354 18.1421 7.08405 17.935 7.17036L14.0815 8.76149L11.8425 5.0135C11.7355 4.83852 11.5804 4.693 11.3931 4.59176C11.2059 4.49053 10.993 4.43719 10.7763 4.43719C10.5596 4.43719 10.3468 4.49053 10.1595 4.59176C9.97218 4.693 9.81713 4.83852 9.71011 5.0135L7.47111 8.76149L3.61759 7.17036C3.41007 7.08418 3.18073 7.05362 2.95548 7.08214C2.73023 7.11067 2.51807 7.19713 2.34298 7.33176C2.16788 7.46639 2.03684 7.64382 1.96466 7.84399C1.89248 8.04416 1.88205 8.25909 1.93454 8.46448L3.86891 16.1231C3.9059 16.2714 3.97492 16.4111 4.07179 16.5339C4.16866 16.6567 4.29136 16.7599 4.43247 16.8373C4.6235 16.9435 4.84192 16.9997 5.06457 17C5.1728 16.9998 5.28047 16.9855 5.38443 16.9576C8.91034 16.0524 12.6347 16.0524 16.1606 16.9576C16.4825 17.0362 16.8249 16.9929 17.1125 16.8373C17.2545 16.7609 17.3779 16.658 17.4749 16.535C17.5719 16.4121 17.6404 16.2718 17.6761 16.1231L19.6181 8.46448C19.67 8.25904 19.659 8.04421 19.5863 7.84427C19.5136 7.64432 19.3822 7.46724 19.2068 7.33301Z" fill="#E0B42A"/>
<circle cx="10.776" cy="2.53552" r="2.53552" fill="#E0B42A"/>
<circle cx="10.7759" cy="11.4098" r="1.90164" fill="#CDA21E"/>
<circle cx="19.9673" cy="6.65575" r="1.5847" fill="#E0B42A"/>
<circle cx="1.5847" cy="6.65575" r="1.5847" fill="#E0B42A"/>
<circle cx="6.02187" cy="12.3607" r="0.950821" fill="#CDA21E"/>
<circle cx="15.5302" cy="12.3607" r="0.950821" fill="#CDA21E"/>
</svg>
