<svg width="22" height="19" viewBox="0 0 22 19" fill="none" xmlns="http://www.w3.org/2000/svg">
<path d="M3.49527 0H13.0048C13.6455 0 14.1763 -1.66835e-07 14.5874 0.0379986C14.9958 0.0759975 15.4275 0.160138 15.7671 0.436986C16.2319 0.812903 16.4959 1.37746 16.5 1.96915C16.5028 2.398 16.3075 2.78341 16.0861 3.13354C15.862 3.48639 15.5361 3.91116 15.1374 4.42822L11.5761 9.06136C11.2379 9.50106 11.1265 9.65034 11.0495 9.80912C10.9739 9.96399 10.9185 10.1277 10.8845 10.2963C10.8488 10.4727 10.846 10.6627 10.846 11.2219V16.9705C10.846 17.2623 10.846 17.5242 10.8281 17.7346C10.8089 17.9422 10.7649 18.2218 10.5848 18.4634C10.4709 18.6181 10.3239 18.7463 10.1543 18.8387C9.9846 18.9311 9.79639 18.9855 9.60302 18.998C9.29089 19.017 9.02689 18.8936 8.84402 18.7918C8.66114 18.69 8.44527 18.5434 8.21014 18.3833L6.85715 17.4605L6.79939 17.4211C6.52439 17.2352 6.2769 17.0683 6.09265 16.8375C5.93111 16.6357 5.80981 16.4054 5.73515 16.159C5.65265 15.8767 5.65265 15.5795 5.65265 15.2416V11.2232C5.65265 10.6641 5.65127 10.4727 5.61552 10.2977C5.58159 10.1291 5.52615 9.96535 5.45052 9.81048C5.37352 9.6517 5.26215 9.50242 4.9239 9.06272L1.40665 4.48929L1.3984 4.47572L1.36128 4.42958C1.02724 4.01131 0.71117 3.57937 0.413903 3.1349C0.192529 2.78613 -0.00272129 2.39935 2.87036e-05 1.97051C0.0027787 1.37881 0.268153 0.81426 0.732903 0.436986C1.07253 0.161495 1.5029 0.0773545 1.91265 0.0393556C2.32378 -2.62891e-07 2.85452 0 3.49527 0ZM3.3344 4.74985L6.0184 8.24031L6.0569 8.29053C6.3429 8.66237 6.54365 8.92158 6.68802 9.21607C6.81635 9.47663 6.90894 9.74986 6.96577 10.0358C7.02902 10.356 7.02902 10.6858 7.02902 11.1594V15.171C7.02902 15.6189 7.03452 15.7071 7.05652 15.7763C7.08035 15.8577 7.11794 15.9301 7.16927 15.9934C7.21052 16.045 7.27239 16.0952 7.63814 16.3449L8.96639 17.2487C9.19602 17.4048 9.34727 17.5066 9.46139 17.5758C9.47102 17.436 9.47102 17.242 9.47102 16.942V11.1594C9.47102 10.6845 9.47102 10.356 9.53427 10.0358C9.59202 9.74986 9.6846 9.47663 9.81202 9.21607C9.95639 8.92158 10.1571 8.66237 10.4445 8.28917L10.4816 8.24031L13.1656 4.74985H3.3344ZM14.2079 3.39275C14.5324 2.97069 14.762 2.66263 14.9201 2.41428C15.1126 2.11029 15.1264 2.00037 15.125 1.97594C15.1254 1.88234 15.1049 1.7898 15.065 1.7049C15.025 1.62 14.9667 1.54481 14.894 1.48467C14.8871 1.47924 14.8088 1.42224 14.4595 1.38967C14.1199 1.3571 13.6538 1.3571 12.969 1.3571H3.53102C2.8449 1.3571 2.38015 1.3571 2.04053 1.38967C1.69128 1.42224 1.6129 1.47924 1.60603 1.48467C1.53336 1.54481 1.475 1.62 1.43507 1.7049C1.39515 1.7898 1.37465 1.88234 1.37503 1.97594C1.37503 2.00037 1.3874 2.11165 1.5799 2.41428C1.73803 2.66263 1.96765 2.97069 2.29215 3.39275H14.2079ZM16.5 7.46405C16.5 7.28409 16.5724 7.1115 16.7014 6.98424C16.8303 6.85699 17.0052 6.7855 17.1875 6.7855H21.3125C21.4948 6.7855 21.6697 6.85699 21.7986 6.98424C21.9276 7.1115 22 7.28409 22 7.46405C22 7.64401 21.9276 7.81661 21.7986 7.94386C21.6697 8.07111 21.4948 8.1426 21.3125 8.1426H17.1875C17.0052 8.1426 16.8303 8.07111 16.7014 7.94386C16.5724 7.81661 16.5 7.64401 16.5 7.46405ZM14.4375 10.8568C14.4375 10.6768 14.5099 10.5042 14.6389 10.377C14.7678 10.2497 14.9427 10.1783 15.125 10.1783H21.3125C21.4948 10.1783 21.6697 10.2497 21.7986 10.377C21.9276 10.5042 22 10.6768 22 10.8568C22 11.0368 21.9276 11.2094 21.7986 11.3366C21.6697 11.4639 21.4948 11.5354 21.3125 11.5354H15.125C14.9427 11.5354 14.7678 11.4639 14.6389 11.3366C14.5099 11.2094 14.4375 11.0368 14.4375 10.8568ZM13.75 14.2496C13.75 14.0696 13.8224 13.897 13.9514 13.7697C14.0803 13.6425 14.2552 13.571 14.4375 13.571H21.3125C21.4948 13.571 21.6697 13.6425 21.7986 13.7697C21.9276 13.897 22 14.0696 22 14.2496C22 14.4295 21.9276 14.6021 21.7986 14.7294C21.6697 14.8566 21.4948 14.9281 21.3125 14.9281H14.4375C14.2552 14.9281 14.0803 14.8566 13.9514 14.7294C13.8224 14.6021 13.75 14.4295 13.75 14.2496ZM13.75 17.6423C13.75 17.4623 13.8224 17.2897 13.9514 17.1625C14.0803 17.0352 14.2552 16.9638 14.4375 16.9638H17.875C18.0573 16.9638 18.2322 17.0352 18.3611 17.1625C18.4901 17.2897 18.5625 17.4623 18.5625 17.6423C18.5625 17.8223 18.4901 17.9949 18.3611 18.1221C18.2322 18.2494 18.0573 18.3209 17.875 18.3209H14.4375C14.2552 18.3209 14.0803 18.2494 13.9514 18.1221C13.8224 17.9949 13.75 17.8223 13.75 17.6423Z" fill="#C8D5B9"/>
</svg>
