<svg width="16" height="19" viewBox="0 0 16 19" fill="none" xmlns="http://www.w3.org/2000/svg">
<path d="M15.3171 13.6003C14.3754 12.58 13.2326 11.7657 11.9606 11.2087C10.6887 10.6518 9.3152 10.3643 7.92666 10.3643C6.53813 10.3643 5.16464 10.6518 3.89271 11.2087C2.62077 11.7657 1.47793 12.58 0.536189 13.6003C0.390316 13.7608 0.30891 13.9695 0.307617 14.1864V17.7029C0.310699 17.934 0.404679 18.1546 0.569213 18.317C0.733748 18.4793 0.955597 18.5703 1.18674 18.5703H14.6666C14.8997 18.5703 15.1234 18.4777 15.2882 18.3128C15.4531 18.1479 15.5457 17.9243 15.5457 17.6912V14.1747C15.5416 13.9619 15.4604 13.7578 15.3171 13.6003Z" fill="#4C5454"/>
<path d="M7.92678 9.19341C10.1926 9.19341 12.0293 7.35663 12.0293 5.09085C12.0293 2.82506 10.1926 0.988281 7.92678 0.988281C5.661 0.988281 3.82422 2.82506 3.82422 5.09085C3.82422 7.35663 5.661 9.19341 7.92678 9.19341Z" fill="#4C5454"/>
</svg>
