<svg width="28" height="18" viewBox="0 0 28 18" fill="none" xmlns="http://www.w3.org/2000/svg">
<path d="M19.0181 0.597656H15.26C14.91 0.597656 14.5731 0.728906 14.315 0.965156L10.0144 4.90266C10.01 4.90703 10.0056 4.91578 10.0013 4.92016C9.275 5.60266 9.28813 6.69203 9.90938 7.37016C10.465 7.97828 11.6331 8.14016 12.3638 7.48828C12.3681 7.48391 12.3769 7.48391 12.3812 7.47953L15.8769 4.27703C16.1612 4.01891 16.6075 4.03641 16.8656 4.32078C17.1281 4.60516 17.1062 5.04703 16.8219 5.30953L15.68 6.35516L22.05 11.5264C22.1769 11.6314 22.2906 11.7452 22.3956 11.8633V3.39766L20.0069 1.00891C19.7487 0.746406 19.39 0.597656 19.0181 0.597656ZM23.8 3.40641V13.202C23.8 13.9764 24.4256 14.602 25.2 14.602H28V3.40641H23.8ZM25.9 13.202C25.515 13.202 25.2 12.887 25.2 12.502C25.2 12.117 25.515 11.802 25.9 11.802C26.285 11.802 26.6 12.117 26.6 12.502C26.6 12.887 26.285 13.202 25.9 13.202ZM0 14.5977H2.8C3.57437 14.5977 4.2 13.972 4.2 13.1977V3.40641H0V14.5977ZM2.1 11.802C2.485 11.802 2.8 12.117 2.8 12.502C2.8 12.887 2.485 13.202 2.1 13.202C1.715 13.202 1.4 12.887 1.4 12.502C1.4 12.1127 1.715 11.802 2.1 11.802ZM21.1706 12.6158L14.6388 7.31328L13.3263 8.51641C12.0269 9.70203 10.0363 9.58828 8.87687 8.32391C7.7 7.03766 7.79187 5.04703 9.06938 3.87453L12.6481 0.597656H8.98188C8.61 0.597656 8.25562 0.746406 7.99312 1.00891L5.6 3.39766V13.1933H6.40063L10.36 16.7764C11.5588 17.752 13.3219 17.5683 14.2975 16.3695L14.3062 16.3608L15.0894 17.0389C15.785 17.6077 16.8131 17.4983 17.3775 16.8027L18.7512 15.1139L18.9875 15.3064C19.5869 15.792 20.4706 15.7045 20.9562 15.1008L21.3719 14.5889C21.8619 13.9852 21.77 13.1058 21.1706 12.6158Z" fill="#BFBFBF"/>
</svg>
