<svg width="22" height="22" viewBox="0 0 22 22" fill="none" xmlns="http://www.w3.org/2000/svg">
<path d="M21.554 3.95785L11.483 0.087655C11.1717 -0.0292183 10.8287 -0.0292183 10.5175 0.087655L0.446016 3.95785C0.315004 4.00701 0.202111 4.09497 0.122414 4.20998C0.0427164 4.325 1.04961e-05 4.46159 0 4.60152L0 6.1875C0 6.56734 0.307656 6.875 0.6875 6.875H21.3125C21.6923 6.875 22 6.56734 22 6.1875V4.60152C22 4.31492 21.8221 4.0584 21.554 3.95785ZM2.75 8.25V15.125H2.0625C1.68266 15.125 1.375 15.4327 1.375 15.8125V17.875H20.625V15.8125C20.625 15.4327 20.3173 15.125 19.9375 15.125H19.25V8.25H16.5V15.125H12.375V8.25H9.625V15.125H5.5V8.25H2.75ZM21.3125 19.25H0.6875C0.307656 19.25 0 19.5577 0 19.9375V21.3125C0 21.6923 0.307656 22 0.6875 22H21.3125C21.6923 22 22 21.6923 22 21.3125V19.9375C22 19.5577 21.6923 19.25 21.3125 19.25Z" fill="#BFBFBF"/>
</svg>
