<svg width="22" height="22" viewBox="0 0 22 22" fill="none" xmlns="http://www.w3.org/2000/svg">
<path d="M4.88889 22V19.5556H9.77778V15.7667C8.77963 15.5426 7.88863 15.1201 7.10478 14.4992C6.32092 13.8783 5.74526 13.099 5.37778 12.1611C3.85 11.9778 2.57196 11.3109 1.54367 10.1603C0.51537 9.00981 0.000814815 7.66007 0 6.11111V4.88889C0 4.21667 0.239556 3.64141 0.718667 3.16311C1.19778 2.68481 1.77304 2.44526 2.44444 2.44444H4.88889V0H17.1111V2.44444H19.5556C20.2278 2.44444 20.8034 2.684 21.2826 3.16311C21.7617 3.64222 22.0008 4.21748 22 4.88889V6.11111C22 7.65926 21.4854 9.009 20.4563 10.1603C19.4272 11.3117 18.1492 11.9786 16.6222 12.1611C16.2556 13.0981 15.6803 13.8775 14.8964 14.4992C14.1126 15.1209 13.2212 15.5434 12.2222 15.7667V19.5556H17.1111V22H4.88889ZM4.88889 9.53333V4.88889H2.44444V6.11111C2.44444 6.88519 2.66852 7.58307 3.11667 8.20478C3.56481 8.82648 4.15556 9.26933 4.88889 9.53333ZM17.1111 9.53333C17.8444 9.26852 18.4352 8.82526 18.8833 8.20356C19.3315 7.58185 19.5556 6.88437 19.5556 6.11111V4.88889H17.1111V9.53333Z" fill="#BFBFBF"/>
</svg>
