<svg width="26" height="20" viewBox="0 0 26 20" fill="none" xmlns="http://www.w3.org/2000/svg">
<path d="M12.6685 5.32264L4.66634 11.9134V19.0266C4.66634 19.2108 4.7395 19.3875 4.86974 19.5177C4.99997 19.6479 5.17661 19.7211 5.36078 19.7211L10.2245 19.7085C10.4081 19.7076 10.5838 19.634 10.7133 19.5039C10.8428 19.3737 10.9155 19.1976 10.9155 19.0141V14.86C10.9155 14.6758 10.9886 14.4992 11.1189 14.3689C11.2491 14.2387 11.4257 14.1655 11.6099 14.1655H14.3877C14.5719 14.1655 14.7485 14.2387 14.8787 14.3689C15.009 14.4992 15.0821 14.6758 15.0821 14.86V19.011C15.0819 19.1024 15.0996 19.1929 15.1344 19.2774C15.1691 19.3619 15.2203 19.4387 15.2848 19.5035C15.3493 19.5682 15.4259 19.6195 15.5103 19.6546C15.5947 19.6896 15.6852 19.7076 15.7766 19.7076L20.6386 19.7211C20.8227 19.7211 20.9994 19.6479 21.1296 19.5177C21.2598 19.3875 21.333 19.2108 21.333 19.0266V11.9086L13.3326 5.32264C13.2385 5.24683 13.1213 5.20549 13.0005 5.20549C12.8797 5.20549 12.7626 5.24683 12.6685 5.32264ZM25.3087 9.80225L21.6802 6.81136V0.799642C21.6802 0.661508 21.6254 0.529032 21.5277 0.431357C21.43 0.333682 21.2975 0.278809 21.1594 0.278809H18.7288C18.5907 0.278809 18.4582 0.333682 18.3606 0.431357C18.2629 0.529032 18.208 0.661508 18.208 0.799642V3.95112L14.3222 0.754069C13.9492 0.447202 13.4813 0.279422 12.9984 0.279422C12.5154 0.279422 12.0475 0.447202 11.6746 0.754069L0.688042 9.80225C0.635302 9.84584 0.591668 9.89939 0.559634 9.95985C0.527599 10.0203 0.507791 10.0865 0.501342 10.1546C0.494893 10.2227 0.501929 10.2915 0.522048 10.3568C0.542167 10.4222 0.574975 10.483 0.618598 10.5358L1.72537 11.8812C1.76887 11.9341 1.82238 11.9779 1.88283 12.0101C1.94328 12.0423 2.00949 12.0623 2.07766 12.0688C2.14584 12.0754 2.21464 12.0685 2.28013 12.0484C2.34561 12.0284 2.4065 11.9956 2.45931 11.952L12.6685 3.54313C12.7626 3.46732 12.8797 3.42597 13.0005 3.42597C13.1213 3.42597 13.2385 3.46732 13.3326 3.54313L23.5422 11.952C23.5949 11.9956 23.6557 12.0284 23.7211 12.0485C23.7865 12.0687 23.8552 12.0757 23.9233 12.0692C23.9915 12.0628 24.0576 12.043 24.1181 12.0109C24.1786 11.9789 24.2321 11.9353 24.2757 11.8825L25.3825 10.5371C25.4261 10.484 25.4587 10.4229 25.4786 10.3572C25.4985 10.2916 25.5052 10.2226 25.4983 10.1543C25.4915 10.086 25.4712 10.0198 25.4387 9.95935C25.4061 9.89893 25.3619 9.84554 25.3087 9.80225Z" fill="#BFBFBF"/>
</svg>
