<svg width="21" height="20" viewBox="0 0 21 20" fill="none" xmlns="http://www.w3.org/2000/svg">
<path d="M10.5 11.25C13.7607 11.25 16.4062 8.73047 16.4062 5.625C16.4062 2.51953 13.7607 0 10.5 0C7.23926 0 4.59375 2.51953 4.59375 5.625C4.59375 8.73047 7.23926 11.25 10.5 11.25ZM15.75 12.5H13.49C12.5795 12.8984 11.5664 13.125 10.5 13.125C9.43359 13.125 8.42461 12.8984 7.50996 12.5H5.25C2.3502 12.5 0 14.7383 0 17.5V18.125C0 19.1602 0.881836 20 1.96875 20H19.0312C20.1182 20 21 19.1602 21 18.125V17.5C21 14.7383 18.6498 12.5 15.75 12.5Z" fill="#BFC0C0"/>
</svg>
