<svg width="29" height="23" viewBox="0 0 29 23" fill="none" xmlns="http://www.w3.org/2000/svg">
<path d="M4.5999 9.19999C4.59927 7.76635 5.04522 6.36812 5.87577 5.19957C6.70633 4.03103 7.88024 3.1502 9.2344 2.67949C9.18196 2.35095 9.20142 2.01494 9.29145 1.69465C9.38147 1.37435 9.5399 1.0774 9.75582 0.824286C9.97174 0.571168 10.24 0.367907 10.5421 0.228527C10.8442 0.0891476 11.173 0.0169678 11.5057 0.0169678C11.8384 0.0169678 12.1671 0.0891476 12.4692 0.228527C12.7713 0.367907 13.0396 0.571168 13.2555 0.824286C13.4714 1.0774 13.6298 1.37435 13.7199 1.69465C13.8099 2.01494 13.8293 2.35095 13.7769 2.67949C15.1289 3.15213 16.3003 4.03378 17.1287 5.20216C17.9571 6.37054 18.4014 7.76775 18.3999 9.19999V16.1L21.8499 18.4V19.55H1.1499V18.4L4.5999 16.1V9.19999ZM13.7999 20.7C13.7999 21.31 13.5576 21.895 13.1262 22.3263C12.6949 22.7577 12.1099 23 11.4999 23C10.8899 23 10.3049 22.7577 9.87356 22.3263C9.44222 21.895 9.1999 21.31 9.1999 20.7H13.7999Z" fill="#E9CB6B"/>
<circle cx="21.5" cy="8.5" r="7" fill="#E10808" stroke="#333939"/>
<path d="M18.4135 8.04004H20.3666V8.90918H18.4135V10.8818H17.5443V8.90918H15.5961V8.04004H17.5443V6.04785H18.4135V8.04004ZM24.026 7.53711C24.485 7.53711 24.8886 7.62012 25.2369 7.78613C25.5885 7.94889 25.8619 8.18978 26.0572 8.50879C26.2525 8.82454 26.3502 9.21191 26.3502 9.6709C26.3502 10.1722 26.2444 10.6051 26.0328 10.9697C25.8212 11.3311 25.5104 11.6094 25.1002 11.8047C24.69 12 24.1904 12.0977 23.6012 12.0977C23.2268 12.0977 22.8769 12.0651 22.5514 12C22.2291 11.9349 21.9508 11.8372 21.7164 11.707V10.6719C21.9605 10.8086 22.2535 10.9209 22.5953 11.0088C22.9371 11.0934 23.2643 11.1357 23.5768 11.1357C23.9088 11.1357 24.1936 11.0869 24.4313 10.9893C24.6689 10.8916 24.8512 10.7419 24.9781 10.54C25.1083 10.3382 25.1734 10.0827 25.1734 9.77344C25.1734 9.36328 25.0416 9.04753 24.7779 8.82617C24.5175 8.60156 24.109 8.48926 23.5523 8.48926C23.357 8.48926 23.1487 8.50716 22.9273 8.54297C22.7092 8.57552 22.527 8.61133 22.3805 8.65039L21.8775 8.35254L22.1461 4.86133H25.857V5.87207H23.1568L23.0006 7.64941C23.1178 7.62337 23.2577 7.59896 23.4205 7.57617C23.5833 7.55013 23.7851 7.53711 24.026 7.53711Z" fill="white"/>
</svg>
