<svg width="90" height="109" viewBox="0 0 90 109" fill="none" xmlns="http://www.w3.org/2000/svg">
<g filter="url(#filter0_d_3308_2854)">
<rect x="4" y="1" width="81.226" height="101" rx="5" fill="#E9CB6B"/>
<rect x="5" y="2" width="79.226" height="99" rx="4" stroke="#4A7C59" stroke-width="2"/>
</g>
<path d="M35 36.6465H36.2663" stroke="#396045" stroke-width="0.6" stroke-linecap="round"/>
<path d="M37.457 36.6465H52.5033" stroke="#396045" stroke-width="0.6" stroke-linecap="round"/>
<path d="M53.6953 36.6465H54.9616" stroke="#396045" stroke-width="0.6" stroke-linecap="round"/>
<path d="M38.9102 36.3572L40.3999 25.2646C40.7723 24.9756 41.8524 24.3396 43.1931 24.1084" stroke="#396045" stroke-width="0.6" stroke-linecap="round"/>
<path d="M50.6426 36.3572L49.1529 25.2646C48.7804 24.9756 47.7004 24.3396 46.3596 24.1084" stroke="#396045" stroke-width="0.6" stroke-linecap="round"/>
<path d="M44.0137 23.9635C44.2868 23.8915 44.982 23.7909 45.5779 23.9635" stroke="#396045" stroke-width="0.6" stroke-linecap="round"/>
<path d="M39.9914 27.8304L39.1348 26.5297V21.4712L41.3694 20.4595V21.7964H42.6729V20.0982C43.3929 19.8693 45.2277 19.549 46.8069 20.0982V21.7964H48.1476V20.4595L50.4567 21.4712V26.5297L49.5256 27.8304M39.3582 24.1811C41.1211 23.0128 45.7491 21.3772 50.1587 24.1811" stroke="#396045" stroke-width="0.6" stroke-linecap="round"/>
<path d="M40.1777 21.1455V23.6386" stroke="#396045" stroke-width="0.6"/>
<path d="M49.375 21.1455V23.6386" stroke="#396045" stroke-width="0.6"/>
<line x1="41.7063" y1="24.542" x2="41.7062" y2="36.5379" stroke="#396045" stroke-width="0.6"/>
<line x1="47.9621" y1="24.542" x2="47.9621" y2="36.5379" stroke="#396045" stroke-width="0.6"/>
<path d="M43.8271 36.357V33.9723C43.8147 33.7675 43.9239 33.3219 44.4602 33.1774C45.1306 32.9967 45.652 33.4303 45.6892 33.9723C45.719 34.4059 45.7017 35.7428 45.6892 36.357" stroke="#396045" stroke-width="0.6" stroke-linecap="round"/>
<path d="M44.7949 26.1318V28.8056" stroke="#396045" stroke-width="0.6" stroke-linecap="round"/>
<path d="M44.7949 29.6729V30.3232" stroke="#396045" stroke-width="0.6" stroke-linecap="round"/>
<path d="M44.6377 10.273C44.0067 10.273 43.4904 9.76951 43.4904 9.1541C43.4904 8.5248 44.0067 8.03516 44.6377 8.03516C45.2687 8.03516 45.785 8.5248 45.785 9.1541C45.785 9.76951 45.2687 10.273 44.6377 10.273ZM40.0629 9.81114C40.5649 9.81114 40.9665 10.2166 40.9665 10.7063C40.9665 11.2098 40.5649 11.6014 40.0629 11.6014C39.5466 11.6014 39.1309 11.2098 39.1309 10.7063C39.1309 10.2166 39.5466 9.81114 40.0629 9.81114ZM49.241 9.81114C49.743 9.81114 50.1446 10.2166 50.1446 10.7063C50.1446 11.2098 49.743 11.6014 49.241 11.6014C48.7247 11.6014 48.3089 11.2098 48.3089 10.7063C48.3089 10.2166 48.7247 9.81114 49.241 9.81114ZM41.067 15.9935L40.307 11.9371C40.5365 11.8951 40.7517 11.7693 40.9238 11.6292C41.3969 12.049 41.9995 12.4545 42.5731 12.4545C43.2615 12.4545 43.8209 11.4193 44.2082 10.5523C44.3371 10.5944 44.495 10.6365 44.6386 10.6365C44.7823 10.6365 44.9397 10.5944 45.0691 10.5523C45.4564 11.4197 46.0158 12.4545 46.7042 12.4545C47.2778 12.4545 47.8803 12.049 48.3535 11.6292C48.5255 11.7693 48.7408 11.8951 48.9702 11.9371L48.2103 15.9935H41.0684H41.067ZM40.9091 16.3431H48.3663V17.0283H40.9091V16.3431Z" fill="#FAF3DD"/>
<path d="M27.8096 56.2041H21.3975C21.2334 56.2041 21.0557 56.1859 20.8643 56.1494C20.6774 56.1084 20.4906 56.0469 20.3037 55.9648C20.1214 55.8828 19.946 55.778 19.7773 55.6504C19.6087 55.5182 19.4583 55.361 19.3262 55.1787C19.1986 54.9919 19.096 54.7777 19.0186 54.5361C18.9411 54.29 18.9023 54.0143 18.9023 53.709V48.8965C18.9023 48.7324 18.9206 48.557 18.957 48.3701C18.998 48.1787 19.0596 47.9919 19.1416 47.8096C19.2236 47.6227 19.3307 47.445 19.4629 47.2764C19.5951 47.1077 19.7523 46.9596 19.9346 46.832C20.1214 46.6999 20.3356 46.5951 20.5771 46.5176C20.8187 46.4401 21.0921 46.4014 21.3975 46.4014H27.8096V48.1787H21.3975C21.165 48.1787 20.9873 48.2402 20.8643 48.3633C20.7412 48.4863 20.6797 48.6686 20.6797 48.9102V53.709C20.6797 53.9368 20.7412 54.1146 20.8643 54.2422C20.9919 54.3652 21.1696 54.4268 21.3975 54.4268H27.8096V56.2041ZM41.2941 56.2041H33.1867C33.0591 56.2041 32.9406 56.1813 32.8313 56.1357C32.7219 56.0902 32.6262 56.0286 32.5441 55.9512C32.4667 55.8691 32.4051 55.7734 32.3596 55.6641C32.314 55.5547 32.2912 55.4362 32.2912 55.3086V46.4014H34.0686V54.4268H41.2941V56.2041ZM54.4848 55.3086C54.4848 55.4362 54.462 55.5547 54.4164 55.6641C54.3708 55.7734 54.307 55.8691 54.225 55.9512C54.143 56.0286 54.0473 56.0902 53.9379 56.1357C53.8285 56.1813 53.7123 56.2041 53.5893 56.2041H49.5834C49.2051 56.2041 48.8223 56.1631 48.435 56.0811C48.0476 55.999 47.6716 55.8737 47.307 55.7051C46.947 55.5319 46.6075 55.3132 46.2885 55.0488C45.9695 54.7845 45.6892 54.4723 45.4477 54.1123C45.2107 53.7477 45.0238 53.333 44.8871 52.8682C44.7504 52.3988 44.682 51.877 44.682 51.3027V46.4014H46.4594V51.3027C46.4594 51.804 46.5277 52.2279 46.6645 52.5742C46.8057 52.9206 46.9835 53.21 47.1977 53.4424C47.4118 53.6748 47.6465 53.8571 47.9018 53.9893C48.157 54.1214 48.3985 54.2194 48.6264 54.2832C48.8588 54.347 49.0616 54.388 49.2348 54.4062C49.4125 54.4199 49.5287 54.4268 49.5834 54.4268H52.7074V46.4014H54.4848V55.3086ZM69.1383 54.0508C69.1383 54.2695 69.0995 54.5042 69.0221 54.7549C68.9492 55.0055 68.8261 55.238 68.6529 55.4521C68.4843 55.6663 68.2633 55.8464 67.9898 55.9922C67.7164 56.1335 67.3814 56.2041 66.985 56.2041H60.2379C60.1103 56.2041 59.9918 56.1813 59.8824 56.1357C59.773 56.0902 59.6773 56.0286 59.5953 55.9512C59.5178 55.8691 59.4563 55.7734 59.4107 55.6641C59.3652 55.5547 59.3424 55.4362 59.3424 55.3086V47.2969C59.3424 47.1738 59.3652 47.0576 59.4107 46.9482C59.4563 46.8389 59.5178 46.7432 59.5953 46.6611C59.6773 46.5791 59.773 46.5153 59.8824 46.4697C59.9918 46.4242 60.1103 46.4014 60.2379 46.4014H66.1852C66.4039 46.4014 66.6386 46.4401 66.8893 46.5176C67.1399 46.5951 67.3723 46.7204 67.5865 46.8936C67.8053 47.0622 67.9853 47.2832 68.1266 47.5566C68.2724 47.8301 68.3453 48.165 68.3453 48.5615V48.8965C68.3453 49.2109 68.2929 49.5505 68.1881 49.915C68.0833 50.2751 67.9146 50.6169 67.6822 50.9404C67.8827 51.0635 68.0696 51.2116 68.2428 51.3848C68.4205 51.5579 68.5755 51.7585 68.7076 51.9863C68.8398 52.2142 68.9446 52.4717 69.0221 52.7588C69.0995 53.0459 69.1383 53.3626 69.1383 53.709V54.0508ZM67.3609 53.709C67.3609 53.4766 67.3245 53.2692 67.2516 53.0869C67.1786 52.9001 67.0761 52.7406 66.9439 52.6084C66.8118 52.4762 66.6523 52.376 66.4654 52.3076C66.2786 52.2347 66.0689 52.1982 65.8365 52.1982H61.8307V50.4072H65.0367C65.2691 50.4072 65.4788 50.373 65.6656 50.3047C65.8525 50.2318 66.012 50.1292 66.1441 49.9971C66.2763 49.8649 66.3766 49.7077 66.4449 49.5254C66.5178 49.3385 66.5543 49.1289 66.5543 48.8965V48.5615C66.5543 48.3063 66.4313 48.1787 66.1852 48.1787H61.1197V54.4268H66.985C67.0169 54.4268 67.0556 54.4245 67.1012 54.4199C67.1467 54.4154 67.1878 54.4017 67.2242 54.3789C67.2607 54.3561 67.2926 54.3174 67.3199 54.2627C67.3473 54.208 67.3609 54.1328 67.3609 54.0371V53.709ZM25.998 70.2041H24.8467V66.4512L22.8208 70.0151C22.771 70.106 22.7007 70.1748 22.6099 70.2217C22.522 70.2686 22.4268 70.292 22.3242 70.292C22.2246 70.292 22.1309 70.2686 22.043 70.2217C21.958 70.1748 21.8906 70.106 21.8408 70.0151L19.8062 66.4512V70.2041H18.6636V64.3901C18.6636 64.2583 18.7017 64.1411 18.7778 64.0386C18.8569 63.936 18.9595 63.8672 19.0854 63.832C19.147 63.8174 19.2085 63.813 19.27 63.8188C19.3315 63.8218 19.3901 63.835 19.4458 63.8584C19.5044 63.8789 19.5571 63.9097 19.604 63.9507C19.6509 63.9888 19.6904 64.0356 19.7227 64.0913L22.3242 68.6133L24.9258 64.0913C24.9932 63.98 25.0854 63.9009 25.2026 63.854C25.3228 63.8071 25.4473 63.7998 25.5762 63.832C25.6992 63.8672 25.8003 63.936 25.8794 64.0386C25.9585 64.1411 25.998 64.2583 25.998 64.3901V70.2041ZM35.1327 70.2041H33.9901V68.6572H29.9735V70.2041H28.8309V67.0532C28.8309 66.5933 28.91 66.1699 29.0682 65.7832C29.2264 65.3965 29.4462 65.064 29.7274 64.7856C30.0087 64.5073 30.3412 64.2905 30.725 64.1353C31.1088 63.98 31.5277 63.9023 31.9818 63.9023H34.557C34.6361 63.9023 34.7108 63.917 34.7811 63.9463C34.8514 63.9756 34.913 64.0166 34.9657 64.0693C35.0184 64.1221 35.0595 64.1836 35.0887 64.2539C35.118 64.3242 35.1327 64.3989 35.1327 64.478V70.2041ZM29.9735 67.5146H33.9901V65.0449H31.9818C31.9467 65.0449 31.872 65.0508 31.7577 65.0625C31.6464 65.0713 31.516 65.0962 31.3666 65.1372C31.2201 65.1782 31.0648 65.2412 30.9008 65.3262C30.7367 65.4111 30.5858 65.5283 30.4481 65.6777C30.3104 65.8271 30.1962 66.0146 30.1054 66.2402C30.0175 66.4629 29.9735 66.7339 29.9735 67.0532V67.5146ZM44.1399 68.3496C44.1399 68.5752 44.1106 68.7788 44.052 68.9604C43.9963 69.1392 43.9216 69.2974 43.8279 69.4351C43.7341 69.5728 43.6243 69.6899 43.4983 69.7866C43.3723 69.8833 43.242 69.9624 43.1072 70.0239C42.9724 70.0854 42.8347 70.1309 42.6941 70.1602C42.5564 70.1895 42.426 70.2041 42.303 70.2041H37.8953V69.0615H42.303C42.5227 69.0615 42.6926 68.9971 42.8128 68.8682C42.9358 68.7393 42.9973 68.5664 42.9973 68.3496C42.9973 68.2441 42.9812 68.1475 42.949 68.0596C42.9168 67.9717 42.8699 67.8955 42.8084 67.8311C42.7498 67.7666 42.6765 67.7168 42.5886 67.6816C42.5037 67.6465 42.4085 67.6289 42.303 67.6289H39.6751C39.4905 67.6289 39.2913 67.5967 39.0774 67.5322C38.8635 67.4648 38.6643 67.3579 38.4797 67.2114C38.2981 67.0649 38.1458 66.873 38.0227 66.6357C37.9026 66.3984 37.8425 66.1084 37.8425 65.7656C37.8425 65.4229 37.9026 65.1343 38.0227 64.8999C38.1458 64.6626 38.2981 64.4707 38.4797 64.3242C38.6643 64.1748 38.8635 64.0679 39.0774 64.0034C39.2913 63.936 39.4905 63.9023 39.6751 63.9023H43.5642V65.0449H39.6751C39.4583 65.0449 39.2883 65.1108 39.1653 65.2427C39.0452 65.3745 38.9851 65.5488 38.9851 65.7656C38.9851 65.9854 39.0452 66.1597 39.1653 66.2886C39.2883 66.4146 39.4583 66.4775 39.6751 66.4775H42.303H42.3118C42.4348 66.4805 42.5652 66.498 42.7029 66.5303C42.8406 66.5596 42.9768 66.6064 43.1116 66.6709C43.2493 66.7354 43.3796 66.8174 43.5027 66.917C43.6257 67.0137 43.7341 67.1309 43.8279 67.2686C43.9246 67.4062 44.0007 67.5645 44.0564 67.7432C44.1121 67.9219 44.1399 68.124 44.1399 68.3496ZM52.3341 65.0449H49.8161V70.2041H48.6735V65.0449H46.151V63.9023H52.3341V65.0449ZM59.979 67.6289H56.3711V66.4775H59.979V67.6289ZM60.4932 70.2041H56.3711C56.2129 70.2041 56.0401 70.1763 55.8526 70.1206C55.6651 70.0649 55.4907 69.9741 55.3296 69.8481C55.1714 69.7192 55.0381 69.5537 54.9297 69.3516C54.8242 69.1465 54.7715 68.896 54.7715 68.6001V64.478C54.7715 64.3989 54.7862 64.3242 54.8154 64.2539C54.8447 64.1836 54.8843 64.1221 54.9341 64.0693C54.9868 64.0166 55.0484 63.9756 55.1187 63.9463C55.189 63.917 55.2652 63.9023 55.3472 63.9023H60.4932V65.0449H55.9141V68.6001C55.9141 68.7495 55.9536 68.8638 56.0327 68.9429C56.1118 69.022 56.2276 69.0615 56.3799 69.0615H60.4932V70.2041ZM69.518 66.0205C69.518 66.2812 69.4857 66.5142 69.4213 66.7192C69.3568 66.9243 69.2689 67.106 69.1576 67.2642C69.0492 67.4194 68.9232 67.5527 68.7797 67.6641C68.6361 67.7754 68.4853 67.8677 68.327 67.9409C68.1718 68.0112 68.0136 68.0625 67.8524 68.0947C67.6942 68.127 67.5448 68.1431 67.4042 68.1431L69.7904 70.2041H68.0238L65.642 68.1431H64.8202V67.0005H67.4042C67.5478 66.9888 67.6781 66.9595 67.7953 66.9126C67.9154 66.8628 68.018 66.7969 68.1029 66.7148C68.1908 66.6328 68.2582 66.5347 68.3051 66.4204C68.352 66.3032 68.3754 66.1699 68.3754 66.0205V65.2998C68.3754 65.2354 68.3666 65.187 68.349 65.1548C68.3344 65.1196 68.3139 65.0947 68.2875 65.0801C68.2641 65.0625 68.2377 65.0522 68.2084 65.0493C68.182 65.0464 68.1571 65.0449 68.1337 65.0449H64.3632V70.2041H63.2206V64.478C63.2206 64.3989 63.2353 64.3242 63.2645 64.2539C63.2938 64.1836 63.3334 64.1221 63.3832 64.0693C63.4359 64.0166 63.4975 63.9756 63.5678 63.9463C63.6381 63.917 63.7143 63.9023 63.7963 63.9023H68.1337C68.3886 63.9023 68.6039 63.9492 68.7797 64.043C68.9555 64.1338 69.0976 64.2495 69.206 64.3901C69.3173 64.5278 69.3964 64.6772 69.4433 64.8384C69.4931 64.9995 69.518 65.1504 69.518 65.291V66.0205Z" fill="#396045"/>
<path d="M25.0947 79.6816L23.8203 83.3789H23.0498L24.6553 79.1133H25.1475L25.0947 79.6816ZM26.1611 83.3789L24.8838 79.6816L24.8281 79.1133H25.3232L26.9346 83.3789H26.1611ZM26.0996 81.7969V82.3799H23.7793V81.7969H26.0996ZM29.3979 79.1133V83.3789H28.6684V79.1133H29.3979ZM30.7367 79.1133V79.6992H27.3412V79.1133H30.7367ZM34.7176 80.8945V81.4775H32.4529V80.8945H34.7176ZM32.6346 79.1133V83.3789H31.8992V79.1133H32.6346ZM35.283 79.1133V83.3789H34.5506V79.1133H35.283ZM38.4729 79.6816L37.1984 83.3789H36.4279L38.0334 79.1133H38.5256L38.4729 79.6816ZM39.5393 83.3789L38.2619 79.6816L38.2063 79.1133H38.7014L40.3127 83.3789H39.5393ZM39.4777 81.7969V82.3799H37.1574V81.7969H39.4777ZM44.774 79.1133V83.3789H44.0387L42.1256 80.3232V83.3789H41.3902V79.1133H42.1256L44.0445 82.1748V79.1133H44.774ZM47.0352 79.1133V83.3789H46.2998V79.1133H47.0352ZM53.1629 81.9902H53.8953C53.8719 82.2695 53.7938 82.5186 53.6609 82.7373C53.5281 82.9541 53.3416 83.125 53.1014 83.25C52.8611 83.375 52.5691 83.4375 52.2254 83.4375C51.9617 83.4375 51.7244 83.3906 51.5135 83.2969C51.3025 83.2012 51.1219 83.0664 50.9715 82.8926C50.8211 82.7168 50.7059 82.5049 50.6258 82.2568C50.5477 82.0088 50.5086 81.7314 50.5086 81.4248V81.0703C50.5086 80.7637 50.5486 80.4863 50.6287 80.2383C50.7107 79.9902 50.8279 79.7783 50.9803 79.6025C51.1326 79.4248 51.3152 79.2891 51.5281 79.1953C51.743 79.1016 51.9842 79.0547 52.2518 79.0547C52.5916 79.0547 52.8787 79.1172 53.1131 79.2422C53.3475 79.3672 53.5291 79.54 53.658 79.7607C53.7889 79.9814 53.8689 80.2344 53.8982 80.5195H53.1658C53.1463 80.3359 53.1033 80.1787 53.0369 80.0479C52.9725 79.917 52.8768 79.8174 52.7498 79.749C52.6229 79.6787 52.4568 79.6436 52.2518 79.6436C52.0838 79.6436 51.9373 79.6748 51.8123 79.7373C51.6873 79.7998 51.5828 79.8916 51.4988 80.0127C51.4148 80.1338 51.3514 80.2832 51.3084 80.4609C51.2674 80.6367 51.2469 80.8379 51.2469 81.0645V81.4248C51.2469 81.6396 51.2654 81.835 51.3025 82.0107C51.3416 82.1846 51.4002 82.334 51.4783 82.459C51.5584 82.584 51.66 82.6807 51.783 82.749C51.9061 82.8174 52.0535 82.8516 52.2254 82.8516C52.4344 82.8516 52.6033 82.8184 52.7322 82.752C52.8631 82.6855 52.9617 82.5889 53.0281 82.4619C53.0965 82.333 53.1414 82.1758 53.1629 81.9902ZM57.8352 82.7959V83.3789H55.6936V82.7959H57.8352ZM55.8986 79.1133V83.3789H55.1633V79.1133H55.8986ZM61.274 79.1133H62.0064V81.9639C62.0064 82.2881 61.9361 82.5596 61.7955 82.7783C61.6549 82.9971 61.4635 83.1621 61.2213 83.2734C60.9811 83.3828 60.7125 83.4375 60.4156 83.4375C60.109 83.4375 59.8355 83.3828 59.5953 83.2734C59.3551 83.1621 59.1656 82.9971 59.027 82.7783C58.8902 82.5596 58.8219 82.2881 58.8219 81.9639V79.1133H59.5543V81.9639C59.5543 82.1689 59.5895 82.3379 59.6598 82.4707C59.7301 82.6016 59.8297 82.6982 59.9586 82.7607C60.0875 82.8232 60.2398 82.8545 60.4156 82.8545C60.5914 82.8545 60.7428 82.8232 60.8697 82.7607C60.9986 82.6982 61.0982 82.6016 61.1686 82.4707C61.2389 82.3379 61.274 82.1689 61.274 81.9639V79.1133ZM65.0059 81.4512H63.9189L63.9131 80.915H64.8623C65.0225 80.915 65.1582 80.8916 65.2695 80.8447C65.3828 80.7959 65.4688 80.7266 65.5273 80.6367C65.5859 80.5449 65.6152 80.4346 65.6152 80.3057C65.6152 80.1631 65.5879 80.0469 65.5332 79.957C65.4785 79.8672 65.3945 79.8018 65.2812 79.7607C65.1699 79.7197 65.0273 79.6992 64.8535 79.6992H64.1416V83.3789H63.4062V79.1133H64.8535C65.0879 79.1133 65.2969 79.1357 65.4805 79.1807C65.666 79.2256 65.8232 79.2959 65.9521 79.3916C66.083 79.4854 66.1816 79.6045 66.248 79.749C66.3164 79.8936 66.3506 80.0654 66.3506 80.2646C66.3506 80.4404 66.3086 80.6016 66.2246 80.748C66.1406 80.8926 66.0166 81.0107 65.8525 81.1025C65.6885 81.1943 65.4844 81.249 65.2402 81.2666L65.0059 81.4512ZM64.9736 83.3789H63.6875L64.0186 82.7959H64.9736C65.1396 82.7959 65.2783 82.7686 65.3896 82.7139C65.501 82.6572 65.584 82.5801 65.6387 82.4824C65.6953 82.3828 65.7236 82.2666 65.7236 82.1338C65.7236 81.9951 65.6992 81.875 65.6504 81.7734C65.6016 81.6699 65.5244 81.5908 65.4189 81.5361C65.3135 81.4795 65.1758 81.4512 65.0059 81.4512H64.1797L64.1855 80.915H65.2607L65.4277 81.1172C65.6621 81.125 65.8545 81.1768 66.0049 81.2725C66.1572 81.3682 66.2705 81.4922 66.3447 81.6445C66.4189 81.7969 66.4561 81.9609 66.4561 82.1367C66.4561 82.4082 66.3965 82.6357 66.2773 82.8193C66.1602 83.0029 65.9912 83.1426 65.7705 83.2383C65.5498 83.332 65.2842 83.3789 64.9736 83.3789Z" fill="#4A7C59"/>
<path d="M28.7324 89.1631H29.3887L30.6221 92.4531L31.8525 89.1631H32.5088L30.8799 93.4287H30.3584L28.7324 89.1631ZM28.4336 89.1631H29.0576L29.166 92.0107V93.4287H28.4336V89.1631ZM32.1836 89.1631H32.8105V93.4287H32.0752V92.0107L32.1836 89.1631ZM35.5504 92.793V91.2812C35.5504 91.168 35.5299 91.0703 35.4889 90.9883C35.4479 90.9062 35.3854 90.8428 35.3014 90.7979C35.2193 90.7529 35.1158 90.7305 34.9908 90.7305C34.8756 90.7305 34.776 90.75 34.692 90.7891C34.608 90.8281 34.5426 90.8809 34.4957 90.9473C34.4488 91.0137 34.4254 91.0889 34.4254 91.1729H33.7223C33.7223 91.0479 33.7525 90.9268 33.8131 90.8096C33.8736 90.6924 33.9615 90.5879 34.0768 90.4961C34.192 90.4043 34.3297 90.332 34.4898 90.2793C34.65 90.2266 34.8297 90.2002 35.0289 90.2002C35.2672 90.2002 35.4781 90.2402 35.6617 90.3203C35.8473 90.4004 35.9928 90.5215 36.0982 90.6836C36.2057 90.8438 36.2594 91.0449 36.2594 91.2871V92.6963C36.2594 92.8408 36.2691 92.9707 36.2887 93.0859C36.3102 93.1992 36.3404 93.2979 36.3795 93.3818V93.4287H35.6559C35.6227 93.3525 35.5963 93.2559 35.5768 93.1387C35.5592 93.0195 35.5504 92.9043 35.5504 92.793ZM35.6529 91.501L35.6588 91.9375H35.152C35.0211 91.9375 34.9059 91.9502 34.8063 91.9756C34.7066 91.999 34.6236 92.0342 34.5572 92.0811C34.4908 92.1279 34.441 92.1846 34.4078 92.251C34.3746 92.3174 34.358 92.3926 34.358 92.4766C34.358 92.5605 34.3775 92.6377 34.4166 92.708C34.4557 92.7764 34.5123 92.8301 34.5865 92.8691C34.6627 92.9082 34.7545 92.9277 34.8619 92.9277C35.0064 92.9277 35.1324 92.8984 35.2398 92.8398C35.3492 92.7793 35.4352 92.7061 35.4977 92.6201C35.5602 92.5322 35.5934 92.4492 35.5973 92.3711L35.8258 92.6846C35.8023 92.7646 35.7623 92.8506 35.7057 92.9424C35.649 93.0342 35.5748 93.1221 35.483 93.2061C35.3932 93.2881 35.2848 93.3555 35.1578 93.4082C35.0328 93.4609 34.8883 93.4873 34.7242 93.4873C34.5172 93.4873 34.3326 93.4463 34.1705 93.3643C34.0084 93.2803 33.8814 93.168 33.7896 93.0273C33.6979 92.8848 33.652 92.7236 33.652 92.5439C33.652 92.376 33.6832 92.2275 33.7457 92.0986C33.8102 91.9678 33.9039 91.8584 34.027 91.7705C34.152 91.6826 34.3043 91.6162 34.484 91.5713C34.6637 91.5244 34.8688 91.501 35.0992 91.501H35.6529ZM37.8566 90.8623V93.4287H37.1506V90.2588H37.8244L37.8566 90.8623ZM38.8264 90.2383L38.8205 90.8945C38.7775 90.8867 38.7307 90.8809 38.6799 90.877C38.6311 90.873 38.5822 90.8711 38.5334 90.8711C38.4123 90.8711 38.3059 90.8887 38.2141 90.9238C38.1223 90.957 38.0451 91.0059 37.9826 91.0703C37.9221 91.1328 37.8752 91.209 37.842 91.2988C37.8088 91.3887 37.7893 91.4893 37.7834 91.6006L37.6223 91.6123C37.6223 91.4131 37.6418 91.2285 37.6809 91.0586C37.7199 90.8887 37.7785 90.7393 37.8566 90.6104C37.9367 90.4814 38.0363 90.3809 38.1555 90.3086C38.2766 90.2363 38.4162 90.2002 38.5744 90.2002C38.6174 90.2002 38.6633 90.2041 38.7121 90.2119C38.7629 90.2197 38.801 90.2285 38.8264 90.2383ZM40.6551 92.9248C40.7703 92.9248 40.8738 92.9023 40.9656 92.8574C41.0594 92.8105 41.1346 92.7461 41.1912 92.6641C41.2498 92.582 41.282 92.4873 41.2879 92.3799H41.9529C41.949 92.585 41.8885 92.7715 41.7713 92.9395C41.6541 93.1074 41.4988 93.2412 41.3055 93.3408C41.1121 93.4385 40.8982 93.4873 40.6639 93.4873C40.4217 93.4873 40.2107 93.4463 40.0311 93.3643C39.8514 93.2803 39.702 93.165 39.5828 93.0186C39.4637 92.8721 39.3738 92.7031 39.3133 92.5117C39.2547 92.3203 39.2254 92.1152 39.2254 91.8965V91.7939C39.2254 91.5752 39.2547 91.3701 39.3133 91.1787C39.3738 90.9854 39.4637 90.8154 39.5828 90.6689C39.702 90.5225 39.8514 90.4082 40.0311 90.3262C40.2107 90.2422 40.4207 90.2002 40.6609 90.2002C40.9148 90.2002 41.1375 90.251 41.3289 90.3525C41.5203 90.4521 41.6707 90.5918 41.7801 90.7715C41.8914 90.9492 41.949 91.1562 41.9529 91.3926H41.2879C41.282 91.2754 41.2527 91.1699 41.2 91.0762C41.1492 90.9805 41.077 90.9043 40.9832 90.8477C40.8914 90.791 40.7811 90.7627 40.6521 90.7627C40.5096 90.7627 40.3914 90.792 40.2977 90.8506C40.2039 90.9072 40.1307 90.9854 40.0779 91.085C40.0252 91.1826 39.9871 91.293 39.9637 91.416C39.9422 91.5371 39.9314 91.6631 39.9314 91.7939V91.8965C39.9314 92.0273 39.9422 92.1543 39.9637 92.2773C39.9852 92.4004 40.0223 92.5107 40.075 92.6084C40.1297 92.7041 40.2039 92.7812 40.2977 92.8398C40.3914 92.8965 40.5105 92.9248 40.6551 92.9248ZM43.3422 88.9287V93.4287H42.6391V88.9287H43.3422ZM43.2191 91.7266L42.9906 91.7236C42.9926 91.5049 43.0229 91.3027 43.0814 91.1172C43.142 90.9316 43.226 90.7705 43.3334 90.6338C43.4428 90.4951 43.5736 90.3887 43.726 90.3145C43.8783 90.2383 44.0473 90.2002 44.2328 90.2002C44.3891 90.2002 44.5297 90.2217 44.6547 90.2646C44.7816 90.3076 44.891 90.377 44.9828 90.4727C45.0746 90.5664 45.1439 90.6895 45.1908 90.8418C45.2396 90.9922 45.2641 91.1758 45.2641 91.3926V93.4287H44.5551V91.3867C44.5551 91.2344 44.5326 91.1133 44.4877 91.0234C44.4447 90.9336 44.3813 90.8691 44.2973 90.8301C44.2133 90.7891 44.1107 90.7686 43.9896 90.7686C43.8627 90.7686 43.7504 90.7939 43.6527 90.8447C43.557 90.8955 43.477 90.9648 43.4125 91.0527C43.348 91.1406 43.2992 91.2422 43.266 91.3574C43.2348 91.4727 43.2191 91.5957 43.2191 91.7266ZM50.5914 92.8662V93.4287H47.732V92.9453L49.1207 91.4307C49.273 91.2588 49.3932 91.1104 49.4811 90.9854C49.5689 90.8604 49.6305 90.748 49.6656 90.6484C49.7027 90.5469 49.7213 90.4482 49.7213 90.3525C49.7213 90.2178 49.6959 90.0996 49.6451 89.998C49.5963 89.8945 49.524 89.8135 49.4283 89.7549C49.3326 89.6943 49.2164 89.6641 49.0797 89.6641C48.9215 89.6641 48.7887 89.6982 48.6812 89.7666C48.5738 89.835 48.4928 89.9297 48.4381 90.0508C48.3834 90.1699 48.3561 90.3066 48.3561 90.4609H47.65C47.65 90.2129 47.7066 89.9863 47.8199 89.7812C47.9332 89.5742 48.0973 89.4102 48.3121 89.2891C48.527 89.166 48.7857 89.1045 49.0885 89.1045C49.3736 89.1045 49.6158 89.1523 49.815 89.248C50.0143 89.3438 50.1656 89.4795 50.2691 89.6553C50.3746 89.8311 50.4273 90.0391 50.4273 90.2793C50.4273 90.4121 50.4059 90.5439 50.3629 90.6748C50.3199 90.8057 50.2584 90.9365 50.1783 91.0674C50.1002 91.1963 50.0074 91.3262 49.9 91.457C49.7926 91.5859 49.6744 91.7168 49.5455 91.8496L48.6227 92.8662H50.5914ZM54.0725 90.9385V91.6357C54.0725 91.9697 54.0393 92.2549 53.9729 92.4912C53.9084 92.7256 53.8146 92.916 53.6916 93.0625C53.5686 93.209 53.4211 93.3164 53.2492 93.3848C53.0793 93.4531 52.8889 93.4873 52.6779 93.4873C52.51 93.4873 52.3537 93.4658 52.2092 93.4229C52.0666 93.3799 51.9377 93.3125 51.8225 93.2207C51.7072 93.1289 51.6086 93.0107 51.5266 92.8662C51.4465 92.7197 51.384 92.5449 51.3391 92.3418C51.2961 92.1387 51.2746 91.9033 51.2746 91.6357V90.9385C51.2746 90.6025 51.3078 90.3193 51.3742 90.0889C51.4406 89.8564 51.5354 89.668 51.6584 89.5234C51.7814 89.377 51.9279 89.2705 52.0979 89.2041C52.2697 89.1377 52.4611 89.1045 52.6721 89.1045C52.842 89.1045 52.9982 89.126 53.1408 89.1689C53.2854 89.21 53.4143 89.2754 53.5275 89.3652C53.6428 89.4551 53.7404 89.5723 53.8205 89.7168C53.9025 89.8594 53.965 90.0322 54.008 90.2354C54.051 90.4365 54.0725 90.6709 54.0725 90.9385ZM53.3664 91.7354V90.833C53.3664 90.6631 53.3566 90.5137 53.3371 90.3848C53.3176 90.2539 53.2883 90.1436 53.2492 90.0537C53.2121 89.9619 53.1652 89.8877 53.1086 89.8311C53.052 89.7725 52.9875 89.7305 52.9152 89.7051C52.843 89.6777 52.7619 89.6641 52.6721 89.6641C52.5627 89.6641 52.465 89.6855 52.3791 89.7285C52.2932 89.7695 52.2209 89.8359 52.1623 89.9277C52.1037 90.0195 52.0588 90.1406 52.0275 90.291C51.9982 90.4395 51.9836 90.6201 51.9836 90.833V91.7354C51.9836 91.9072 51.9934 92.0586 52.0129 92.1895C52.0324 92.3203 52.0617 92.4326 52.1008 92.5264C52.1398 92.6182 52.1867 92.6943 52.2414 92.7549C52.298 92.8135 52.3625 92.8564 52.4348 92.8838C52.509 92.9111 52.59 92.9248 52.6779 92.9248C52.7893 92.9248 52.8879 92.9033 52.9738 92.8604C53.0598 92.8174 53.132 92.749 53.1906 92.6553C53.2492 92.5596 53.2932 92.4355 53.3225 92.2832C53.3518 92.1309 53.3664 91.9482 53.3664 91.7354ZM57.7117 92.8662V93.4287H54.8523V92.9453L56.241 91.4307C56.3934 91.2588 56.5135 91.1104 56.6014 90.9854C56.6893 90.8604 56.7508 90.748 56.7859 90.6484C56.823 90.5469 56.8416 90.4482 56.8416 90.3525C56.8416 90.2178 56.8162 90.0996 56.7654 89.998C56.7166 89.8945 56.6443 89.8135 56.5486 89.7549C56.4529 89.6943 56.3367 89.6641 56.2 89.6641C56.0418 89.6641 55.909 89.6982 55.8016 89.7666C55.6941 89.835 55.6131 89.9297 55.5584 90.0508C55.5037 90.1699 55.4764 90.3066 55.4764 90.4609H54.7703C54.7703 90.2129 54.827 89.9863 54.9402 89.7812C55.0535 89.5742 55.2176 89.4102 55.4324 89.2891C55.6473 89.166 55.9061 89.1045 56.2088 89.1045C56.4939 89.1045 56.7361 89.1523 56.9354 89.248C57.1346 89.3438 57.2859 89.4795 57.3895 89.6553C57.4949 89.8311 57.5477 90.0391 57.5477 90.2793C57.5477 90.4121 57.5262 90.5439 57.4832 90.6748C57.4402 90.8057 57.3787 90.9365 57.2986 91.0674C57.2205 91.1963 57.1277 91.3262 57.0203 91.457C56.9129 91.5859 56.7947 91.7168 56.6658 91.8496L55.743 92.8662H57.7117ZM61.351 91.9082V92.4707H58.2748L58.2514 92.0459L60.0912 89.1631H60.6566L60.0443 90.2119L58.9867 91.9082H61.351ZM60.8178 89.1631V93.4287H60.1117V89.1631H60.8178Z" fill="#4A7C59"/>
<defs>
<filter id="filter0_d_3308_2854" x="0" y="0" width="89.2256" height="109" filterUnits="userSpaceOnUse" color-interpolation-filters="sRGB">
<feFlood flood-opacity="0" result="BackgroundImageFix"/>
<feColorMatrix in="SourceAlpha" type="matrix" values="0 0 0 0 0 0 0 0 0 0 0 0 0 0 0 0 0 0 127 0" result="hardAlpha"/>
<feOffset dy="3"/>
<feGaussianBlur stdDeviation="2"/>
<feComposite in2="hardAlpha" operator="out"/>
<feColorMatrix type="matrix" values="0 0 0 0 0 0 0 0 0 0 0 0 0 0 0 0 0 0 0.25 0"/>
<feBlend mode="normal" in2="BackgroundImageFix" result="effect1_dropShadow_3308_2854"/>
<feBlend mode="normal" in="SourceGraphic" in2="effect1_dropShadow_3308_2854" result="shape"/>
</filter>
</defs>
</svg>
