<svg width="87" height="80" viewBox="0 0 87 80" fill="none" xmlns="http://www.w3.org/2000/svg">
<path d="M23.637 38.2193L17.9817 79.6914L67.4631 78.0974C67.4464 59.2938 57.9564 40.7384 67.2286 32.926L66.9941 9.94289L58.5112 6.17267V11.828H50.9708V3.34506C44.9385 0.328909 37.7752 2.08833 34.9475 3.34506V11.828H28.3497V5.23016L19.8668 9.94289V32.564L23.637 38.2193Z" fill="#4A7C59"/>
<path d="M20.8977 32.0715L23.7253 35.8417L25.6104 37.7268V8.50781L20.8977 11.3355V32.0715Z" stroke="#3D563B" stroke-width="3"/>
<path d="M25.6104 30.1885L19.9551 77.3159H32.2082L33.1507 24.5332C28.7059 24.5332 26.9332 28.3662 25.6104 30.1885Z" fill="#384F36" stroke="#3D563B" stroke-width="3"/>
<path d="M1 79.1992H6.3918" stroke="#E9CB6B" stroke-linecap="round"/>
<path d="M11.4664 79.1992H75.5336" stroke="#E9CB6B" stroke-linecap="round"/>
<path d="M80.6085 79.1992H86.0003" stroke="#E9CB6B" stroke-linecap="round"/>
<line x1="55.4181" y1="23.0312" x2="55.4181" y2="78.6977" stroke="#E9CB6B"/>
<path d="M17.6509 77.8578L23.9942 26.383C25.58 25.0417 30.1789 22.0907 35.8878 21.0176" stroke="#E9CB6B" stroke-width="1.75" stroke-linecap="round"/>
<path d="M67.6046 77.8578L61.2613 26.383C59.6754 25.0417 55.0766 22.0907 49.3676 21.0176" stroke="#E9CB6B" stroke-width="1.75" stroke-linecap="round"/>
<path d="M39.3768 20.3467C40.5398 20.0114 43.5 19.5419 46.0373 20.3467" stroke="#E9CB6B" stroke-width="1.75" stroke-linecap="round"/>
<path d="M22.2501 38.2886L18.6027 32.2525V8.77867L28.1176 4.08391V10.2877H33.668V2.40721C36.7339 1.3453 44.5467 -0.14138 51.2706 2.40721V10.2877H56.9796V4.08391L66.8117 8.77867V32.2525L62.8471 38.2886M19.5542 21.3539C27.0604 15.9326 46.7669 8.34271 65.543 21.3539" stroke="#E9CB6B" stroke-width="1.75" stroke-linecap="round"/>
<path d="M38.5841 77.8583V66.7921C38.5312 65.8419 38.9964 63.774 41.28 63.1033C44.1345 62.265 46.3546 64.277 46.5132 66.7921C46.64 68.8041 46.566 75.0079 46.5132 77.8583" stroke="#E9CB6B" stroke-width="1.75" stroke-linecap="round"/>
</svg>
