<svg fill="#E9CB6B" width="24px" height="24px" viewBox="0 0 24 24" xmlns="http://www.w3.org/2000/svg">
  <path d="M18,13.18V19a2,2,0,0,1-2,2H5a2,2,0,0,1-2-2V6A2,2,0,0,1,5,4h5.82A6.89,6.89,0,0,0,12,3a7,7,0,0,0-1.41.15C9.13,3.61,7.36,4.9,6.23,6.23,4.9,7.36,3.61,9.13,3.15,10.59A7,7,0,0,0,3,12a6.89,6.89,0,0,0,.82,3.18V19a1,1,0,0,0,1,1H16a1,1,0,0,0,1-1V13.18A6.89,6.89,0,0,0,18,12,7,7,0,0,0,18,13.18ZM12,5a5,5,0,1,1-5,5A5,5,0,0,1,12,5Zm7.94,2.06-4,4A1,1,0,0,1,15.5,11V9H11.45A5,5,0,0,1,11,8a1,1,0,0,1,1-1h3.5V4.5A1,1,0,0,1,17,3.41a1,1,0,0,1,.71.29l4,4A1,1,0,0,1,21.94,8.41Z"/>
</svg> 