<svg width="24" height="24" viewBox="0 0 24 24" fill="none" xmlns="http://www.w3.org/2000/svg">
<path d="M0.5 19.1044C0.5 20.2884 0.916 21.2964 1.748 22.1284C2.58 22.9604 3.588 23.3764 4.772 23.3764H18.98C20.148 23.3764 21.148 22.9604 21.98 22.1284C22.812 21.2964 23.228 20.2884 23.228 19.1044V12.9604L20.396 15.3364V19.1044C20.396 19.5044 20.26 19.8404 19.988 20.1124C19.716 20.3844 19.38 20.5284 18.98 20.5444H4.772C4.372 20.5444 4.036 20.4004 3.764 20.1124C3.492 19.8244 3.356 19.4884 3.356 19.1044V4.89644C3.356 4.51244 3.492 4.17644 3.764 3.88844C4.036 3.60044 4.372 3.46444 4.772 3.48044H11.876V0.648438H4.772C3.588 0.648438 2.58 1.06444 1.748 1.89644C0.916 2.72844 0.5 3.72844 0.5 4.89644L0.5 19.1044ZM4.772 14.8564C4.772 16.2324 5.044 17.5524 5.588 18.8164C5.844 17.3444 6.404 16.0084 7.268 14.8084C8.132 13.6084 9.204 12.6404 10.484 11.9044C11.764 11.1684 13.172 10.7524 14.708 10.6564V14.8564L23.228 7.75244L14.708 0.648438V4.89644C13.364 4.89644 12.076 5.16044 10.844 5.68844C9.612 6.21644 8.556 6.92844 7.676 7.82444C6.796 8.72044 6.084 9.77644 5.54 10.9924C4.996 12.2084 4.74 13.4964 4.772 14.8564Z" fill="#E9CB6B"/>
</svg>
