<svg width="28" height="25" viewBox="0 0 28 25" fill="none" xmlns="http://www.w3.org/2000/svg">
<g filter="url(#filter0_i_3151_2804)">
<path d="M26.8333 3.125H21.7778V1.17188C21.7778 0.522461 21.2576 0 20.6111 0H7.38889C6.74236 0 6.22222 0.522461 6.22222 1.17188V3.125H1.16667C0.520139 3.125 0 3.64746 0 4.29688V7.03125C0 8.77441 1.09375 10.5664 3.00903 11.9482C4.54028 13.0566 6.40208 13.7598 8.35625 13.9844C9.88264 16.5283 11.6667 17.5781 11.6667 17.5781V21.0938H9.33333C7.61736 21.0938 6.22222 22.1045 6.22222 23.8281V24.4141C6.22222 24.7363 6.48472 25 6.80556 25H21.1944C21.5153 25 21.7778 24.7363 21.7778 24.4141V23.8281C21.7778 22.1045 20.3826 21.0938 18.6667 21.0938H16.3333V17.5781C16.3333 17.5781 18.1174 16.5283 19.6437 13.9844C21.6028 13.7598 23.4646 13.0566 24.991 11.9482C26.9014 10.5664 28 8.77441 28 7.03125V4.29688C28 3.64746 27.4799 3.125 26.8333 3.125ZM4.82708 9.41406C3.64097 8.55469 3.11111 7.59766 3.11111 7.03125V6.25H6.23194C6.28056 7.8418 6.51389 9.23828 6.85417 10.459C6.12014 10.2051 5.43472 9.85352 4.82708 9.41406ZM24.8889 7.03125C24.8889 7.81738 24.0285 8.79395 23.1729 9.41406C22.5653 9.85352 21.875 10.2051 21.141 10.459C21.4813 9.23828 21.7146 7.8418 21.7632 6.25H24.8889V7.03125Z" fill="#FBE367"/>
</g>
<defs>
<filter id="filter0_i_3151_2804" x="0" y="0" width="28" height="29" filterUnits="userSpaceOnUse" color-interpolation-filters="sRGB">
<feFlood flood-opacity="0" result="BackgroundImageFix"/>
<feBlend mode="normal" in="SourceGraphic" in2="BackgroundImageFix" result="shape"/>
<feColorMatrix in="SourceAlpha" type="matrix" values="0 0 0 0 0 0 0 0 0 0 0 0 0 0 0 0 0 0 127 0" result="hardAlpha"/>
<feOffset dy="4"/>
<feGaussianBlur stdDeviation="2"/>
<feComposite in2="hardAlpha" operator="arithmetic" k2="-1" k3="1"/>
<feColorMatrix type="matrix" values="0 0 0 0 0.886275 0 0 0 0 0.65098 0 0 0 0 0.176471 0 0 0 1 0"/>
<feBlend mode="normal" in2="shape" result="effect1_innerShadow_3151_2804"/>
</filter>
</defs>
</svg>
