<svg width="26" height="17" viewBox="0 0 26 17" fill="none" xmlns="http://www.w3.org/2000/svg">
<mask id="path-1-inside-1_3156_3243" fill="white">
<path fill-rule="evenodd" clip-rule="evenodd" d="M4.95824 2.2831C5.35747 0.961969 6.58418 0 8.03557 0C9.43572 0 10.6268 0.895236 11.0676 2.14453H14.6472C15.0879 0.895236 16.279 0 17.6791 0C19.1184 0 20.3367 0.945941 20.7463 2.25002C21.5895 2.47154 22.3187 3.02947 22.7679 3.80525L25.0179 8.03739L16.8214 9.64453H8.94643L0.75 8.03739L3.05357 3.80525C3.48181 3.06556 4.16467 2.52391 4.95824 2.2831Z"/>
</mask>
<path fill-rule="evenodd" clip-rule="evenodd" d="M4.95824 2.2831C5.35747 0.961969 6.58418 0 8.03557 0C9.43572 0 10.6268 0.895236 11.0676 2.14453H14.6472C15.0879 0.895236 16.279 0 17.6791 0C19.1184 0 20.3367 0.945941 20.7463 2.25002C21.5895 2.47154 22.3187 3.02947 22.7679 3.80525L25.0179 8.03739L16.8214 9.64453H8.94643L0.75 8.03739L3.05357 3.80525C3.48181 3.06556 4.16467 2.52391 4.95824 2.2831Z" fill="#E9CB6B"/>
<path d="M4.95824 2.2831L5.24862 3.24002L5.76069 3.08463L5.91549 2.57237L4.95824 2.2831ZM11.0676 2.14453L10.1245 2.47725L10.36 3.14453H11.0676V2.14453ZM14.6472 2.14453V3.14453H15.3547L15.5902 2.47725L14.6472 2.14453ZM20.7463 2.25002L19.7922 2.54967L19.9578 3.07682L20.4922 3.21721L20.7463 2.25002ZM22.7679 3.80525L23.6508 3.33582L23.6423 3.31986L23.6333 3.30421L22.7679 3.80525ZM25.0179 8.03739L25.2103 9.0187L26.5341 8.75913L25.9008 7.56796L25.0179 8.03739ZM16.8214 9.64453V10.6445H16.9185L17.0138 10.6258L16.8214 9.64453ZM8.94643 9.64453L8.75401 10.6258L8.84931 10.6445H8.94643V9.64453ZM0.75 8.03739L-0.12832 7.55932L-0.779922 8.75645L0.557586 9.0187L0.75 8.03739ZM3.05357 3.80525L2.18814 3.30421L2.18155 3.31561L2.17525 3.32717L3.05357 3.80525ZM5.91549 2.57237C6.19074 1.66149 7.03722 1 8.03557 1V-1C6.13115 -1 4.5242 0.262445 4.00099 1.99384L5.91549 2.57237ZM8.03557 1C8.99856 1 9.82041 1.61529 10.1245 2.47725L12.0106 1.81181C11.4331 0.175188 9.87288 -1 8.03557 -1V1ZM11.0676 3.14453H14.6472V1.14453H11.0676V3.14453ZM15.5902 2.47725C15.8943 1.61529 16.7161 1 17.6791 1V-1C15.8418 -1 14.2816 0.175188 13.7041 1.81181L15.5902 2.47725ZM17.6791 1C18.6691 1 19.5098 1.65039 19.7922 2.54967L21.7003 1.95038C21.1636 0.241489 19.5677 -1 17.6791 -1V1ZM20.4922 3.21721C21.0727 3.36969 21.5842 3.75662 21.9024 4.30628L23.6333 3.30421C23.0532 2.30232 22.1064 1.57338 21.0003 1.28284L20.4922 3.21721ZM21.8849 4.27467L24.1349 8.50682L25.9008 7.56796L23.6508 3.33582L21.8849 4.27467ZM24.8254 7.05608L16.629 8.66322L17.0138 10.6258L25.2103 9.0187L24.8254 7.05608ZM16.8214 8.64453H8.94643V10.6445H16.8214V8.64453ZM9.13884 8.66322L0.942414 7.05608L0.557586 9.0187L8.75401 10.6258L9.13884 8.66322ZM1.62832 8.51546L3.93189 4.28332L2.17525 3.32717L-0.12832 7.55932L1.62832 8.51546ZM3.919 4.30628C4.22238 3.78225 4.70162 3.406 5.24862 3.24002L4.66786 1.32619C3.62772 1.64182 2.74124 2.34887 2.18814 3.30421L3.919 4.30628Z" fill="#4A7C59" mask="url(#path-1-inside-1_3156_3243)"/>
<path d="M20.357 16.0715C23.3157 16.0715 25.7142 13.673 25.7142 10.7143C25.7142 7.75565 23.3157 5.35718 20.357 5.35718C17.3984 5.35718 14.9999 7.75565 14.9999 10.7143C14.9999 13.673 17.3984 16.0715 20.357 16.0715Z" fill="#4A7C59"/>
<path d="M5.35714 16.0715C8.31581 16.0715 10.7143 13.673 10.7143 10.7143C10.7143 7.75565 8.31581 5.35718 5.35714 5.35718C2.39847 5.35718 0 7.75565 0 10.7143C0 13.673 2.39847 16.0715 5.35714 16.0715Z" fill="#4A7C59"/>
<path d="M12.857 12.3215C14.3364 12.3215 15.5356 11.1223 15.5356 9.64293C15.5356 8.16359 14.3364 6.96436 12.857 6.96436C11.3777 6.96436 10.1785 8.16359 10.1785 9.64293C10.1785 11.1223 11.3777 12.3215 12.857 12.3215Z" fill="#4A7C59"/>
<path d="M20.3574 14.4639C22.4285 14.4639 24.1074 12.7849 24.1074 10.7139C24.1074 8.6428 22.4285 6.96387 20.3574 6.96387C18.2864 6.96387 16.6074 8.6428 16.6074 10.7139C16.6074 12.7849 18.2864 14.4639 20.3574 14.4639Z" fill="white"/>
<path d="M5.3573 14.4639C7.42837 14.4639 9.1073 12.7849 9.1073 10.7139C9.1073 8.6428 7.42837 6.96387 5.3573 6.96387C3.28623 6.96387 1.6073 8.6428 1.6073 10.7139C1.6073 12.7849 3.28623 14.4639 5.3573 14.4639Z" fill="white"/>
<path d="M12.8574 10.7139C13.4492 10.7139 13.9289 10.2342 13.9289 9.64247C13.9289 9.05074 13.4492 8.57104 12.8574 8.57104C12.2657 8.57104 11.786 9.05074 11.786 9.64247C11.786 10.2342 12.2657 10.7139 12.8574 10.7139Z" fill="white"/>
<path d="M22.3393 9.48176C21.8036 8.89247 21.1072 8.57104 20.3572 8.57104C19.6072 8.57104 18.8572 8.89247 18.3751 9.48176C18.1608 9.69605 18.2143 10.0175 18.4286 10.2318C18.6429 10.446 18.9643 10.3925 19.1786 10.1782C19.8215 9.48176 20.9465 9.48176 21.5893 10.1782C21.6965 10.2853 21.8572 10.3389 21.9643 10.3389C22.0715 10.3389 22.2322 10.2853 22.3393 10.1782C22.5536 10.0175 22.5536 9.69605 22.3393 9.48176ZM5.3572 8.57104C4.6072 8.57104 3.8572 8.89247 3.37506 9.48176C3.16078 9.69605 3.21435 10.0175 3.42863 10.2318C3.64292 10.446 3.96435 10.3925 4.17863 10.1782C4.82149 9.48176 5.94649 9.48176 6.58935 10.1782C6.69649 10.2853 6.8572 10.3389 6.96435 10.3389C7.07149 10.3389 7.2322 10.2853 7.33935 10.1782C7.55363 9.9639 7.55363 9.64247 7.39292 9.42819C6.8572 8.89247 6.1072 8.57104 5.3572 8.57104Z" fill="#CDD9BF"/>
</svg>
